<svg width="88" height="90" viewBox="0 0 88 90" fill="none" xmlns="http://www.w3.org/2000/svg">
<g filter="url(#filter0_di_163_1356)">
<circle cx="43.9587" cy="39.7802" r="39.5324" fill="#313B47"/>
</g>
<g filter="url(#filter1_d_163_1356)">
<path fill-rule="evenodd" clip-rule="evenodd" d="M47.8988 38.5923H49.9386C50.0514 38.5923 50.0384 38.7095 50.0801 38.9453C50.1109 39.1193 50.1313 39.2236 50.163 39.3878L50.8068 42.8235C50.8632 43.1078 50.9059 43.3878 50.9661 43.6841L52.5965 52.3144H47.8989V38.5923L47.8988 38.5923ZM37.9163 38.5923H40.0179V52.3143H35.3511L35.9821 48.8967C36.4371 46.6623 36.816 44.2757 37.2696 42.0251C37.3828 41.4635 37.4909 40.889 37.5942 40.3099L37.9163 38.5922L37.9163 38.5923ZM35.1348 37.5106C35.1348 37.8017 35.1577 38.0175 35.3738 38.2606C35.4774 38.377 35.715 38.5454 35.9075 38.5614L35.5854 40.2791C35.0796 43.1158 34.4784 46.0335 33.9735 48.866C33.869 49.4522 33.7677 50.0206 33.6537 50.586C33.595 50.8774 33.5532 51.1552 33.4945 51.4466L33.3423 52.3144H23.638L24.1503 50.4779C24.5864 48.9369 24.9601 47.3443 25.3374 45.7929L25.989 42.8904C26.176 41.9873 27.0233 37.8371 27.0993 36.9234C27.622 36.9669 28.9719 37.6033 31.3952 37.6033C32.5091 37.6033 33.7011 37.3276 34.7515 37.0655C34.8925 37.0304 35.0979 36.9572 35.2275 36.9543C35.2228 37.1638 35.1347 37.2969 35.1347 37.5106L35.1348 37.5106ZM52.6892 36.9543L54.4997 37.369C56.4925 37.7706 58.4191 37.6161 60.3501 37.0433C60.4496 37.0138 60.7139 36.932 60.8174 36.9234C60.8898 37.2343 60.9286 37.5918 60.9851 37.93C61.2755 39.6671 61.5892 41.1572 61.9274 42.8598C61.9927 43.1886 62.073 43.5154 62.1385 43.8231C62.5602 45.8019 63.2195 48.5218 63.7664 50.447L64.2788 52.3144L54.9762 52.3144C54.9044 52.3146 54.8264 52.3185 54.7563 52.3179C54.6409 52.3168 54.6373 52.3377 54.5897 52.2682L53.3044 45.4253C53.2136 44.9676 53.1434 44.5166 53.0472 44.0445C52.7269 42.4718 52.4707 40.8243 52.1509 39.2541C52.1163 39.0842 52.0618 38.671 52.0092 38.5614C52.4796 38.5222 52.8708 37.9443 52.7973 37.4974C52.7779 37.3793 52.72 37.0233 52.6892 36.9543ZM37.8545 33.8637C42.3333 34.9072 44.9434 34.9046 49.3593 34.0262C49.5036 33.9975 49.9725 33.9067 50.0622 33.8637C50.0661 34.0379 50.1522 34.3599 50.1884 34.5411L50.4614 35.906C50.4998 36.0979 50.5876 36.4209 50.5876 36.6143H37.3291C37.3346 36.3658 37.8545 34.1243 37.8545 33.8637ZM35.6911 34.7291L34.6582 35.0251C33.6684 35.3062 32.1962 35.6253 31.148 35.6253C30.1427 35.6253 28.8884 35.2592 28.6756 35.2545C28.732 35.1775 28.9263 35.0665 29.0156 35.0073L31.497 33.2855C31.7351 33.1063 31.9588 32.9543 32.1943 32.7776L35.5854 30.1729C35.7017 30.081 35.7965 29.9947 35.9077 29.908L39.1293 27.1031C39.1964 27.0361 39.3682 26.8172 39.4616 26.8172H48.4551C48.5487 26.8172 49.3308 27.6502 49.5322 27.8108L50.4565 28.6482C50.528 28.7112 50.554 28.7165 50.6266 28.7871L51.2721 29.347C51.7863 29.7612 52.3199 30.2546 52.9015 30.7154L55.5988 32.8085C56.4953 33.4811 57.4848 34.1556 58.4191 34.7785C58.5366 34.8568 59.0828 35.1554 59.1176 35.2854C58.9478 35.2892 58.7275 35.3608 58.5485 35.3962C58.343 35.4369 58.1754 35.468 57.9742 35.5018C56.6325 35.7273 55.6637 35.5987 54.352 35.2915C53.9799 35.2044 53.6461 35.1318 53.2874 35.0272L52.5154 34.8102C52.148 34.6913 52.2808 34.8965 52.0685 33.8354C52.0075 33.5301 51.9456 33.2208 51.8831 32.9082C51.8016 32.5007 51.7482 32.0515 51.2999 31.8225C50.8581 31.5968 50.554 31.7382 50.0622 31.8549C49.7979 31.9176 49.5244 31.9723 49.2459 32.0275C48.6768 32.1401 48.1601 32.2331 47.5721 32.3317C44.8615 32.7861 43.1057 32.7962 40.3975 32.3406C39.6072 32.2077 38.6932 32.0483 37.904 31.8672C37.3009 31.7289 36.8496 31.5072 36.3469 32.0471C36.1621 32.2455 36.1139 32.538 36.0491 32.8619L35.771 34.2526C35.7401 34.4071 35.6912 34.5717 35.6912 34.7291L35.6911 34.7291ZM44.9628 20.4816V16.3403L45.5809 16.3094C46.7995 16.3094 48.2454 16.9622 49.3648 17.4085C51.1387 18.1157 52.2933 18.6414 54.228 19.0973C54.4784 19.1563 55.3872 19.369 55.5943 19.369L54.3098 19.568C53.9348 19.6202 53.6359 19.6226 53.3089 19.6488C52.4755 19.7156 50.9257 19.6828 50.0309 19.6777C49.3542 19.6738 47.9277 19.8139 47.3167 19.8995C46.8558 19.9641 45.4044 20.2697 44.9628 20.4816H44.9628ZM42.9848 13.9296V24.8393H39.0289C38.4795 24.8393 38.2766 25.2432 37.9547 25.5267L35.4652 27.7349L32.6802 29.9875C30.7766 31.4738 28.7829 32.8177 26.7779 34.1604L25.8926 34.7276C25.5672 34.9212 25.3757 35.1236 25.3112 35.5679C25.0095 37.6463 24.6633 39.6617 24.2535 41.7112C23.8211 43.8731 23.3114 46.0161 22.7788 48.1484C22.7276 48.3535 22.6885 48.5367 22.629 48.7403L22.013 50.9985C21.9376 51.2658 21.3818 53.0485 21.3818 53.2725C21.3818 53.8802 21.8308 54.2923 22.4326 54.2923H65.5459C66.1136 54.2923 66.5349 53.8108 66.5349 53.2725C66.5349 52.9918 66.0024 51.3422 65.9169 51.0162C65.8201 50.6468 65.7003 50.2813 65.6077 49.9037C65.5627 49.7204 65.5087 49.5183 65.4569 49.3437C65.1729 48.3865 64.9685 47.4378 64.7238 46.4608C64.5272 45.6758 64.3714 44.9086 64.186 44.1244C63.6217 41.7373 63.213 39.312 62.804 36.8837C62.7333 36.4637 62.6844 36.0715 62.6233 35.6428C62.5079 34.8321 62.0026 34.7212 61.1707 34.2212L58.5482 32.5169C58.4713 32.461 58.4141 32.4292 58.345 32.3802C58.2706 32.3274 58.2076 32.2778 58.1285 32.2258C57.4205 31.76 56.7224 31.2353 56.0621 30.7071C55.177 29.9991 54.0906 29.2274 53.2686 28.4631C52.8364 28.0613 52.3462 27.7141 51.9246 27.3037L49.4804 25.0503C49.3714 24.9629 49.1354 24.8393 48.9496 24.8393H44.9628V22.6141C44.9628 22.5151 45.0445 22.5094 45.1338 22.4761C45.2261 22.4415 45.2875 22.4144 45.3775 22.3798C45.5436 22.3161 45.7081 22.268 45.863 22.2163C46.5738 21.979 47.2817 21.8662 48.0352 21.7615C49.1727 21.6035 51.9876 21.6559 53.1837 21.6561L54.1401 21.6235C54.6135 21.5845 55.1596 21.5448 55.6208 21.4662C57.0323 21.2253 58.4186 20.8992 59.674 20.2654L60.9704 19.5838C61.1673 19.4712 62.0756 18.9205 62.1772 18.7818C61.979 18.7983 61.8192 18.9198 61.6209 18.9363C61.6154 18.689 61.4889 18.2605 61.4381 18.0066C61.4064 17.8483 61.3785 17.6956 61.3428 17.5456C61.3131 17.4212 61.2608 17.2116 61.25 17.082C60.9019 17.111 59.9428 17.731 57.9431 17.731C56.6679 17.731 55.4364 17.4667 54.4472 17.1784C52.6325 16.6495 50.9844 15.9235 49.2542 15.2321C47.875 14.6809 46.4941 14.1769 44.9628 14.1769C44.9628 12.5628 42.9848 12.8892 42.9848 13.9297V13.9296Z" fill="#F9FC02"/>
</g>
<defs>
<filter id="filter0_di_163_1356" x="0.42627" y="0.247803" width="87.0649" height="89.0649" filterUnits="userSpaceOnUse" color-interpolation-filters="sRGB">
<feFlood flood-opacity="0" result="BackgroundImageFix"/>
<feColorMatrix in="SourceAlpha" type="matrix" values="0 0 0 0 0 0 0 0 0 0 0 0 0 0 0 0 0 0 127 0" result="hardAlpha"/>
<feOffset dy="6"/>
<feGaussianBlur stdDeviation="2"/>
<feComposite in2="hardAlpha" operator="out"/>
<feColorMatrix type="matrix" values="0 0 0 0 0 0 0 0 0 0 0 0 0 0 0 0 0 0 0.6 0"/>
<feBlend mode="normal" in2="BackgroundImageFix" result="effect1_dropShadow_163_1356"/>
<feBlend mode="normal" in="SourceGraphic" in2="effect1_dropShadow_163_1356" result="shape"/>
<feColorMatrix in="SourceAlpha" type="matrix" values="0 0 0 0 0 0 0 0 0 0 0 0 0 0 0 0 0 0 127 0" result="hardAlpha"/>
<feOffset dy="-9"/>
<feComposite in2="hardAlpha" operator="arithmetic" k2="-1" k3="1"/>
<feColorMatrix type="matrix" values="0 0 0 0 0 0 0 0 0 0 0 0 0 0 0 0 0 0 0.25 0"/>
<feBlend mode="normal" in2="shape" result="effect2_innerShadow_163_1356"/>
</filter>
<filter id="filter1_d_163_1356" x="21.3818" y="13.0576" width="45.1528" height="45.2346" filterUnits="userSpaceOnUse" color-interpolation-filters="sRGB">
<feFlood flood-opacity="0" result="BackgroundImageFix"/>
<feColorMatrix in="SourceAlpha" type="matrix" values="0 0 0 0 0 0 0 0 0 0 0 0 0 0 0 0 0 0 127 0" result="hardAlpha"/>
<feOffset dy="4"/>
<feComposite in2="hardAlpha" operator="out"/>
<feColorMatrix type="matrix" values="0 0 0 0 0 0 0 0 0 0 0 0 0 0 0 0 0 0 0.32 0"/>
<feBlend mode="normal" in2="BackgroundImageFix" result="effect1_dropShadow_163_1356"/>
<feBlend mode="normal" in="SourceGraphic" in2="effect1_dropShadow_163_1356" result="shape"/>
</filter>
</defs>
</svg>
