<svg width="156" height="64" viewBox="0 0 156 64" fill="none" xmlns="http://www.w3.org/2000/svg">
<g filter="url(#filter0_di_163_1342)">
<rect x="4.81689" y="0.446533" width="146.971" height="52.5782" rx="9" fill="#313B47"/>
</g>
<path d="M47.2422 20.9661H48.8711L49.8203 26.0754C49.9688 26.9504 50.1016 27.7786 50.2188 28.5598H50.2773C50.5117 27.2629 50.6641 26.4348 50.7344 26.0754L51.8242 20.9661H53.3828L54.4844 26.0754C54.5391 26.3333 54.6211 26.7786 54.7305 27.4114C54.8477 28.0364 54.918 28.4192 54.9414 28.5598H55C55.0391 28.3176 55.1055 27.9036 55.1992 27.3176C55.3008 26.7317 55.3711 26.3176 55.4102 26.0754L56.3477 20.9661H57.9766L55.8906 30.2356H54.1211L53.0664 25.1965C52.793 23.7356 52.6484 22.9504 52.6328 22.8411H52.5859C52.5859 22.8645 52.4414 23.6497 52.1523 25.1965L51.0977 30.2356H49.3398L47.2422 20.9661ZM59.8281 26.8606C59.8281 27.6418 59.9883 28.2239 60.3086 28.6067C60.6289 28.9895 61.0039 29.1809 61.4336 29.1809C61.8555 29.1809 62.2266 28.9895 62.5469 28.6067C62.8672 28.2239 63.0273 27.6418 63.0273 26.8606C63.0273 26.0637 62.8672 25.4778 62.5469 25.1028C62.2266 24.72 61.8555 24.5286 61.4336 24.5286C61.0117 24.5286 60.6367 24.72 60.3086 25.1028C59.9883 25.4778 59.8281 26.0637 59.8281 26.8606ZM58.3047 26.8606C58.3047 25.8528 58.5703 25.0012 59.1016 24.3059C59.6328 23.6106 60.4102 23.2629 61.4336 23.2629C62.4492 23.2629 63.2227 23.6106 63.7539 24.3059C64.2852 25.0012 64.5508 25.8528 64.5508 26.8606C64.5508 27.1731 64.5195 27.4856 64.457 27.7981C64.4023 28.1106 64.3008 28.4309 64.1523 28.759C64.0039 29.0793 63.8164 29.3645 63.5898 29.6145C63.3633 29.8567 63.0625 30.0559 62.6875 30.2122C62.3203 30.3684 61.9023 30.4465 61.4336 30.4465C60.9727 30.4465 60.5547 30.3723 60.1797 30.2239C59.8125 30.0676 59.5117 29.8723 59.2773 29.6379C59.0508 29.3958 58.8594 29.1145 58.7031 28.7942C58.5547 28.4661 58.4492 28.1458 58.3867 27.8333C58.332 27.5129 58.3047 27.1887 58.3047 26.8606ZM65.7695 30.2356V23.4739H67.1992V24.2004C67.3477 23.9504 67.5586 23.7317 67.832 23.5442C68.1133 23.3567 68.4453 23.2629 68.8281 23.2629C69.1875 23.2629 69.4805 23.3137 69.707 23.4153V24.7629C69.4102 24.6692 69.1172 24.6223 68.8281 24.6223C68.3203 24.6223 67.9297 24.8215 67.6562 25.22C67.3906 25.6106 67.2578 26.134 67.2578 26.7903V30.2356H65.7695ZM70.6094 30.2356V20.6614H72.0859V30.2356H70.6094ZM73.4336 26.8489C73.4336 25.7395 73.7031 24.8645 74.2422 24.2239C74.7891 23.5833 75.4805 23.2629 76.3164 23.2629C76.7148 23.2629 77.0586 23.3606 77.3477 23.5559C77.6445 23.7434 77.8711 23.9661 78.0273 24.2239V20.6614H79.5039V30.2356H78.0742V29.3567C77.9336 29.6536 77.6992 29.9114 77.3711 30.1301C77.0508 30.3411 76.6953 30.4465 76.3047 30.4465C75.9531 30.4465 75.6133 30.3801 75.2852 30.2473C74.957 30.1145 74.6484 29.9114 74.3594 29.6379C74.0781 29.3645 73.8516 28.9895 73.6797 28.5129C73.5156 28.0286 73.4336 27.4739 73.4336 26.8489ZM74.957 26.8489C74.957 27.5833 75.0977 28.1575 75.3789 28.5715C75.668 28.9778 76.0469 29.1809 76.5156 29.1809C76.9688 29.1809 77.3359 28.9739 77.6172 28.5598C77.9062 28.1379 78.0508 27.5676 78.0508 26.8489C78.0508 26.1536 77.9102 25.595 77.6289 25.1731C77.3555 24.7434 76.9844 24.5286 76.5156 24.5286C76.0234 24.5286 75.6406 24.7395 75.3672 25.1614C75.0938 25.5833 74.957 26.1458 74.957 26.8489ZM84.3555 30.2356V20.9661H86.2422L87.8711 25.2786C87.9883 25.5989 88.1367 26.0364 88.3164 26.5911C88.4961 27.1379 88.6133 27.4934 88.668 27.6575H88.7148C89.1055 26.5247 89.3828 25.7317 89.5469 25.2786L91.1406 20.9661H93.0508V30.2356H91.5273V26.0286C91.5273 25.3254 91.582 24.3723 91.6914 23.1692H91.6445L90.9766 25.1379L89.2773 29.7083H88.1289L86.4531 25.1379L85.7617 23.1575H85.7031C85.8281 24.2825 85.8906 25.2395 85.8906 26.0286V30.2356H84.3555ZM95.9922 28.3372C95.9922 28.5872 96.0898 28.7981 96.2852 28.97C96.4883 29.134 96.7539 29.2161 97.082 29.2161C97.5508 29.2161 97.9492 29.0598 98.2773 28.7473C98.6133 28.4348 98.7812 28.0247 98.7812 27.5168V26.8958C98.4219 26.9817 97.9883 27.0637 97.4805 27.1418C96.4883 27.2981 95.9922 27.6965 95.9922 28.3372ZM94.4922 28.4661C94.4922 27.1926 95.4375 26.4153 97.3281 26.134C98.0156 26.0325 98.5 25.9387 98.7812 25.8528V25.4895C98.7812 25.1614 98.6641 24.9036 98.4297 24.7161C98.1953 24.5286 97.8828 24.4348 97.4922 24.4348C96.75 24.4348 96.1094 24.7395 95.5703 25.3489L94.668 24.5754C95.0195 24.1614 95.4375 23.8411 95.9219 23.6145C96.4141 23.3801 96.9297 23.2629 97.4688 23.2629C98.4766 23.2629 99.1953 23.509 99.625 24.0012C100.055 24.4856 100.27 25.1653 100.27 26.0403V30.2356H98.8281V29.3918C98.6875 29.6809 98.4414 29.9309 98.0898 30.1418C97.7461 30.345 97.3398 30.4465 96.8711 30.4465C96.1289 30.4465 95.5469 30.2629 95.125 29.8958C94.7031 29.5286 94.4922 29.052 94.4922 28.4661ZM103.328 26.8489C103.328 27.5598 103.461 28.1262 103.727 28.5481C104 28.97 104.379 29.1809 104.863 29.1809C105.324 29.1809 105.699 28.9778 105.988 28.5715C106.277 28.1575 106.422 27.5833 106.422 26.8489C106.422 26.1379 106.281 25.5754 106 25.1614C105.727 24.7395 105.348 24.5286 104.863 24.5286C104.387 24.5286 104.012 24.7434 103.738 25.1731C103.465 25.6028 103.328 26.1614 103.328 26.8489ZM101.863 33.0012V23.4739H103.293V24.3528C103.707 23.6262 104.301 23.2629 105.074 23.2629C105.895 23.2629 106.574 23.5872 107.113 24.2356C107.66 24.8762 107.934 25.7473 107.934 26.8489C107.934 27.4661 107.848 28.0168 107.676 28.5012C107.504 28.9778 107.273 29.3528 106.984 29.6262C106.703 29.8997 106.398 30.1028 106.07 30.2356C105.75 30.3762 105.418 30.4465 105.074 30.4465C104.637 30.4465 104.27 30.3489 103.973 30.1536C103.684 29.9504 103.473 29.7161 103.34 29.4504V33.0012H101.863Z" fill="#F9FC02"/>
<path d="M124.957 23.7083L131.012 29.7631L137.067 23.7083" stroke="white" stroke-width="1.5" stroke-linecap="round" stroke-linejoin="round"/>
<g filter="url(#filter1_d_163_1342)">
<path fill-rule="evenodd" clip-rule="evenodd" d="M38.9805 16.2082C38.9804 16.1342 38.964 16.0612 38.9323 15.9944C38.9007 15.9276 38.8546 15.8686 38.7974 15.8217C38.7402 15.7749 38.6733 15.7413 38.6015 15.7234C38.5298 15.7055 38.455 15.7037 38.3825 15.7182L33.4805 16.6982L28.5785 15.7182C28.5138 15.7053 28.4472 15.7053 28.3825 15.7182L23.3825 16.7182C23.2692 16.7408 23.1672 16.802 23.0939 16.8914C23.0206 16.9807 22.9805 17.0926 22.9805 17.2082V31.2082C22.9805 31.2821 22.997 31.3552 23.0286 31.422C23.0603 31.4888 23.1064 31.5478 23.1636 31.5946C23.2208 31.6415 23.2876 31.6751 23.3594 31.693C23.4311 31.7109 23.506 31.7127 23.5785 31.6982L28.4805 30.7182L33.3825 31.6982C33.4472 31.7111 33.5138 31.7111 33.5785 31.6982L38.5785 30.6982C38.6918 30.6755 38.7937 30.6144 38.867 30.525C38.9403 30.4357 38.9804 30.3237 38.9805 30.2082V16.2082ZM27.9805 29.7982V16.8182L28.4805 16.7182L28.9805 16.8182V29.7982L28.5785 29.7182C28.5138 29.7052 28.4472 29.7052 28.3825 29.7182L27.9805 29.7982ZM32.9805 30.5982V17.6182L33.3825 17.6982C33.4472 17.7111 33.5138 17.7111 33.5785 17.6982L33.9805 17.6182V30.5982L33.4805 30.6982L32.9805 30.5982Z" fill="#F9FC02"/>
</g>
<defs>
<filter id="filter0_di_163_1342" x="0.816895" y="0.446533" width="154.971" height="62.5784" filterUnits="userSpaceOnUse" color-interpolation-filters="sRGB">
<feFlood flood-opacity="0" result="BackgroundImageFix"/>
<feColorMatrix in="SourceAlpha" type="matrix" values="0 0 0 0 0 0 0 0 0 0 0 0 0 0 0 0 0 0 127 0" result="hardAlpha"/>
<feOffset dy="6"/>
<feGaussianBlur stdDeviation="2"/>
<feComposite in2="hardAlpha" operator="out"/>
<feColorMatrix type="matrix" values="0 0 0 0 0 0 0 0 0 0 0 0 0 0 0 0 0 0 0.6 0"/>
<feBlend mode="normal" in2="BackgroundImageFix" result="effect1_dropShadow_163_1342"/>
<feBlend mode="normal" in="SourceGraphic" in2="effect1_dropShadow_163_1342" result="shape"/>
<feColorMatrix in="SourceAlpha" type="matrix" values="0 0 0 0 0 0 0 0 0 0 0 0 0 0 0 0 0 0 127 0" result="hardAlpha"/>
<feOffset dy="-9"/>
<feComposite in2="hardAlpha" operator="arithmetic" k2="-1" k3="1"/>
<feColorMatrix type="matrix" values="0 0 0 0 0 0 0 0 0 0 0 0 0 0 0 0 0 0 0.25 0"/>
<feBlend mode="normal" in2="shape" result="effect2_innerShadow_163_1342"/>
</filter>
<filter id="filter1_d_163_1342" x="22.9805" y="15.7085" width="16" height="19.9995" filterUnits="userSpaceOnUse" color-interpolation-filters="sRGB">
<feFlood flood-opacity="0" result="BackgroundImageFix"/>
<feColorMatrix in="SourceAlpha" type="matrix" values="0 0 0 0 0 0 0 0 0 0 0 0 0 0 0 0 0 0 127 0" result="hardAlpha"/>
<feOffset dy="4"/>
<feComposite in2="hardAlpha" operator="out"/>
<feColorMatrix type="matrix" values="0 0 0 0 0 0 0 0 0 0 0 0 0 0 0 0 0 0 0.32 0"/>
<feBlend mode="normal" in2="BackgroundImageFix" result="effect1_dropShadow_163_1342"/>
<feBlend mode="normal" in="SourceGraphic" in2="effect1_dropShadow_163_1342" result="shape"/>
</filter>
</defs>
</svg>
