<svg width="60" height="119" viewBox="0 0 60 119" fill="none" xmlns="http://www.w3.org/2000/svg">
<g filter="url(#filter0_di_163_1171)">
<rect x="4.69922" y="0.249023" width="50.5043" height="108.08" rx="9" fill="#313B47"/>
</g>
<path d="M29.9475 25.5742V25.8242H30.1975H34.3459C34.3537 25.8242 34.3613 25.8271 34.3678 25.8336C34.3742 25.84 34.3771 25.8476 34.3771 25.8554V27.9648C34.3771 27.9726 34.3742 27.9802 34.3678 27.9867C34.3613 27.9931 34.3537 27.996 34.3459 27.996H30.1975H29.9475V28.246V32.957C29.9475 32.9648 29.9445 32.9724 29.9381 32.9788C29.9316 32.9853 29.924 32.9882 29.9162 32.9882H27.8068C27.799 32.9882 27.7914 32.9853 27.785 32.9788C27.7786 32.9724 27.7756 32.9648 27.7756 32.957V28.246V27.996H27.5256H23.3771C23.3693 27.996 23.3617 27.9931 23.3553 27.9867C23.3489 27.9802 23.3459 27.9726 23.3459 27.9648V25.8554C23.3459 25.8476 23.3489 25.84 23.3553 25.8336C23.3617 25.8271 23.3693 25.8242 23.3771 25.8242H27.5256H27.7756V25.5742V20.8632C27.7756 20.8554 27.7786 20.8478 27.785 20.8414C27.7914 20.835 27.799 20.832 27.8068 20.832H29.9162C29.924 20.832 29.9316 20.835 29.9381 20.8414C29.9445 20.8478 29.9475 20.8554 29.9475 20.8632V25.5742ZM39.0041 35.1891L38.8605 35.3642L39.0207 35.5244L44.1448 40.6485C44.1499 40.656 44.1541 40.6675 44.1541 40.6804C44.1541 40.6857 44.1535 40.689 44.153 40.6909L42.6423 42.2015C42.6405 42.2021 42.6371 42.2027 42.6318 42.2027C42.6189 42.2027 42.6074 42.1985 42.5999 42.1933L37.4758 37.0693L37.3156 36.9091L37.1405 37.0527C32.0044 41.2644 24.394 40.9714 19.5813 36.1553L19.5812 36.1551C14.4726 31.05 14.472 22.7567 19.5813 17.6299C24.7081 12.5205 33.0014 12.5212 38.1066 17.6298L38.1067 17.6299C42.9228 22.4426 43.2158 30.053 39.0041 35.1891ZM36.5968 34.6456L36.597 34.6454C40.8675 30.3712 40.8675 23.449 36.597 19.1748L36.5968 19.1747C32.3226 14.9041 25.4004 14.9041 21.1262 19.1747L21.1261 19.1748C16.8555 23.449 16.8555 30.3712 21.1261 34.6454L21.1262 34.6456C25.4004 38.9161 32.3226 38.9161 36.5968 34.6456Z" fill="#F9FC02" stroke="#313B47" stroke-width="0.5"/>
<path d="M31.4512 78.3281H23.9512M43.4512 94.0781L36.7222 87.3371L43.4512 94.0781ZM40.4512 78.3281C40.4512 81.7096 39.1079 84.9526 36.7168 87.3437C34.3257 89.7348 31.0827 91.0781 27.7012 91.0781C24.3197 91.0781 21.0766 89.7348 18.6856 87.3437C16.2945 84.9526 14.9512 81.7096 14.9512 78.3281C14.9512 74.9466 16.2945 71.7036 18.6856 69.3125C21.0766 66.9214 24.3197 65.5781 27.7012 65.5781C31.0827 65.5781 34.3257 66.9214 36.7168 69.3125C39.1079 71.7036 40.4512 74.9466 40.4512 78.3281V78.3281Z" stroke="#F9FC02" stroke-width="2" stroke-linecap="round"/>
<line x1="6.01855" y1="53.2891" x2="55.2035" y2="53.2891" stroke="#5A616A" stroke-width="2"/>
<defs>
<filter id="filter0_di_163_1171" x="0.699219" y="0.249023" width="58.5044" height="118.08" filterUnits="userSpaceOnUse" color-interpolation-filters="sRGB">
<feFlood flood-opacity="0" result="BackgroundImageFix"/>
<feColorMatrix in="SourceAlpha" type="matrix" values="0 0 0 0 0 0 0 0 0 0 0 0 0 0 0 0 0 0 127 0" result="hardAlpha"/>
<feOffset dy="6"/>
<feGaussianBlur stdDeviation="2"/>
<feComposite in2="hardAlpha" operator="out"/>
<feColorMatrix type="matrix" values="0 0 0 0 0 0 0 0 0 0 0 0 0 0 0 0 0 0 0.6 0"/>
<feBlend mode="normal" in2="BackgroundImageFix" result="effect1_dropShadow_163_1171"/>
<feBlend mode="normal" in="SourceGraphic" in2="effect1_dropShadow_163_1171" result="shape"/>
<feColorMatrix in="SourceAlpha" type="matrix" values="0 0 0 0 0 0 0 0 0 0 0 0 0 0 0 0 0 0 127 0" result="hardAlpha"/>
<feOffset dy="-9"/>
<feComposite in2="hardAlpha" operator="arithmetic" k2="-1" k3="1"/>
<feColorMatrix type="matrix" values="0 0 0 0 0 0 0 0 0 0 0 0 0 0 0 0 0 0 0.25 0"/>
<feBlend mode="normal" in2="shape" result="effect2_innerShadow_163_1171"/>
</filter>
</defs>
</svg>
