<svg width="360" height="79" viewBox="0 0 360 79" fill="none" xmlns="http://www.w3.org/2000/svg">
<mask id="path-1-inside-1_229_9638" fill="white">
<path fill-rule="evenodd" clip-rule="evenodd" d="M143.563 -8.57129L143.559 -8.5657H216.442L216.437 -8.57129H359.408L287.923 78.7589H72.0771V78.7582L0.591797 -8.57129H143.563Z"/>
</mask>
<path fill-rule="evenodd" clip-rule="evenodd" d="M143.563 -8.57129L143.559 -8.5657H216.442L216.437 -8.57129H359.408L287.923 78.7589H72.0771V78.7582L0.591797 -8.57129H143.563Z" fill="#242424"/>
<path d="M143.559 -8.5657L141.238 -10.4665L137.224 -5.5657H143.559V-8.5657ZM143.563 -8.57129L145.884 -6.67045L149.898 -11.5713H143.563V-8.57129ZM216.442 -8.5657V-5.5657H222.776L218.762 -10.4665L216.442 -8.5657ZM216.437 -8.57129V-11.5713H210.102L214.116 -6.67045L216.437 -8.57129ZM359.408 -8.57129L361.73 -6.67104L365.741 -11.5713H359.408V-8.57129ZM287.923 78.7589V81.7589H289.344L290.244 80.6591L287.923 78.7589ZM72.0771 78.7589H69.0771V81.7589H72.0771V78.7589ZM72.0771 78.7582H75.0771V77.687L74.3985 76.858L72.0771 78.7582ZM0.591797 -8.57129V-11.5713H-5.74083L-1.72963 -6.67104L0.591797 -8.57129ZM145.88 -6.66486L145.884 -6.67045L141.242 -10.4721L141.238 -10.4665L145.88 -6.66486ZM216.442 -11.5657H143.559V-5.5657H216.442V-11.5657ZM214.116 -6.67045L214.121 -6.66486L218.762 -10.4665L218.758 -10.4721L214.116 -6.67045ZM359.408 -11.5713H216.437V-5.57129H359.408V-11.5713ZM290.244 80.6591L361.73 -6.67104L357.087 -10.4715L285.601 76.8586L290.244 80.6591ZM72.0771 81.7589H287.923V75.7589H72.0771V81.7589ZM69.0771 78.7582V78.7589H75.0771V78.7582H69.0771ZM-1.72963 -6.67104L69.7556 80.6585L74.3985 76.858L2.91323 -10.4715L-1.72963 -6.67104ZM143.563 -11.5713H0.591797V-5.57129H143.563V-11.5713Z" fill="#5A616A" mask="url(#path-1-inside-1_229_9638)"/>
</svg>
