<svg
  width="40"
  height="50"
  viewBox="0 0 52 92"
  fill="none"
  xmlns="http://www.w3.org/2000/svg"
>
<path
    d="M20.2222 56.6827V84.5319L24.1981 90.4007C25.0557 91.6662 26.9461 91.6662 27.8038 90.4007L31.7778 84.5319V56.6827C29.9018 57.0239 27.9753 57.2266 26 57.2266C24.0247 57.2266 22.0982 57.0239 20.2222 56.6827ZM26 0.351562C11.6404 0.351562 0 11.8101 0 25.9453C0 40.0805 11.6404 51.5391 26 51.5391C40.3596 51.5391 52 40.0805 52 25.9453C52 11.8101 40.3596 0.351562 26 0.351562ZM26 13.8594C19.2292 13.8594 13.7222 19.2803 13.7222 25.9453C13.7222 27.1219 12.7508 28.0781 11.5556 28.0781C10.3603 28.0781 9.38889 27.1219 9.38889 25.9453C9.38889 16.9288 16.8422 9.59375 26 9.59375C27.1953 9.59375 28.1667 10.55 28.1667 11.7266C28.1667 12.9032 27.1953 13.8594 26 13.8594Z"
    fill="#F00001"
  />
</svg>
