<svg width="17" height="17" viewBox="0 0 17 17" fill="none" xmlns="http://www.w3.org/2000/svg">
<path fill-rule="evenodd" clip-rule="evenodd" d="M3.84281 13.732C5.15557 15.0447 6.93604 15.7822 8.79256 15.7822C10.6491 15.7822 12.4296 15.0447 13.7423 13.732C15.0551 12.4192 15.7926 10.6387 15.7926 8.78223C15.7926 6.92571 15.0551 5.14523 13.7423 3.83248C12.4296 2.51972 10.6491 1.78223 8.79256 1.78223C6.93604 1.78223 5.15557 2.51972 3.84281 3.83248C2.53006 5.14523 1.79256 6.92571 1.79256 8.78223C1.79256 10.6387 2.53006 12.4192 3.84281 13.732ZM14.4494 3.12537C15.9497 4.62566 16.7926 6.66049 16.7926 8.78223C16.7926 10.904 15.9497 12.9388 14.4494 14.4391C12.9491 15.9394 10.9143 16.7822 8.79256 16.7822C6.67083 16.7822 4.636 15.9394 3.13571 14.4391C1.63541 12.9388 0.79256 10.904 0.79256 8.78223C0.79256 6.66049 1.63541 4.62566 3.13571 3.12537C4.636 1.62508 6.67083 0.782226 8.79256 0.782226C10.9143 0.782226 12.9491 1.62508 14.4494 3.12537ZM5.25703 8.28159C5.12425 8.28159 4.99691 8.33434 4.90303 8.42823C4.80914 8.52211 4.75639 8.64945 4.75639 8.78223C4.75639 8.915 4.80914 9.04234 4.90303 9.13623C4.99691 9.23011 5.12425 9.28286 5.25703 9.28286L11.0504 9.28215L9.09308 11.2394C8.99931 11.3332 8.94663 11.4604 8.94663 11.593C8.94663 11.7256 8.99931 11.8528 9.09308 11.9465C9.18685 12.0403 9.31403 12.093 9.44663 12.093C9.57924 12.093 9.70642 12.0403 9.80019 11.9465L12.6109 9.13578C12.7047 9.04201 12.7574 8.91483 12.7574 8.78223C12.7574 8.64962 12.7047 8.52244 12.6109 8.42867L9.80019 5.61792C9.70642 5.52416 9.57924 5.47148 9.44663 5.47148C9.31403 5.47148 9.18685 5.52416 9.09308 5.61792C8.99931 5.71169 8.94663 5.83887 8.94663 5.97148C8.94663 6.10409 8.99931 6.23126 9.09308 6.32503L11.0504 8.2823L5.25703 8.28159Z" fill="white"/>
</svg>
