<svg width="24" height="26" viewBox="0 0 24 26" fill="none" xmlns="http://www.w3.org/2000/svg">
<g filter="url(#filter0_d_229_1118)">
<path fill-rule="evenodd" clip-rule="evenodd" d="M13.7083 13.247H14.7282C14.7846 13.247 14.7781 13.3057 14.7989 13.4235C14.8143 13.5105 14.8245 13.5627 14.8404 13.6448L15.1623 15.3626C15.1905 15.5048 15.2118 15.6448 15.2419 15.7929L16.0571 20.1081H13.7083V13.247L13.7083 13.247ZM8.717 13.247H9.76779V20.1081H7.4344L7.74987 18.3993C7.97739 17.2821 8.16685 16.0888 8.39366 14.9635C8.45026 14.6826 8.50431 14.3954 8.55593 14.1058L8.71698 13.247L8.717 13.247ZM7.32623 12.7062C7.32623 12.8517 7.33766 12.9596 7.44574 13.0812C7.49752 13.1394 7.61632 13.2236 7.71256 13.2316L7.55151 14.0904C7.29866 15.5088 6.99803 16.9677 6.74556 18.3839C6.69332 18.677 6.64269 18.9612 6.5857 19.2439C6.55634 19.3896 6.53544 19.5285 6.50606 19.6743L6.42998 20.1081H1.57778L1.83394 19.1899C2.05202 18.4194 2.23883 17.623 2.4275 16.8474L2.7533 15.3961C2.84678 14.9446 3.27047 12.8694 3.30848 12.4126C3.56981 12.4343 4.24478 12.7526 5.45642 12.7526C6.0134 12.7526 6.60938 12.6147 7.13459 12.4837C7.20507 12.4661 7.30778 12.4295 7.37256 12.428C7.37024 12.5328 7.3262 12.5993 7.3262 12.7062L7.32623 12.7062ZM16.1035 12.428L17.0087 12.6354C18.0052 12.8362 18.9685 12.759 19.9339 12.4725C19.9837 12.4578 20.1159 12.4169 20.1676 12.4126C20.2038 12.568 20.2232 12.7468 20.2515 12.9159C20.3967 13.7845 20.5535 14.5295 20.7226 15.3808C20.7553 15.5452 20.7954 15.7086 20.8282 15.8624C21.039 16.8518 21.3687 18.2118 21.6421 19.1744L21.8983 20.1081L17.247 20.1081C17.2111 20.1082 17.1721 20.1102 17.1371 20.1099C17.0793 20.1093 17.0776 20.1198 17.0538 20.085L16.4111 16.6636C16.3657 16.4347 16.3306 16.2092 16.2825 15.9732C16.1223 15.1868 15.9942 14.363 15.8343 13.578C15.8171 13.493 15.7898 13.2864 15.7635 13.2316C15.9987 13.212 16.1943 12.923 16.1575 12.6996C16.1478 12.6405 16.1189 12.4625 16.1035 12.428ZM8.68609 10.8827C10.9255 11.4045 12.2306 11.4032 14.4385 10.964C14.5107 10.9496 14.7451 10.9042 14.79 10.8827C14.7919 10.9698 14.835 11.1308 14.8531 11.2214L14.9896 11.9039C15.0088 11.9998 15.0527 12.1614 15.0527 12.258H8.42339C8.42615 12.1338 8.68609 11.013 8.68609 10.8827ZM7.6044 11.3154L7.08794 11.4634C6.59305 11.604 5.85692 11.7635 5.33283 11.7635C4.83017 11.7635 4.203 11.5805 4.0966 11.5781C4.1248 11.5396 4.22198 11.4841 4.26663 11.4545L5.50731 10.5936C5.62635 10.504 5.73823 10.428 5.85599 10.3397L7.55151 9.03733C7.60969 8.99134 7.65708 8.94819 7.71267 8.90488L9.32352 7.50242C9.35703 7.46891 9.44292 7.35947 9.48964 7.35947H13.9864C14.0333 7.35947 14.4243 7.77596 14.525 7.85627L14.9871 8.27494C15.0229 8.30644 15.0359 8.3091 15.0722 8.34443L15.3949 8.62436C15.652 8.83148 15.9188 9.07818 16.2097 9.30855L17.5583 10.3551C18.0066 10.6914 18.5013 11.0287 18.9685 11.3401C19.0272 11.3793 19.3003 11.5286 19.3177 11.5936C19.2328 11.5955 19.1226 11.6313 19.0331 11.649C18.9304 11.6693 18.8466 11.6849 18.746 11.7018C18.0751 11.8145 17.5907 11.7502 16.9349 11.5966C16.7489 11.5531 16.5819 11.5168 16.4026 11.4645L16.0166 11.356C15.8329 11.2965 15.8993 11.3991 15.7932 10.8686C15.7626 10.7159 15.7317 10.5613 15.7004 10.405C15.6597 10.2012 15.633 9.97664 15.4088 9.86212C15.188 9.74924 15.0359 9.81994 14.79 9.87831C14.6578 9.90968 14.5211 9.93704 14.3818 9.9646C14.0973 10.0209 13.8389 10.0674 13.5449 10.1167C12.1896 10.3439 11.3117 10.349 9.95762 10.1212C9.56246 10.0547 9.10544 9.97499 8.71086 9.88448C8.4093 9.8153 8.18362 9.70447 7.9323 9.9744C7.8399 10.0736 7.81578 10.2199 7.7834 10.3818L7.64434 11.0772C7.62889 11.1544 7.60442 11.2367 7.60442 11.3154L7.6044 11.3154ZM12.2403 4.19164V2.12095L12.5493 2.10549C13.1586 2.10549 13.8816 2.43194 14.4413 2.65508C15.3282 3.00869 15.9055 3.27154 16.8729 3.49948C16.9981 3.52899 17.4525 3.63532 17.556 3.63532L16.9138 3.73482C16.7263 3.76091 16.5768 3.76213 16.4134 3.77524C15.9966 3.80861 15.2218 3.7922 14.7743 3.78966C14.436 3.78773 13.7227 3.85779 13.4172 3.90059C13.1868 3.93288 12.4611 4.08566 12.2402 4.19164H12.2403ZM11.2513 0.91562V6.37048H9.27329C8.99859 6.37048 8.89717 6.57244 8.73619 6.7142L7.49142 7.81829L6.09893 8.94461C5.14713 9.68776 4.15026 10.3597 3.14775 11.0311L2.70509 11.3147C2.54243 11.4115 2.44665 11.5127 2.4144 11.7348C2.26353 12.774 2.09046 13.7817 1.88552 14.8065C1.66935 15.8874 1.41449 16.9589 1.14819 18.0251C1.12258 18.1277 1.10303 18.2193 1.07328 18.3211L0.765284 19.4502C0.727602 19.5838 0.449707 20.4752 0.449707 20.5872C0.449707 20.891 0.674189 21.0971 0.975103 21.0971H22.5319C22.8157 21.0971 23.0264 20.8563 23.0264 20.5872C23.0264 20.4468 22.7601 19.622 22.7174 19.459C22.669 19.2743 22.6091 19.0916 22.5628 18.9028C22.5403 18.8111 22.5133 18.7101 22.4874 18.6228C22.3454 18.1442 22.2432 17.6698 22.1208 17.1813C22.0225 16.7888 21.9446 16.4052 21.8519 16.0131C21.5698 14.8195 21.3654 13.6069 21.1609 12.3927C21.1255 12.1827 21.1011 11.9867 21.0706 11.7723C21.0129 11.3669 20.7602 11.3115 20.3442 11.0615L19.033 10.2093C18.9946 10.1814 18.9659 10.1655 18.9314 10.141C18.8942 10.1146 18.8627 10.0898 18.8232 10.0637C18.4692 9.83086 18.1201 9.56853 17.79 9.30443C17.3474 8.95043 16.8042 8.56457 16.3932 8.18239C16.1771 7.98149 15.932 7.80793 15.7212 7.6027L14.4991 6.476C14.4446 6.43227 14.3266 6.37052 14.2337 6.37052H12.2403V5.25791C12.2403 5.20839 12.2811 5.20554 12.3258 5.18886C12.3719 5.17161 12.4026 5.15801 12.4476 5.14074C12.5307 5.10887 12.6129 5.08484 12.6904 5.05899C13.0458 4.94033 13.3997 4.88391 13.7765 4.83159C14.3452 4.7526 15.7527 4.7788 16.3507 4.77887L16.829 4.7626C17.0656 4.74309 17.3387 4.72325 17.5693 4.68391C18.2751 4.56349 18.9682 4.40044 19.5959 4.08354L20.2441 3.74274C20.3425 3.68643 20.7967 3.41106 20.8475 3.34173C20.7484 3.34997 20.6685 3.41074 20.5694 3.41899C20.5666 3.29532 20.5033 3.08106 20.478 2.95411C20.4621 2.87499 20.4482 2.79864 20.4303 2.72361C20.4155 2.6614 20.3893 2.55663 20.3839 2.49182C20.2099 2.5063 19.7303 2.81633 18.7305 2.81633C18.0928 2.81633 17.4771 2.68415 16.9825 2.54C16.0752 2.27558 15.2511 1.91258 14.386 1.56686C13.6964 1.29125 13.0059 1.03926 12.2403 1.03926C12.2403 0.232206 11.2513 0.395427 11.2513 0.915637V0.91562Z" fill="#F9FC02"/>
</g>
<defs>
<filter id="filter0_d_229_1118" x="0.449707" y="0.479614" width="22.5767" height="24.6174" filterUnits="userSpaceOnUse" color-interpolation-filters="sRGB">
<feFlood flood-opacity="0" result="BackgroundImageFix"/>
<feColorMatrix in="SourceAlpha" type="matrix" values="0 0 0 0 0 0 0 0 0 0 0 0 0 0 0 0 0 0 127 0" result="hardAlpha"/>
<feOffset dy="4"/>
<feComposite in2="hardAlpha" operator="out"/>
<feColorMatrix type="matrix" values="0 0 0 0 0 0 0 0 0 0 0 0 0 0 0 0 0 0 0.32 0"/>
<feBlend mode="normal" in2="BackgroundImageFix" result="effect1_dropShadow_229_1118"/>
<feBlend mode="normal" in="SourceGraphic" in2="effect1_dropShadow_229_1118" result="shape"/>
</filter>
</defs>
</svg>
