<svg width="112" height="33" viewBox="0 0 112 33" fill="none" xmlns="http://www.w3.org/2000/svg">
<rect x="2.67871" y="2.67542" width="106.648" height="27.6793" rx="13.8397" fill="#C4C4C4"/>
<g filter="url(#filter0_i_163_3037)">
<rect x="2.67871" y="2.67542" width="106.648" height="27.6793" rx="8" fill="#F00001"/>
</g>
<rect x="1.67871" y="1.67542" width="108.648" height="29.6793" rx="9" stroke="#5A616A" stroke-width="2"/>
<rect x="5.35254" y="4.61938" width="101.3" height="10.4975" rx="5.24875" fill="#FE696B"/>
<ellipse rx="5.97525" ry="2.58295" transform="matrix(0.999785 -0.0207575 0.043425 0.999057 15.7614 9.47089)" fill="#F7FDFA"/>
<ellipse rx="2.62019" ry="1.13265" transform="matrix(0.999785 -0.0207575 0.043425 0.999057 26.6532 6.7664)" fill="#F7FDFA"/>
<path d="M20.7832 17.8926H22.0972C22.0708 18.3232 21.9521 18.7056 21.7412 19.0396C21.5332 19.3735 21.2417 19.6343 20.8667 19.8218C20.4946 20.0093 20.0464 20.103 19.522 20.103C19.1118 20.103 18.7441 20.0327 18.4189 19.8921C18.0938 19.7485 17.8154 19.5435 17.584 19.2769C17.3555 19.0103 17.1812 18.688 17.061 18.3101C16.9409 17.9321 16.8809 17.5088 16.8809 17.04V16.5962C16.8809 16.1274 16.9424 15.7041 17.0654 15.3262C17.1914 14.9453 17.3701 14.6216 17.6016 14.355C17.8359 14.0884 18.1157 13.8833 18.4409 13.7397C18.7661 13.5962 19.1294 13.5244 19.5308 13.5244C20.064 13.5244 20.5137 13.6211 20.8799 13.8145C21.249 14.0078 21.5347 14.2744 21.7368 14.6143C21.9419 14.9541 22.0649 15.3408 22.106 15.7744H20.7876C20.7729 15.5166 20.7217 15.2983 20.6338 15.1196C20.5459 14.938 20.4126 14.8018 20.2339 14.7109C20.0581 14.6172 19.8237 14.5703 19.5308 14.5703C19.311 14.5703 19.1191 14.6113 18.9551 14.6934C18.791 14.7754 18.6533 14.8999 18.542 15.0669C18.4307 15.2339 18.3472 15.4448 18.2915 15.6997C18.2388 15.9517 18.2124 16.2476 18.2124 16.5874V17.04C18.2124 17.3711 18.2373 17.6626 18.2871 17.9146C18.3369 18.1636 18.4131 18.3745 18.5156 18.5474C18.6211 18.7173 18.7559 18.8462 18.9199 18.9341C19.0869 19.019 19.2876 19.0615 19.522 19.0615C19.7974 19.0615 20.0244 19.0176 20.2031 18.9297C20.3818 18.8418 20.5181 18.7114 20.6118 18.5386C20.7085 18.3657 20.7656 18.1504 20.7832 17.8926ZM25.4502 18.9429V16.8247C25.4502 16.6724 25.4253 16.542 25.3755 16.4336C25.3257 16.3223 25.248 16.2358 25.1426 16.1743C25.04 16.1128 24.9067 16.082 24.7427 16.082C24.6021 16.082 24.4805 16.1069 24.3779 16.1567C24.2754 16.2036 24.1963 16.2725 24.1406 16.3633C24.085 16.4512 24.0571 16.5552 24.0571 16.6753H22.7915C22.7915 16.4731 22.8384 16.2812 22.9321 16.0996C23.0259 15.918 23.1621 15.7583 23.3408 15.6206C23.5195 15.48 23.7319 15.3701 23.978 15.291C24.2271 15.2119 24.5054 15.1724 24.813 15.1724C25.1821 15.1724 25.5103 15.2339 25.7974 15.3569C26.0845 15.48 26.3101 15.6646 26.4741 15.9106C26.6411 16.1567 26.7246 16.4644 26.7246 16.8335V18.8682C26.7246 19.1289 26.7407 19.3428 26.7729 19.5098C26.8052 19.6738 26.8521 19.8174 26.9136 19.9404V20.0151H25.6348C25.5732 19.8862 25.5264 19.7251 25.4941 19.5317C25.4648 19.3354 25.4502 19.1392 25.4502 18.9429ZM25.6172 17.1191L25.626 17.8354H24.9185C24.7515 17.8354 24.6064 17.8545 24.4834 17.8926C24.3604 17.9307 24.2593 17.9849 24.1802 18.0552C24.1011 18.1226 24.0425 18.2017 24.0044 18.2925C23.9692 18.3833 23.9517 18.4829 23.9517 18.5913C23.9517 18.6997 23.9766 18.7979 24.0264 18.8857C24.0762 18.9707 24.1479 19.0381 24.2417 19.0879C24.3354 19.1348 24.4453 19.1582 24.5713 19.1582C24.7617 19.1582 24.9272 19.1201 25.0679 19.0439C25.2085 18.9678 25.3169 18.874 25.3931 18.7627C25.4722 18.6514 25.5132 18.5459 25.5161 18.4463L25.8501 18.9824C25.8032 19.1025 25.7388 19.2271 25.6567 19.356C25.5776 19.4849 25.4766 19.6064 25.3535 19.7207C25.2305 19.832 25.0825 19.9243 24.9097 19.9976C24.7368 20.0679 24.5317 20.103 24.2944 20.103C23.9927 20.103 23.7188 20.043 23.4727 19.9229C23.2295 19.7998 23.0361 19.6313 22.8926 19.4175C22.752 19.2007 22.6816 18.9546 22.6816 18.6792C22.6816 18.4302 22.7285 18.209 22.8223 18.0156C22.916 17.8223 23.0537 17.6597 23.2354 17.5278C23.4199 17.3931 23.6499 17.292 23.9253 17.2246C24.2007 17.1543 24.52 17.1191 24.8833 17.1191H25.6172ZM28.9395 16.2754V20.0151H27.6738V15.2603H28.8604L28.9395 16.2754ZM28.7549 17.4707H28.4121C28.4121 17.1191 28.4575 16.8027 28.5483 16.5215C28.6392 16.2373 28.7666 15.9956 28.9307 15.7964C29.0947 15.5942 29.2896 15.4404 29.5151 15.335C29.7437 15.2266 29.9985 15.1724 30.2798 15.1724C30.5024 15.1724 30.7061 15.2046 30.8906 15.269C31.0752 15.3335 31.2334 15.436 31.3652 15.5767C31.5 15.7173 31.6025 15.9033 31.6729 16.1348C31.7461 16.3662 31.7827 16.6489 31.7827 16.9829V20.0151H30.5083V16.9785C30.5083 16.7676 30.479 16.6035 30.4204 16.4863C30.3618 16.3691 30.2754 16.2871 30.1611 16.2402C30.0498 16.1904 29.9121 16.1655 29.748 16.1655C29.5781 16.1655 29.4302 16.1992 29.3042 16.2666C29.1812 16.334 29.0786 16.4277 28.9966 16.5479C28.9175 16.665 28.8574 16.8027 28.8164 16.9609C28.7754 17.1191 28.7549 17.2891 28.7549 17.4707ZM34.7095 19.1143C34.8647 19.1143 35.0024 19.085 35.1226 19.0264C35.2427 18.9648 35.3364 18.8799 35.4038 18.7715C35.4741 18.6602 35.5107 18.5298 35.5137 18.3804H36.7046C36.7017 18.7144 36.6123 19.0117 36.4365 19.2725C36.2607 19.5303 36.0249 19.7339 35.729 19.8833C35.4331 20.0298 35.1021 20.103 34.7358 20.103C34.3667 20.103 34.0444 20.0415 33.769 19.9185C33.4966 19.7954 33.2695 19.6255 33.0879 19.4087C32.9062 19.189 32.77 18.9341 32.6792 18.644C32.5884 18.3511 32.543 18.0376 32.543 17.7036V17.5762C32.543 17.2393 32.5884 16.9258 32.6792 16.6357C32.77 16.3428 32.9062 16.0879 33.0879 15.8711C33.2695 15.6514 33.4966 15.48 33.769 15.3569C34.0415 15.2339 34.3608 15.1724 34.7271 15.1724C35.1167 15.1724 35.458 15.2471 35.751 15.3965C36.0469 15.5459 36.2783 15.7598 36.4453 16.0381C36.6152 16.3135 36.7017 16.6401 36.7046 17.0181H35.5137C35.5107 16.8599 35.4771 16.7163 35.4126 16.5874C35.3511 16.4585 35.2603 16.356 35.1401 16.2798C35.0229 16.2007 34.8779 16.1611 34.7051 16.1611C34.5205 16.1611 34.3696 16.2007 34.2524 16.2798C34.1353 16.356 34.0444 16.4614 33.98 16.5962C33.9155 16.728 33.8701 16.8789 33.8438 17.0488C33.8203 17.2158 33.8086 17.3916 33.8086 17.5762V17.7036C33.8086 17.8882 33.8203 18.0654 33.8438 18.2354C33.8672 18.4053 33.9111 18.5562 33.9756 18.688C34.043 18.8198 34.1353 18.9238 34.2524 19C34.3696 19.0762 34.522 19.1143 34.7095 19.1143ZM39.627 20.103C39.2578 20.103 38.9268 20.0444 38.6338 19.9272C38.3408 19.8071 38.0918 19.6416 37.8867 19.4307C37.6846 19.2197 37.5293 18.9751 37.4209 18.6968C37.3125 18.4155 37.2583 18.1167 37.2583 17.8003V17.6245C37.2583 17.2642 37.3096 16.9346 37.4121 16.6357C37.5146 16.3369 37.6611 16.0776 37.8516 15.8579C38.0449 15.6382 38.2793 15.4697 38.5547 15.3525C38.8301 15.2324 39.1406 15.1724 39.4863 15.1724C39.8232 15.1724 40.1221 15.228 40.3828 15.3394C40.6436 15.4507 40.8618 15.6089 41.0376 15.814C41.2163 16.019 41.3511 16.2651 41.4419 16.5522C41.5327 16.8364 41.5781 17.1528 41.5781 17.5015V18.0288H37.7988V17.1851H40.3345V17.0884C40.3345 16.9126 40.3022 16.7559 40.2378 16.6182C40.1763 16.4775 40.0825 16.3662 39.9565 16.2842C39.8306 16.2021 39.6694 16.1611 39.4731 16.1611C39.3062 16.1611 39.1626 16.1978 39.0425 16.271C38.9224 16.3442 38.8242 16.4468 38.748 16.5786C38.6748 16.7104 38.6191 16.8657 38.5811 17.0444C38.5459 17.2202 38.5283 17.4136 38.5283 17.6245V17.8003C38.5283 17.9907 38.5547 18.1665 38.6074 18.3276C38.6631 18.4888 38.7407 18.6279 38.8403 18.7451C38.9429 18.8623 39.0659 18.9531 39.2095 19.0176C39.356 19.082 39.5215 19.1143 39.7061 19.1143C39.9346 19.1143 40.147 19.0703 40.3433 18.9824C40.5425 18.8916 40.7139 18.7554 40.8574 18.5737L41.4727 19.2417C41.373 19.3853 41.2368 19.5229 41.064 19.6548C40.894 19.7866 40.689 19.895 40.4487 19.98C40.2085 20.062 39.9346 20.103 39.627 20.103ZM43.6348 13.2651V20.0151H42.3647V13.2651H43.6348ZM48.9653 20.0151H47.5723L47.5811 18.9868H48.9653C49.311 18.9868 49.6025 18.9092 49.8398 18.7539C50.0771 18.5957 50.2559 18.3657 50.376 18.064C50.499 17.7622 50.5605 17.3975 50.5605 16.9697V16.6577C50.5605 16.3296 50.5254 16.041 50.4551 15.792C50.3877 15.543 50.2866 15.3335 50.1519 15.1636C50.0171 14.9937 49.8516 14.8662 49.6553 14.7812C49.459 14.6934 49.2334 14.6494 48.9785 14.6494H47.5459V13.6167H48.9785C49.4062 13.6167 49.7974 13.6899 50.1519 13.8364C50.5093 13.98 50.8184 14.1865 51.0791 14.4561C51.3398 14.7256 51.5405 15.0479 51.6812 15.4229C51.8247 15.7949 51.8965 16.2095 51.8965 16.6665V16.9697C51.8965 17.4238 51.8247 17.8384 51.6812 18.2134C51.5405 18.5884 51.3398 18.9106 51.0791 19.1802C50.8213 19.4468 50.5122 19.6533 50.1519 19.7998C49.7944 19.9434 49.3989 20.0151 48.9653 20.0151ZM48.3193 13.6167V20.0151H47.001V13.6167H48.3193ZM54.9639 20.103C54.5947 20.103 54.2637 20.0444 53.9707 19.9272C53.6777 19.8071 53.4287 19.6416 53.2236 19.4307C53.0215 19.2197 52.8662 18.9751 52.7578 18.6968C52.6494 18.4155 52.5952 18.1167 52.5952 17.8003V17.6245C52.5952 17.2642 52.6465 16.9346 52.749 16.6357C52.8516 16.3369 52.998 16.0776 53.1885 15.8579C53.3818 15.6382 53.6162 15.4697 53.8916 15.3525C54.167 15.2324 54.4775 15.1724 54.8232 15.1724C55.1602 15.1724 55.459 15.228 55.7197 15.3394C55.9805 15.4507 56.1987 15.6089 56.3745 15.814C56.5532 16.019 56.688 16.2651 56.7788 16.5522C56.8696 16.8364 56.915 17.1528 56.915 17.5015V18.0288H53.1357V17.1851H55.6714V17.0884C55.6714 16.9126 55.6392 16.7559 55.5747 16.6182C55.5132 16.4775 55.4194 16.3662 55.2935 16.2842C55.1675 16.2021 55.0063 16.1611 54.8101 16.1611C54.6431 16.1611 54.4995 16.1978 54.3794 16.271C54.2593 16.3442 54.1611 16.4468 54.085 16.5786C54.0117 16.7104 53.9561 16.8657 53.918 17.0444C53.8828 17.2202 53.8652 17.4136 53.8652 17.6245V17.8003C53.8652 17.9907 53.8916 18.1665 53.9443 18.3276C54 18.4888 54.0776 18.6279 54.1772 18.7451C54.2798 18.8623 54.4028 18.9531 54.5464 19.0176C54.6929 19.082 54.8584 19.1143 55.043 19.1143C55.2715 19.1143 55.4839 19.0703 55.6802 18.9824C55.8794 18.8916 56.0508 18.7554 56.1943 18.5737L56.8096 19.2417C56.71 19.3853 56.5737 19.5229 56.4009 19.6548C56.231 19.7866 56.0259 19.895 55.7856 19.98C55.5454 20.062 55.2715 20.103 54.9639 20.103ZM58.9014 16.1743V21.8433H57.6357V15.2603H58.8091L58.9014 16.1743ZM61.9116 17.585V17.6772C61.9116 18.0229 61.8706 18.3438 61.7886 18.6396C61.7095 18.9355 61.5923 19.1934 61.437 19.4131C61.2817 19.6299 61.0884 19.7998 60.8569 19.9229C60.6284 20.043 60.3647 20.103 60.0659 20.103C59.7759 20.103 59.5239 20.0444 59.3101 19.9272C59.0962 19.8101 58.916 19.646 58.7695 19.4351C58.626 19.2212 58.5103 18.9736 58.4224 18.6924C58.3345 18.4111 58.2671 18.1094 58.2202 17.7871V17.5454C58.2671 17.1997 58.3345 16.8833 58.4224 16.5962C58.5103 16.3062 58.626 16.0557 58.7695 15.8447C58.916 15.6309 59.0947 15.4653 59.3057 15.3481C59.5195 15.231 59.77 15.1724 60.0571 15.1724C60.3589 15.1724 60.624 15.2295 60.8525 15.3438C61.084 15.458 61.2773 15.6221 61.4326 15.8359C61.5908 16.0498 61.7095 16.3047 61.7886 16.6006C61.8706 16.8965 61.9116 17.2246 61.9116 17.585ZM60.6416 17.6772V17.585C60.6416 17.3828 60.624 17.1968 60.5889 17.0269C60.5566 16.854 60.5039 16.7031 60.4307 16.5742C60.3604 16.4453 60.2666 16.3457 60.1494 16.2754C60.0352 16.2021 59.896 16.1655 59.7319 16.1655C59.5591 16.1655 59.4111 16.1934 59.2881 16.249C59.168 16.3047 59.0698 16.3853 58.9937 16.4907C58.9175 16.5962 58.8604 16.7222 58.8223 16.8687C58.7842 17.0151 58.7607 17.1807 58.752 17.3652V17.9761C58.7666 18.1929 58.8076 18.3877 58.875 18.5605C58.9424 18.7305 59.0464 18.8652 59.187 18.9648C59.3276 19.0645 59.5122 19.1143 59.7407 19.1143C59.9077 19.1143 60.0483 19.0776 60.1626 19.0044C60.2769 18.9282 60.3691 18.8242 60.4395 18.6924C60.5127 18.5605 60.564 18.4082 60.5933 18.2354C60.6255 18.0625 60.6416 17.8765 60.6416 17.6772ZM64.0342 13.2651V20.0151H62.7642V13.2651H64.0342ZM64.8779 17.686V17.5938C64.8779 17.2451 64.9277 16.9243 65.0273 16.6313C65.127 16.3354 65.272 16.0791 65.4624 15.8623C65.6528 15.6455 65.8872 15.4771 66.1655 15.3569C66.4438 15.2339 66.7632 15.1724 67.1235 15.1724C67.4839 15.1724 67.8047 15.2339 68.0859 15.3569C68.3672 15.4771 68.603 15.6455 68.7935 15.8623C68.9868 16.0791 69.1333 16.3354 69.2329 16.6313C69.3325 16.9243 69.3823 17.2451 69.3823 17.5938V17.686C69.3823 18.0317 69.3325 18.3525 69.2329 18.6484C69.1333 18.9414 68.9868 19.1978 68.7935 19.4175C68.603 19.6343 68.3687 19.8027 68.0903 19.9229C67.812 20.043 67.4927 20.103 67.1323 20.103C66.772 20.103 66.4512 20.043 66.1699 19.9229C65.8916 19.8027 65.6558 19.6343 65.4624 19.4175C65.272 19.1978 65.127 18.9414 65.0273 18.6484C64.9277 18.3525 64.8779 18.0317 64.8779 17.686ZM66.1436 17.5938V17.686C66.1436 17.8853 66.1611 18.0713 66.1963 18.2441C66.2314 18.417 66.2871 18.5693 66.3633 18.7012C66.4424 18.8301 66.5449 18.9312 66.6709 19.0044C66.7969 19.0776 66.9507 19.1143 67.1323 19.1143C67.3081 19.1143 67.459 19.0776 67.585 19.0044C67.7109 18.9312 67.812 18.8301 67.8882 18.7012C67.9644 18.5693 68.02 18.417 68.0552 18.2441C68.0933 18.0713 68.1123 17.8853 68.1123 17.686V17.5938C68.1123 17.4004 68.0933 17.2188 68.0552 17.0488C68.02 16.876 67.9629 16.7236 67.8838 16.5918C67.8076 16.457 67.7065 16.3516 67.5806 16.2754C67.4546 16.1992 67.3022 16.1611 67.1235 16.1611C66.9448 16.1611 66.7925 16.1992 66.6665 16.2754C66.5435 16.3516 66.4424 16.457 66.3633 16.5918C66.2871 16.7236 66.2314 16.876 66.1963 17.0488C66.1611 17.2188 66.1436 17.4004 66.1436 17.5938ZM71.5005 19.479L72.7617 15.2603H74.1196L72.208 20.7314C72.167 20.8516 72.1113 20.9805 72.041 21.1182C71.9736 21.2559 71.8813 21.3862 71.7642 21.5093C71.6499 21.6353 71.5049 21.7378 71.3291 21.8169C71.1562 21.896 70.9438 21.9355 70.6919 21.9355C70.5718 21.9355 70.4736 21.9282 70.3975 21.9136C70.3213 21.8989 70.2305 21.8784 70.125 21.8521V20.9248C70.1572 20.9248 70.1909 20.9248 70.2261 20.9248C70.2612 20.9277 70.2949 20.9292 70.3271 20.9292C70.4941 20.9292 70.6304 20.9102 70.7358 20.8721C70.8413 20.834 70.9263 20.7754 70.9907 20.6963C71.0552 20.6201 71.1064 20.5205 71.1445 20.3975L71.5005 19.479ZM70.9731 15.2603L72.0059 18.7056L72.186 20.0459L71.3247 20.1382L69.6152 15.2603H70.9731ZM75.8906 16.2446V20.0151H74.6206V15.2603H75.8115L75.8906 16.2446ZM75.7148 17.4707H75.3633C75.3633 17.1396 75.4028 16.835 75.4819 16.5566C75.564 16.2754 75.6826 16.0322 75.8379 15.8271C75.9961 15.6191 76.1909 15.458 76.4224 15.3438C76.6538 15.2295 76.9219 15.1724 77.2266 15.1724C77.4375 15.1724 77.6309 15.2046 77.8066 15.269C77.9824 15.3306 78.1333 15.4287 78.2593 15.5635C78.3882 15.6953 78.4878 15.8682 78.5581 16.082C78.6284 16.293 78.6636 16.5464 78.6636 16.8423V20.0151H77.3979V16.9829C77.3979 16.7661 77.3687 16.5991 77.3101 16.4819C77.2515 16.3647 77.168 16.2827 77.0596 16.2358C76.9541 16.189 76.8267 16.1655 76.6772 16.1655C76.5132 16.1655 76.3696 16.1992 76.2466 16.2666C76.1265 16.334 76.0269 16.4277 75.9478 16.5479C75.8687 16.665 75.8101 16.8027 75.772 16.9609C75.7339 17.1191 75.7148 17.2891 75.7148 17.4707ZM78.5449 17.3257L78.0923 17.3828C78.0923 17.0723 78.1304 16.7837 78.2065 16.5171C78.2856 16.2505 78.4014 16.0161 78.5537 15.814C78.709 15.6118 78.9009 15.4551 79.1294 15.3438C79.3579 15.2295 79.6216 15.1724 79.9204 15.1724C80.1489 15.1724 80.3569 15.2061 80.5444 15.2734C80.7319 15.3379 80.8916 15.4419 81.0234 15.5854C81.1582 15.7261 81.2607 15.9106 81.3311 16.1392C81.4043 16.3677 81.4409 16.6475 81.4409 16.9785V20.0151H80.1709V16.9785C80.1709 16.7588 80.1416 16.5918 80.083 16.4775C80.0273 16.3604 79.9453 16.2798 79.8369 16.2358C79.7314 16.189 79.6055 16.1655 79.459 16.1655C79.3066 16.1655 79.1733 16.1963 79.0591 16.2578C78.9448 16.3164 78.8496 16.3984 78.7734 16.5039C78.6973 16.6094 78.6401 16.7324 78.6021 16.873C78.564 17.0107 78.5449 17.1616 78.5449 17.3257ZM84.6094 20.103C84.2402 20.103 83.9092 20.0444 83.6162 19.9272C83.3232 19.8071 83.0742 19.6416 82.8691 19.4307C82.667 19.2197 82.5117 18.9751 82.4033 18.6968C82.2949 18.4155 82.2407 18.1167 82.2407 17.8003V17.6245C82.2407 17.2642 82.292 16.9346 82.3945 16.6357C82.4971 16.3369 82.6436 16.0776 82.834 15.8579C83.0273 15.6382 83.2617 15.4697 83.5371 15.3525C83.8125 15.2324 84.123 15.1724 84.4688 15.1724C84.8057 15.1724 85.1045 15.228 85.3652 15.3394C85.626 15.4507 85.8442 15.6089 86.02 15.814C86.1987 16.019 86.3335 16.2651 86.4243 16.5522C86.5151 16.8364 86.5605 17.1528 86.5605 17.5015V18.0288H82.7812V17.1851H85.3169V17.0884C85.3169 16.9126 85.2847 16.7559 85.2202 16.6182C85.1587 16.4775 85.0649 16.3662 84.939 16.2842C84.813 16.2021 84.6519 16.1611 84.4556 16.1611C84.2886 16.1611 84.145 16.1978 84.0249 16.271C83.9048 16.3442 83.8066 16.4468 83.7305 16.5786C83.6572 16.7104 83.6016 16.8657 83.5635 17.0444C83.5283 17.2202 83.5107 17.4136 83.5107 17.6245V17.8003C83.5107 17.9907 83.5371 18.1665 83.5898 18.3276C83.6455 18.4888 83.7231 18.6279 83.8228 18.7451C83.9253 18.8623 84.0483 18.9531 84.1919 19.0176C84.3384 19.082 84.5039 19.1143 84.6885 19.1143C84.917 19.1143 85.1294 19.0703 85.3257 18.9824C85.5249 18.8916 85.6963 18.7554 85.8398 18.5737L86.4551 19.2417C86.3555 19.3853 86.2192 19.5229 86.0464 19.6548C85.8765 19.7866 85.6714 19.895 85.4312 19.98C85.1909 20.062 84.917 20.103 84.6094 20.103ZM88.5205 16.2754V20.0151H87.2549V15.2603H88.4414L88.5205 16.2754ZM88.3359 17.4707H87.9932C87.9932 17.1191 88.0386 16.8027 88.1294 16.5215C88.2202 16.2373 88.3477 15.9956 88.5117 15.7964C88.6758 15.5942 88.8706 15.4404 89.0962 15.335C89.3247 15.2266 89.5796 15.1724 89.8608 15.1724C90.0835 15.1724 90.2871 15.2046 90.4717 15.269C90.6562 15.3335 90.8145 15.436 90.9463 15.5767C91.0811 15.7173 91.1836 15.9033 91.2539 16.1348C91.3271 16.3662 91.3638 16.6489 91.3638 16.9829V20.0151H90.0894V16.9785C90.0894 16.7676 90.0601 16.6035 90.0015 16.4863C89.9429 16.3691 89.8564 16.2871 89.7422 16.2402C89.6309 16.1904 89.4932 16.1655 89.3291 16.1655C89.1592 16.1655 89.0112 16.1992 88.8853 16.2666C88.7622 16.334 88.6597 16.4277 88.5776 16.5479C88.4985 16.665 88.4385 16.8027 88.3975 16.9609C88.3564 17.1191 88.3359 17.2891 88.3359 17.4707ZM94.6553 15.2603V16.1567H91.8867V15.2603H94.6553ZM92.5723 14.0869H93.8379V18.5825C93.8379 18.7202 93.8555 18.8257 93.8906 18.8989C93.9287 18.9722 93.9844 19.0234 94.0576 19.0527C94.1309 19.0791 94.2231 19.0923 94.3345 19.0923C94.4136 19.0923 94.4839 19.0894 94.5454 19.0835C94.6099 19.0747 94.6641 19.0659 94.708 19.0571L94.7124 19.9888C94.604 20.0239 94.4868 20.0518 94.3608 20.0723C94.2349 20.0928 94.0957 20.103 93.9434 20.103C93.665 20.103 93.4219 20.0576 93.2139 19.9668C93.0088 19.873 92.8506 19.7236 92.7393 19.5186C92.6279 19.3135 92.5723 19.0439 92.5723 18.71V14.0869Z" fill="white"/>
<defs>
<filter id="filter0_i_163_3037" x="0.678711" y="0.675415" width="110.648" height="31.6793" filterUnits="userSpaceOnUse" color-interpolation-filters="sRGB">
<feFlood flood-opacity="0" result="BackgroundImageFix"/>
<feBlend mode="normal" in="SourceGraphic" in2="BackgroundImageFix" result="shape"/>
<feColorMatrix in="SourceAlpha" type="matrix" values="0 0 0 0 0 0 0 0 0 0 0 0 0 0 0 0 0 0 127 0" result="hardAlpha"/>
<feOffset dy="-10"/>
<feComposite in2="hardAlpha" operator="arithmetic" k2="-1" k3="1"/>
<feColorMatrix type="matrix" values="0 0 0 0 0 0 0 0 0 0 0 0 0 0 0 0 0 0 0.25 0"/>
<feBlend mode="normal" in2="shape" result="effect1_innerShadow_163_3037"/>
</filter>
</defs>
</svg>
