<svg width="112" height="33" viewBox="0 0 112 33" fill="none" xmlns="http://www.w3.org/2000/svg">
<rect x="2.67896" y="2.33301" width="106.648" height="27.6793" rx="13.8397" fill="#C4C4C4"/>
<g filter="url(#filter0_i_229_1891)">
<rect x="2.67896" y="2.33301" width="106.648" height="27.6793" rx="8" fill="#F00001"/>
</g>
<rect x="1.67896" y="1.33301" width="108.648" height="29.6793" rx="9" stroke="#5A616A" stroke-width="2"/>
<rect x="5.35278" y="4.27698" width="101.3" height="10.4975" rx="5.24875" fill="#FE696B"/>
<ellipse rx="5.97525" ry="2.58295" transform="matrix(0.999785 -0.0207575 0.043425 0.999057 15.7617 9.12848)" fill="#F7FDFA"/>
<ellipse rx="2.62019" ry="1.13265" transform="matrix(0.999785 -0.0207575 0.043425 0.999057 26.6534 6.42399)" fill="#F7FDFA"/>
<path d="M22.7834 17.55H24.0974C24.071 17.9807 23.9524 18.363 23.7415 18.697C23.5334 19.031 23.2419 19.2917 22.8669 19.4792C22.4949 19.6667 22.0466 19.7605 21.5222 19.7605C21.1121 19.7605 20.7444 19.6902 20.4192 19.5496C20.094 19.406 19.8157 19.2009 19.5842 18.9343C19.3557 18.6677 19.1814 18.3455 19.0613 17.9675C18.9412 17.5896 18.8811 17.1663 18.8811 16.6975V16.2537C18.8811 15.7849 18.9426 15.3616 19.0657 14.9836C19.1917 14.6028 19.3704 14.2791 19.6018 14.0125C19.8362 13.7458 20.116 13.5408 20.4412 13.3972C20.7664 13.2537 21.1296 13.1819 21.531 13.1819C22.0642 13.1819 22.5139 13.2786 22.8801 13.4719C23.2493 13.6653 23.5349 13.9319 23.7371 14.2717C23.9421 14.6116 24.0652 14.9983 24.1062 15.4319H22.7878C22.7732 15.1741 22.7219 14.9558 22.634 14.7771C22.5461 14.5955 22.4128 14.4592 22.2341 14.3684C22.0583 14.2747 21.824 14.2278 21.531 14.2278C21.3113 14.2278 21.1194 14.2688 20.9553 14.3508C20.7913 14.4329 20.6536 14.5574 20.5422 14.7244C20.4309 14.8914 20.3474 15.1023 20.2917 15.3572C20.239 15.6091 20.2126 15.905 20.2126 16.2449V16.6975C20.2126 17.0286 20.2375 17.3201 20.2874 17.572C20.3372 17.821 20.4133 18.032 20.5159 18.2048C20.6213 18.3748 20.7561 18.5037 20.9202 18.5916C21.0872 18.6765 21.2878 18.719 21.5222 18.719C21.7976 18.719 22.0247 18.675 22.2034 18.5872C22.3821 18.4993 22.5183 18.3689 22.6121 18.196C22.7087 18.0232 22.7659 17.8079 22.7834 17.55ZM24.6819 17.3435V17.2512C24.6819 16.9026 24.7317 16.5818 24.8313 16.2888C24.9309 15.9929 25.0759 15.7366 25.2664 15.5198C25.4568 15.303 25.6912 15.1345 25.9695 15.0144C26.2478 14.8914 26.5671 14.8298 26.9275 14.8298C27.2878 14.8298 27.6086 14.8914 27.8899 15.0144C28.1711 15.1345 28.407 15.303 28.5974 15.5198C28.7908 15.7366 28.9373 15.9929 29.0369 16.2888C29.1365 16.5818 29.1863 16.9026 29.1863 17.2512V17.3435C29.1863 17.6892 29.1365 18.01 29.0369 18.3059C28.9373 18.5989 28.7908 18.8552 28.5974 19.075C28.407 19.2917 28.1726 19.4602 27.8943 19.5803C27.616 19.7004 27.2966 19.7605 26.9363 19.7605C26.5759 19.7605 26.2551 19.7004 25.9739 19.5803C25.6956 19.4602 25.4597 19.2917 25.2664 19.075C25.0759 18.8552 24.9309 18.5989 24.8313 18.3059C24.7317 18.01 24.6819 17.6892 24.6819 17.3435ZM25.9475 17.2512V17.3435C25.9475 17.5427 25.9651 17.7288 26.0002 17.9016C26.0354 18.0745 26.0911 18.2268 26.1672 18.3586C26.2463 18.4875 26.3489 18.5886 26.4749 18.6619C26.6008 18.7351 26.7546 18.7717 26.9363 18.7717C27.1121 18.7717 27.2629 18.7351 27.3889 18.6619C27.5149 18.5886 27.616 18.4875 27.6921 18.3586C27.7683 18.2268 27.824 18.0745 27.8591 17.9016C27.8972 17.7288 27.9163 17.5427 27.9163 17.3435V17.2512C27.9163 17.0579 27.8972 16.8762 27.8591 16.7063C27.824 16.5334 27.7668 16.3811 27.6877 16.2493C27.6116 16.1145 27.5105 16.009 27.3845 15.9329C27.2585 15.8567 27.1062 15.8186 26.9275 15.8186C26.7488 15.8186 26.5964 15.8567 26.4705 15.9329C26.3474 16.009 26.2463 16.1145 26.1672 16.2493C26.0911 16.3811 26.0354 16.5334 26.0002 16.7063C25.9651 16.8762 25.9475 17.0579 25.9475 17.2512ZM31.2297 15.9021V19.6726H29.9597V14.9177H31.1506L31.2297 15.9021ZM31.054 17.1282H30.7024C30.7024 16.7971 30.7419 16.4924 30.821 16.2141C30.9031 15.9329 31.0217 15.6897 31.177 15.4846C31.3352 15.2766 31.53 15.1155 31.7615 15.0012C31.9929 14.887 32.261 14.8298 32.5657 14.8298C32.7766 14.8298 32.97 14.8621 33.1458 14.9265C33.3215 14.988 33.4724 15.0862 33.5984 15.2209C33.7273 15.3528 33.8269 15.5256 33.8972 15.7395C33.9675 15.9504 34.0027 16.2039 34.0027 16.4998V19.6726H32.7371V16.6404C32.7371 16.4236 32.7078 16.2566 32.6492 16.1394C32.5906 16.0222 32.5071 15.9402 32.3987 15.8933C32.2932 15.8464 32.1658 15.823 32.0164 15.823C31.8523 15.823 31.7087 15.8567 31.5857 15.9241C31.4656 15.9915 31.366 16.0852 31.2869 16.2053C31.2078 16.3225 31.1492 16.4602 31.1111 16.6184C31.073 16.7766 31.054 16.9465 31.054 17.1282ZM33.884 16.9832L33.4314 17.0403C33.4314 16.7297 33.4695 16.4412 33.5457 16.1746C33.6248 15.908 33.7405 15.6736 33.8928 15.4714C34.0481 15.2693 34.24 15.1125 34.4685 15.0012C34.697 14.887 34.9607 14.8298 35.2595 14.8298C35.488 14.8298 35.696 14.8635 35.8835 14.9309C36.071 14.9954 36.2307 15.0994 36.3625 15.2429C36.4973 15.3835 36.5999 15.5681 36.6702 15.7966C36.7434 16.0251 36.78 16.3049 36.78 16.636V19.6726H35.51V16.636C35.51 16.4163 35.4807 16.2493 35.4221 16.135C35.3665 16.0178 35.2844 15.9373 35.176 15.8933C35.0706 15.8464 34.9446 15.823 34.7981 15.823C34.6458 15.823 34.5125 15.8538 34.3982 15.9153C34.2839 15.9739 34.1887 16.0559 34.1125 16.1614C34.0364 16.2668 33.9792 16.3899 33.9412 16.5305C33.9031 16.6682 33.884 16.8191 33.884 16.9832ZM39.0256 15.9021V19.6726H37.7556V14.9177H38.9465L39.0256 15.9021ZM38.8499 17.1282H38.4983C38.4983 16.7971 38.5378 16.4924 38.6169 16.2141C38.699 15.9329 38.8176 15.6897 38.9729 15.4846C39.1311 15.2766 39.3259 15.1155 39.5574 15.0012C39.7888 14.887 40.0569 14.8298 40.3616 14.8298C40.5725 14.8298 40.7659 14.8621 40.9417 14.9265C41.1174 14.988 41.2683 15.0862 41.3943 15.2209C41.5232 15.3528 41.6228 15.5256 41.6931 15.7395C41.7634 15.9504 41.7986 16.2039 41.7986 16.4998V19.6726H40.533V16.6404C40.533 16.4236 40.5037 16.2566 40.4451 16.1394C40.3865 16.0222 40.303 15.9402 40.1946 15.8933C40.0891 15.8464 39.9617 15.823 39.8123 15.823C39.6482 15.823 39.5046 15.8567 39.3816 15.9241C39.2615 15.9915 39.1619 16.0852 39.0828 16.2053C39.0037 16.3225 38.9451 16.4602 38.907 16.6184C38.8689 16.7766 38.8499 16.9465 38.8499 17.1282ZM41.6799 16.9832L41.2273 17.0403C41.2273 16.7297 41.2654 16.4412 41.3416 16.1746C41.4207 15.908 41.5364 15.6736 41.6887 15.4714C41.844 15.2693 42.0359 15.1125 42.2644 15.0012C42.4929 14.887 42.7566 14.8298 43.0554 14.8298C43.2839 14.8298 43.4919 14.8635 43.6794 14.9309C43.8669 14.9954 44.0266 15.0994 44.1584 15.2429C44.2932 15.3835 44.3958 15.5681 44.4661 15.7966C44.5393 16.0251 44.5759 16.3049 44.5759 16.636V19.6726H43.3059V16.636C43.3059 16.4163 43.2766 16.2493 43.218 16.135C43.1624 16.0178 43.0803 15.9373 42.9719 15.8933C42.8665 15.8464 42.7405 15.823 42.594 15.823C42.4417 15.823 42.3083 15.8538 42.1941 15.9153C42.0798 15.9739 41.9846 16.0559 41.9084 16.1614C41.8323 16.2668 41.7751 16.3899 41.7371 16.5305C41.699 16.6682 41.6799 16.8191 41.6799 16.9832ZM47.7444 19.7605C47.3752 19.7605 47.0442 19.7019 46.7512 19.5847C46.4583 19.4646 46.2092 19.2991 46.0042 19.0881C45.802 18.8772 45.6467 18.6326 45.5383 18.3542C45.4299 18.073 45.3757 17.7742 45.3757 17.4578V17.282C45.3757 16.9216 45.427 16.592 45.5295 16.2932C45.6321 15.9944 45.7786 15.7351 45.969 15.5154C46.1624 15.2957 46.3967 15.1272 46.6721 15.01C46.9475 14.8899 47.2581 14.8298 47.6038 14.8298C47.9407 14.8298 48.2395 14.8855 48.5002 14.9968C48.761 15.1082 48.9792 15.2664 49.155 15.4714C49.3337 15.6765 49.4685 15.9226 49.5593 16.2097C49.6501 16.4939 49.6956 16.8103 49.6956 17.1589V17.6863H45.9163V16.8425H48.4519V16.7458C48.4519 16.5701 48.4197 16.4133 48.3552 16.2756C48.2937 16.135 48.2 16.0237 48.074 15.9417C47.948 15.8596 47.7869 15.8186 47.5906 15.8186C47.4236 15.8186 47.28 15.8552 47.1599 15.9285C47.0398 16.0017 46.9417 16.1042 46.8655 16.2361C46.7922 16.3679 46.7366 16.5232 46.6985 16.7019C46.6633 16.8777 46.6458 17.071 46.6458 17.282V17.4578C46.6458 17.6482 46.6721 17.824 46.7249 17.9851C46.7805 18.1462 46.8582 18.2854 46.9578 18.4026C47.0603 18.5198 47.1833 18.6106 47.3269 18.675C47.4734 18.7395 47.6389 18.7717 47.8235 18.7717C48.052 18.7717 48.2644 18.7278 48.4607 18.6399C48.6599 18.5491 48.8313 18.4128 48.9749 18.2312L49.5901 18.8992C49.4905 19.0427 49.3542 19.1804 49.1814 19.3123C49.0115 19.4441 48.8064 19.5525 48.5662 19.6375C48.3259 19.7195 48.052 19.7605 47.7444 19.7605ZM51.6555 15.9329V19.6726H50.3899V14.9177H51.5764L51.6555 15.9329ZM51.4709 17.1282H51.1282C51.1282 16.7766 51.1736 16.4602 51.2644 16.179C51.3552 15.8948 51.4827 15.6531 51.6467 15.4539C51.8108 15.2517 52.0056 15.0979 52.2312 14.9924C52.4597 14.884 52.7146 14.8298 52.9958 14.8298C53.2185 14.8298 53.4221 14.8621 53.6067 14.9265C53.7913 14.991 53.9495 15.0935 54.0813 15.2341C54.2161 15.3748 54.3186 15.5608 54.3889 15.7922C54.4622 16.0237 54.4988 16.3064 54.4988 16.6404V19.6726H53.2244V16.636C53.2244 16.425 53.1951 16.261 53.1365 16.1438C53.0779 16.0266 52.9915 15.9446 52.8772 15.8977C52.7659 15.8479 52.6282 15.823 52.4641 15.823C52.2942 15.823 52.1462 15.8567 52.0203 15.9241C51.8972 15.9915 51.7947 16.0852 51.7126 16.2053C51.6335 16.3225 51.5735 16.4602 51.5325 16.6184C51.4915 16.7766 51.4709 16.9465 51.4709 17.1282ZM57.4255 18.7717C57.5808 18.7717 57.7185 18.7424 57.8386 18.6838C57.9587 18.6223 58.0525 18.5374 58.1199 18.429C58.1902 18.3176 58.2268 18.1873 58.2297 18.0378H59.4207C59.4177 18.3718 59.3284 18.6692 59.1526 18.9299C58.9768 19.1877 58.741 19.3914 58.4451 19.5408C58.1492 19.6873 57.8181 19.7605 57.4519 19.7605C57.0828 19.7605 56.7605 19.699 56.4851 19.5759C56.2126 19.4529 55.9856 19.283 55.804 19.0662C55.6223 18.8464 55.4861 18.5916 55.3953 18.3015C55.3044 18.0085 55.259 17.6951 55.259 17.3611V17.2336C55.259 16.8967 55.3044 16.5833 55.3953 16.2932C55.4861 16.0002 55.6223 15.7454 55.804 15.5286C55.9856 15.3088 56.2126 15.1375 56.4851 15.0144C56.7576 14.8914 57.0769 14.8298 57.4431 14.8298C57.8328 14.8298 58.1741 14.9045 58.467 15.054C58.7629 15.2034 58.9944 15.4172 59.1614 15.6956C59.3313 15.9709 59.4177 16.2976 59.4207 16.6755H58.2297C58.2268 16.5173 58.1931 16.3738 58.1287 16.2449C58.0671 16.116 57.9763 16.0134 57.8562 15.9373C57.739 15.8582 57.594 15.8186 57.4211 15.8186C57.2366 15.8186 57.0857 15.8582 56.9685 15.9373C56.8513 16.0134 56.7605 16.1189 56.696 16.2537C56.6316 16.3855 56.5862 16.5364 56.5598 16.7063C56.5364 16.8733 56.5247 17.0491 56.5247 17.2336V17.3611C56.5247 17.5457 56.5364 17.7229 56.5598 17.8928C56.5833 18.0627 56.6272 18.2136 56.6917 18.3455C56.759 18.4773 56.8513 18.5813 56.9685 18.6575C57.0857 18.7336 57.238 18.7717 57.4255 18.7717ZM62.343 19.7605C61.9739 19.7605 61.6428 19.7019 61.3499 19.5847C61.0569 19.4646 60.8079 19.2991 60.6028 19.0881C60.4006 18.8772 60.2454 18.6326 60.137 18.3542C60.0286 18.073 59.9744 17.7742 59.9744 17.4578V17.282C59.9744 16.9216 60.0256 16.592 60.1282 16.2932C60.2307 15.9944 60.3772 15.7351 60.5676 15.5154C60.761 15.2957 60.9954 15.1272 61.2708 15.01C61.5461 14.8899 61.8567 14.8298 62.2024 14.8298C62.5393 14.8298 62.8381 14.8855 63.0989 14.9968C63.3596 15.1082 63.5779 15.2664 63.7537 15.4714C63.9324 15.6765 64.0671 15.9226 64.158 16.2097C64.2488 16.4939 64.2942 16.8103 64.2942 17.1589V17.6863H60.5149V16.8425H63.0505V16.7458C63.0505 16.5701 63.0183 16.4133 62.9539 16.2756C62.8923 16.135 62.7986 16.0237 62.6726 15.9417C62.5466 15.8596 62.3855 15.8186 62.1892 15.8186C62.0222 15.8186 61.8787 15.8552 61.7585 15.9285C61.6384 16.0017 61.5403 16.1042 61.4641 16.2361C61.3909 16.3679 61.3352 16.5232 61.2971 16.7019C61.262 16.8777 61.2444 17.071 61.2444 17.282V17.4578C61.2444 17.6482 61.2708 17.824 61.3235 17.9851C61.3792 18.1462 61.4568 18.2854 61.5564 18.4026C61.6589 18.5198 61.782 18.6106 61.9255 18.675C62.072 18.7395 62.2375 18.7717 62.4221 18.7717C62.6506 18.7717 62.863 18.7278 63.0593 18.6399C63.2585 18.5491 63.4299 18.4128 63.5735 18.2312L64.1887 18.8992C64.0891 19.0427 63.9529 19.1804 63.78 19.3123C63.6101 19.4441 63.405 19.5525 63.1648 19.6375C62.9246 19.7195 62.6506 19.7605 62.343 19.7605ZM69.9368 14.3684L68.1965 19.6726H66.7947L69.1721 13.2742H70.0642L69.9368 14.3684ZM71.3826 19.6726L69.6379 14.3684L69.4973 13.2742H70.3982L72.7888 19.6726H71.3826ZM71.3035 17.2908V18.3235H67.9241V17.2908H71.3035ZM75.553 14.9177V15.8142H72.7844V14.9177H75.553ZM73.47 13.7444H74.7356V18.24C74.7356 18.3777 74.7532 18.4832 74.7883 18.5564C74.8264 18.6296 74.8821 18.6809 74.9553 18.7102C75.0286 18.7366 75.1208 18.7498 75.2322 18.7498C75.3113 18.7498 75.3816 18.7468 75.4431 18.741C75.5076 18.7322 75.5618 18.7234 75.6057 18.7146L75.6101 19.6462C75.5017 19.6814 75.3845 19.7092 75.2585 19.7297C75.1326 19.7502 74.9934 19.7605 74.8411 19.7605C74.5627 19.7605 74.3196 19.7151 74.1116 19.6243C73.9065 19.5305 73.7483 19.3811 73.637 19.176C73.5256 18.9709 73.47 18.7014 73.47 18.3674V13.7444ZM78.6028 14.9177V15.8142H75.8342V14.9177H78.6028ZM76.5198 13.7444H77.7854V18.24C77.7854 18.3777 77.803 18.4832 77.8381 18.5564C77.8762 18.6296 77.9319 18.6809 78.0051 18.7102C78.0784 18.7366 78.1707 18.7498 78.282 18.7498C78.3611 18.7498 78.4314 18.7468 78.4929 18.741C78.5574 18.7322 78.6116 18.7234 78.6555 18.7146L78.6599 19.6462C78.5515 19.6814 78.4343 19.7092 78.3083 19.7297C78.1824 19.7502 78.0432 19.7605 77.8909 19.7605C77.6125 19.7605 77.3694 19.7151 77.1614 19.6243C76.9563 19.5305 76.7981 19.3811 76.6868 19.176C76.5754 18.9709 76.5198 18.7014 76.5198 18.3674V13.7444ZM81.8899 18.6003V16.4822C81.8899 16.3298 81.865 16.1995 81.8152 16.0911C81.7654 15.9797 81.6877 15.8933 81.5823 15.8318C81.4797 15.7703 81.3464 15.7395 81.1824 15.7395C81.0417 15.7395 80.9202 15.7644 80.8176 15.8142C80.7151 15.8611 80.636 15.9299 80.5803 16.0208C80.5247 16.1086 80.4968 16.2126 80.4968 16.3328H79.2312C79.2312 16.1306 79.2781 15.9387 79.3718 15.7571C79.4656 15.5754 79.6018 15.4158 79.7805 15.2781C79.9592 15.1375 80.1716 15.0276 80.4177 14.9485C80.6667 14.8694 80.9451 14.8298 81.2527 14.8298C81.6218 14.8298 81.95 14.8914 82.2371 15.0144C82.5242 15.1375 82.7498 15.322 82.9138 15.5681C83.0808 15.8142 83.1643 16.1218 83.1643 16.491V18.5256C83.1643 18.7864 83.1804 19.0002 83.2126 19.1672C83.2449 19.3313 83.2917 19.4749 83.3533 19.5979V19.6726H82.0745C82.0129 19.5437 81.9661 19.3826 81.9338 19.1892C81.9045 18.9929 81.8899 18.7966 81.8899 18.6003ZM82.0569 16.7766L82.0657 17.4929H81.3582C81.1912 17.4929 81.0461 17.512 80.9231 17.55C80.8 17.5881 80.699 17.6423 80.6199 17.7126C80.5408 17.78 80.4822 17.8591 80.4441 17.95C80.4089 18.0408 80.3914 18.1404 80.3914 18.2488C80.3914 18.3572 80.4163 18.4553 80.4661 18.5432C80.5159 18.6282 80.5876 18.6956 80.6814 18.7454C80.7751 18.7922 80.885 18.8157 81.011 18.8157C81.2014 18.8157 81.3669 18.7776 81.5076 18.7014C81.6482 18.6252 81.7566 18.5315 81.8328 18.4202C81.9119 18.3088 81.9529 18.2034 81.9558 18.1038L82.2898 18.6399C82.2429 18.76 82.1785 18.8845 82.0964 19.0134C82.0173 19.1423 81.9163 19.2639 81.7932 19.3782C81.6702 19.4895 81.5222 19.5818 81.3494 19.655C81.1765 19.7253 80.9714 19.7605 80.7341 19.7605C80.4324 19.7605 80.1584 19.7004 79.9124 19.5803C79.6692 19.4573 79.4758 19.2888 79.3323 19.075C79.1917 18.8582 79.1213 18.6121 79.1213 18.3367C79.1213 18.0876 79.1682 17.8665 79.262 17.6731C79.3557 17.4797 79.4934 17.3171 79.675 17.1853C79.8596 17.0505 80.0896 16.9495 80.365 16.8821C80.6404 16.8118 80.9597 16.7766 81.323 16.7766H82.0569ZM86.1042 18.7717C86.2595 18.7717 86.3972 18.7424 86.5173 18.6838C86.6375 18.6223 86.7312 18.5374 86.7986 18.429C86.8689 18.3176 86.9055 18.1873 86.9084 18.0378H88.0994C88.0964 18.3718 88.0071 18.6692 87.8313 18.9299C87.6555 19.1877 87.4197 19.3914 87.1238 19.5408C86.8279 19.6873 86.4968 19.7605 86.1306 19.7605C85.7615 19.7605 85.4392 19.699 85.1638 19.5759C84.8914 19.4529 84.6643 19.283 84.4827 19.0662C84.301 18.8464 84.1648 18.5916 84.074 18.3015C83.9832 18.0085 83.9377 17.6951 83.9377 17.3611V17.2336C83.9377 16.8967 83.9832 16.5833 84.074 16.2932C84.1648 16.0002 84.301 15.7454 84.4827 15.5286C84.6643 15.3088 84.8914 15.1375 85.1638 15.0144C85.4363 14.8914 85.7556 14.8298 86.1218 14.8298C86.5115 14.8298 86.8528 14.9045 87.1458 15.054C87.4417 15.2034 87.6731 15.4172 87.8401 15.6956C88.01 15.9709 88.0964 16.2976 88.0994 16.6755H86.9084C86.9055 16.5173 86.8718 16.3738 86.8074 16.2449C86.7458 16.116 86.655 16.0134 86.5349 15.9373C86.4177 15.8582 86.2727 15.8186 86.0999 15.8186C85.9153 15.8186 85.7644 15.8582 85.6472 15.9373C85.53 16.0134 85.4392 16.1189 85.3748 16.2537C85.3103 16.3855 85.2649 16.5364 85.2385 16.7063C85.2151 16.8733 85.2034 17.0491 85.2034 17.2336V17.3611C85.2034 17.5457 85.2151 17.7229 85.2385 17.8928C85.262 18.0627 85.3059 18.2136 85.3704 18.3455C85.4377 18.4773 85.53 18.5813 85.6472 18.6575C85.7644 18.7336 85.9167 18.7717 86.1042 18.7717ZM90.0989 12.9182V19.6726H88.8333V12.9182H90.0989ZM93.0959 14.9177L91.0305 17.2732L89.9231 18.3938L89.4617 17.4797L90.3406 16.3635L91.5754 14.9177H93.0959ZM91.782 19.6726L90.3757 17.4753L91.2502 16.7107L93.241 19.6726H91.782Z" fill="white"/>
<defs>
<filter id="filter0_i_229_1891" x="0.678955" y="0.333008" width="110.648" height="31.6793" filterUnits="userSpaceOnUse" color-interpolation-filters="sRGB">
<feFlood flood-opacity="0" result="BackgroundImageFix"/>
<feBlend mode="normal" in="SourceGraphic" in2="BackgroundImageFix" result="shape"/>
<feColorMatrix in="SourceAlpha" type="matrix" values="0 0 0 0 0 0 0 0 0 0 0 0 0 0 0 0 0 0 127 0" result="hardAlpha"/>
<feOffset dy="-10"/>
<feComposite in2="hardAlpha" operator="arithmetic" k2="-1" k3="1"/>
<feColorMatrix type="matrix" values="0 0 0 0 0 0 0 0 0 0 0 0 0 0 0 0 0 0 0.25 0"/>
<feBlend mode="normal" in2="shape" result="effect1_innerShadow_229_1891"/>
</filter>
</defs>
</svg>
