<svg width="23" height="21" viewBox="0 0 23 21" fill="none" xmlns="http://www.w3.org/2000/svg">
<path fill-rule="evenodd" clip-rule="evenodd" d="M13.6641 12.8969H14.684C14.7404 12.8969 14.7339 12.9556 14.7547 13.0734C14.7701 13.1604 14.7804 13.2126 14.7962 13.2947L15.1181 15.0125C15.1463 15.1547 15.1676 15.2947 15.1978 15.4429L16.0129 19.758H13.6641V12.8969L13.6641 12.8969ZM8.67281 12.8969H9.7236V19.758H7.39021L7.70568 18.0492C7.9332 16.932 8.12266 15.7387 8.34947 14.6134C8.40607 14.3325 8.46012 14.0453 8.51174 13.7558L8.67279 12.8969L8.67281 12.8969ZM7.28205 12.3561C7.28205 12.5016 7.29347 12.6095 7.40155 12.7311C7.45333 12.7893 7.57213 12.8735 7.66838 12.8815L7.50732 13.7403C7.25447 15.1587 6.95384 16.6176 6.70137 18.0338C6.64913 18.3269 6.5985 18.6111 6.54151 18.8938C6.51215 19.0395 6.49125 19.1784 6.46187 19.3242L6.3858 19.758H1.53359L1.78975 18.8398C2.00783 18.0693 2.19464 17.2729 2.38331 16.4973L2.70911 15.046C2.80259 14.5945 3.22628 12.5193 3.26429 12.0625C3.52562 12.0842 4.20059 12.4025 5.41223 12.4025C5.96921 12.4025 6.56519 12.2646 7.0904 12.1336C7.16088 12.116 7.26359 12.0794 7.32837 12.0779C7.32605 12.1827 7.28201 12.2492 7.28201 12.3561L7.28205 12.3561ZM16.0593 12.0779L16.9646 12.2853C17.961 12.4861 18.9243 12.4089 19.8898 12.1224C19.9395 12.1077 20.0717 12.0668 20.1234 12.0625C20.1596 12.2179 20.179 12.3967 20.2073 12.5658C20.3525 13.4344 20.5093 14.1794 20.6784 15.0307C20.7111 15.1951 20.7512 15.3585 20.784 15.5123C20.9948 16.5017 21.3245 17.8617 21.5979 18.8243L21.8541 19.758L17.2028 19.758C17.1669 19.7582 17.1279 19.7601 17.0929 19.7598C17.0351 19.7592 17.0334 19.7697 17.0096 19.7349L16.3669 16.3135C16.3215 16.0846 16.2864 15.8591 16.2383 15.6231C16.0782 14.8367 15.95 14.0129 15.7902 13.2279C15.7729 13.1429 15.7456 12.9363 15.7193 12.8815C15.9545 12.8619 16.1501 12.5729 16.1133 12.3495C16.1036 12.2904 16.0747 12.1124 16.0593 12.0779ZM8.6419 10.5326C10.8813 11.0544 12.1864 11.0531 14.3943 10.6139C14.4665 10.5995 14.701 10.5542 14.7458 10.5326C14.7477 10.6197 14.7908 10.7807 14.8089 10.8713L14.9454 11.5538C14.9646 11.6497 15.0085 11.8113 15.0085 11.9079H8.3792C8.38196 11.7837 8.6419 10.6629 8.6419 10.5326ZM7.56021 10.9653L7.04375 11.1133C6.54886 11.2539 5.81273 11.4134 5.28864 11.4134C4.78598 11.4134 4.15881 11.2304 4.05241 11.228C4.08061 11.1895 4.17779 11.134 4.22244 11.1044L5.46312 10.2435C5.58217 10.1539 5.69404 10.0779 5.8118 9.98956L7.50732 8.68723C7.5655 8.64125 7.6129 8.59809 7.66848 8.55478L9.27933 7.15232C9.31284 7.11881 9.39873 7.00937 9.44545 7.00937H13.9422C13.9891 7.00937 14.3801 7.42586 14.4808 7.50617L14.9429 7.92485C14.9787 7.95634 14.9917 7.959 15.028 7.99433L15.3507 8.27426C15.6078 8.48138 15.8746 8.72809 16.1655 8.95845L17.5141 10.005C17.9624 10.3413 18.4571 10.6786 18.9243 10.99C18.983 11.0292 19.2561 11.1785 19.2735 11.2435C19.1886 11.2454 19.0784 11.2812 18.9889 11.2989C18.8862 11.3192 18.8024 11.3348 18.7018 11.3517C18.031 11.4644 17.5465 11.4001 16.8907 11.2465C16.7047 11.203 16.5377 11.1667 16.3584 11.1144L15.9724 11.0059C15.7887 10.9464 15.8551 11.0491 15.749 10.5185C15.7184 10.3658 15.6875 10.2112 15.6562 10.0549C15.6155 9.85112 15.5888 9.62654 15.3647 9.51202C15.1438 9.39914 14.9917 9.46985 14.7458 9.52821C14.6136 9.55958 14.4769 9.58694 14.3376 9.61451C14.0531 9.67082 13.7948 9.71731 13.5007 9.76661C12.1454 9.9938 11.2675 9.99885 9.91343 9.77108C9.51827 9.70462 9.06126 9.6249 8.66667 9.53438C8.36511 9.4652 8.13943 9.35437 7.88811 9.6243C7.79571 9.72353 7.77159 9.86977 7.73921 10.0317L7.60015 10.7271C7.58471 10.8043 7.56023 10.8866 7.56023 10.9653L7.56021 10.9653ZM12.1961 3.84154V1.77086L12.5051 1.7554C13.1144 1.7554 13.8374 2.08184 14.3971 2.30498C15.284 2.6586 15.8614 2.92144 16.8287 3.14938C16.9539 3.17889 17.4083 3.28522 17.5119 3.28522L16.8696 3.38473C16.6821 3.41081 16.5326 3.41203 16.3692 3.42514C15.9524 3.45851 15.1776 3.44211 14.7301 3.43956C14.3918 3.43763 13.6786 3.50769 13.373 3.55049C13.1426 3.58278 12.4169 3.73556 12.1961 3.84154H12.1961ZM11.2071 0.565522V6.02039H9.2291C8.9544 6.02039 8.85298 6.22234 8.692 6.3641L7.44723 7.46819L6.05474 8.59451C5.10294 9.33766 4.10607 10.0096 3.10356 10.681L2.6609 10.9646C2.49824 11.0614 2.40246 11.1626 2.37021 11.3847C2.21934 12.4239 2.04627 13.4316 1.84133 14.4564C1.62516 15.5373 1.3703 16.6088 1.104 17.675C1.07839 17.7776 1.05884 17.8692 1.02909 17.971L0.721094 19.1001C0.683412 19.2337 0.405518 20.1251 0.405518 20.2371C0.405518 20.5409 0.63 20.747 0.930914 20.747H22.4877C22.7715 20.747 22.9822 20.5062 22.9822 20.2371C22.9822 20.0967 22.7159 19.2719 22.6732 19.1089C22.6248 18.9242 22.5649 18.7415 22.5186 18.5527C22.4961 18.461 22.4691 18.36 22.4432 18.2727C22.3012 17.7941 22.199 17.3197 22.0766 16.8312C21.9783 16.4387 21.9004 16.0551 21.8077 15.663C21.5256 14.4694 21.3212 13.2568 21.1167 12.0427C21.0814 11.8326 21.0569 11.6366 21.0264 11.4222C20.9687 11.0168 20.716 10.9614 20.3001 10.7114L18.9888 9.85924C18.9504 9.83127 18.9218 9.81538 18.8872 9.79086C18.85 9.76447 18.8185 9.73967 18.779 9.71365C18.425 9.48076 18.0759 9.21843 17.7458 8.95433C17.3032 8.60033 16.76 8.21447 16.349 7.83229C16.1329 7.63139 15.8878 7.45783 15.677 7.2526L14.4549 6.12591C14.4004 6.08217 14.2824 6.02042 14.1895 6.02042H12.1961V4.90781C12.1961 4.85829 12.2369 4.85545 12.2816 4.83877C12.3277 4.82151 12.3584 4.80792 12.4034 4.79064C12.4865 4.75877 12.5687 4.73474 12.6462 4.70889C13.0016 4.59023 13.3555 4.53382 13.7323 4.48149C14.301 4.4025 15.7085 4.4287 16.3066 4.42877L16.7848 4.4125C17.0215 4.39299 17.2945 4.37316 17.5251 4.33381C18.2309 4.21339 18.924 4.05034 19.5517 3.73344L20.1999 3.39264C20.2984 3.33633 20.7525 3.06096 20.8033 2.99163C20.7042 2.99987 20.6243 3.06064 20.5252 3.0689C20.5225 2.94522 20.4592 2.73096 20.4338 2.60401C20.4179 2.52489 20.404 2.44854 20.3861 2.37352C20.3713 2.31131 20.3451 2.20653 20.3398 2.14173C20.1657 2.1562 19.6861 2.46624 18.6863 2.46624C18.0486 2.46624 17.4329 2.33405 16.9383 2.1899C16.031 1.92548 15.2069 1.56248 14.3418 1.21676C13.6522 0.941156 12.9617 0.689162 12.1961 0.689162C12.1961 -0.117891 11.2071 0.0453298 11.2071 0.565539V0.565522Z" fill="#F9FC02"/>
</svg>
