<svg width="25" height="25" viewBox="0 0 25 25" fill="none" xmlns="http://www.w3.org/2000/svg">
<path d="M10.6686 9.50906C11.1581 9.01957 11.4914 8.39592 11.6264 7.717C11.7614 7.03808 11.6921 6.33436 11.4272 5.69484C11.1622 5.05532 10.7136 4.50872 10.1381 4.12415C9.5625 3.73958 8.88583 3.53432 8.19361 3.53432C7.50139 3.53432 6.82471 3.73958 6.24915 4.12415C5.67358 4.50872 5.22498 5.05532 4.96006 5.69484C4.69514 6.33436 4.62581 7.03808 4.76083 7.717C4.89585 8.39592 5.22916 9.01957 5.71861 9.50906L8.19361 11.9841L10.6686 9.50906ZM8.19361 14.8121L4.30361 10.9241C3.53468 10.1548 3.01111 9.17476 2.7991 8.10794C2.58709 7.04111 2.69616 5.93538 3.11252 4.93053C3.52887 3.92569 4.23382 3.06686 5.13824 2.46263C6.04265 1.85839 7.10592 1.53589 8.19361 1.53589C9.28129 1.53589 10.3446 1.85839 11.249 2.46263C12.1534 3.06686 12.8583 3.92569 13.2747 4.93053C13.6911 5.93538 13.8001 7.04111 13.5881 8.10794C13.3761 9.17476 12.8525 10.1548 12.0836 10.9241L8.19361 14.8141V14.8121ZM8.19361 8.53406C7.79578 8.53406 7.41425 8.37603 7.13295 8.09472C6.85164 7.81342 6.69361 7.43189 6.69361 7.03406C6.69361 6.63624 6.85164 6.25471 7.13295 5.9734C7.41425 5.6921 7.79578 5.53406 8.19361 5.53406C8.59143 5.53406 8.97296 5.6921 9.25427 5.9734C9.53557 6.25471 9.69361 6.63624 9.69361 7.03406C9.69361 7.43189 9.53557 7.81342 9.25427 8.09472C8.97296 8.37603 8.59143 8.53406 8.19361 8.53406ZM17.1936 20.9841L19.6686 18.5091C20.1581 18.0196 20.4914 17.3959 20.6264 16.717C20.7614 16.0381 20.6921 15.3344 20.4271 14.6948C20.1622 14.0553 19.7136 13.5087 19.1381 13.1241C18.5625 12.7396 17.8858 12.5343 17.1936 12.5343C16.5014 12.5343 15.8247 12.7396 15.2491 13.1241C14.6736 13.5087 14.225 14.0553 13.9601 14.6948C13.6951 15.3344 13.6258 16.0381 13.7608 16.717C13.8959 17.3959 14.2292 18.0196 14.7186 18.5091L17.1936 20.9841ZM21.0836 19.9241L17.1936 23.8121L13.3036 19.9231C12.5347 19.1538 12.0111 18.1738 11.7991 17.1069C11.5871 16.0401 11.6962 14.9344 12.1125 13.9295C12.5289 12.9247 13.2338 12.0659 14.1382 11.4616C15.0427 10.8574 16.1059 10.5349 17.1936 10.5349C18.2813 10.5349 19.3446 10.8574 20.249 11.4616C21.1534 12.0659 21.8583 12.9247 22.2747 13.9295C22.6911 14.9344 22.8001 16.0401 22.5881 17.1069C22.3761 18.1738 21.8525 19.1538 21.0836 19.9231V19.9241ZM17.1936 17.5341C16.7958 17.5341 16.4143 17.376 16.1329 17.0947C15.8516 16.8134 15.6936 16.4319 15.6936 16.0341C15.6936 15.6362 15.8516 15.2547 16.1329 14.9734C16.4143 14.6921 16.7958 14.5341 17.1936 14.5341C17.5914 14.5341 17.973 14.6921 18.2543 14.9734C18.5356 15.2547 18.6936 15.6362 18.6936 16.0341C18.6936 16.4319 18.5356 16.8134 18.2543 17.0947C17.973 17.376 17.5914 17.5341 17.1936 17.5341Z" fill="#F9FC02"/>
</svg>
