<svg width="52" height="56" viewBox="0 0 52 56" fill="none" xmlns="http://www.w3.org/2000/svg">
<g filter="url(#filter0_d_163_5701)">
<path d="M25.8178 0.551758C12.0394 0.551758 0.401123 12.1901 0.401123 25.9684C0.401123 39.7468 12.0394 51.3851 25.8178 51.3851C39.5962 51.3851 51.2345 39.7468 51.2345 25.9684C51.2345 12.1901 39.5962 0.551758 25.8178 0.551758ZM25.8178 13.2601C30.2072 13.2601 33.4428 16.4931 33.4428 20.8851C33.4428 25.2771 30.2072 28.5101 25.8178 28.5101C21.4309 28.5101 18.1928 25.2771 18.1928 20.8851C18.1928 16.4931 21.4309 13.2601 25.8178 13.2601ZM12.84 38.0973C15.1199 34.7423 18.9222 32.5056 23.2761 32.5056H28.3595C32.7159 32.5056 36.5157 34.7423 38.7955 38.0973C35.5473 41.5743 30.9392 43.7601 25.8178 43.7601C20.6963 43.7601 16.0883 41.5743 12.84 38.0973Z" fill="#F9FC02"/>
</g>
<defs>
<filter id="filter0_d_163_5701" x="0.401123" y="0.551758" width="50.8333" height="54.8334" filterUnits="userSpaceOnUse" color-interpolation-filters="sRGB">
<feFlood flood-opacity="0" result="BackgroundImageFix"/>
<feColorMatrix in="SourceAlpha" type="matrix" values="0 0 0 0 0 0 0 0 0 0 0 0 0 0 0 0 0 0 127 0" result="hardAlpha"/>
<feOffset dy="4"/>
<feComposite in2="hardAlpha" operator="out"/>
<feColorMatrix type="matrix" values="0 0 0 0 0 0 0 0 0 0 0 0 0 0 0 0 0 0 0.32 0"/>
<feBlend mode="normal" in2="BackgroundImageFix" result="effect1_dropShadow_163_5701"/>
<feBlend mode="normal" in="SourceGraphic" in2="effect1_dropShadow_163_5701" result="shape"/>
</filter>
</defs>
</svg>
