<svg width="13" height="13" viewBox="0 0 13 13" fill="none" xmlns="http://www.w3.org/2000/svg">
<path d="M3.27158 9.54688C3.29697 9.54688 3.32236 9.54434 3.34775 9.54053L5.48311 9.16602C5.5085 9.16094 5.53262 9.14951 5.55039 9.13047L10.9319 3.74893C10.9437 3.73718 10.953 3.72323 10.9594 3.70787C10.9658 3.69251 10.9691 3.67605 10.9691 3.65942C10.9691 3.6428 10.9658 3.62633 10.9594 3.61098C10.953 3.59562 10.9437 3.58167 10.9319 3.56992L8.82197 1.45869C8.79785 1.43457 8.76611 1.42188 8.73184 1.42188C8.69756 1.42188 8.66582 1.43457 8.6417 1.45869L3.26016 6.84023C3.24111 6.85928 3.22969 6.88213 3.22461 6.90752L2.8501 9.04287C2.83775 9.11088 2.84216 9.18088 2.86295 9.2468C2.88375 9.31272 2.9203 9.37258 2.96943 9.42119C3.05322 9.50244 3.15859 9.54688 3.27158 9.54688ZM4.12725 7.33281L8.73184 2.72949L9.6624 3.66006L5.05781 8.26338L3.9292 8.4627L4.12725 7.33281ZM11.1719 10.6133H1.82812C1.60342 10.6133 1.42188 10.7948 1.42188 11.0195V11.4766C1.42188 11.5324 1.46758 11.5781 1.52344 11.5781H11.4766C11.5324 11.5781 11.5781 11.5324 11.5781 11.4766V11.0195C11.5781 10.7948 11.3966 10.6133 11.1719 10.6133Z" fill="white"/>
</svg>
