<svg width="20" height="18" viewBox="0 0 20 18" fill="none" xmlns="http://www.w3.org/2000/svg">
<path d="M9.29741 2.68927C7.85489 2.85284 6.48671 3.41598 5.34701 4.31527L6.33341 5.30287C6.49239 5.47348 6.57894 5.69913 6.57482 5.9323C6.57071 6.16546 6.47625 6.38792 6.31136 6.55281C6.14646 6.71771 5.924 6.81216 5.69084 6.81628C5.45768 6.82039 5.23202 6.73384 5.06141 6.57487L4.07021 5.58487C3.22779 6.64153 2.67967 7.90212 2.48141 9.23887H4.49741C4.73611 9.23887 4.96503 9.33369 5.13381 9.50247C5.30259 9.67126 5.39741 9.90017 5.39741 10.1389C5.39741 10.3776 5.30259 10.6065 5.13381 10.7753C4.96503 10.944 4.73611 11.0389 4.49741 11.0389H2.42741C2.61425 12.9647 3.49445 14.7571 4.90421 16.0825C5.07424 16.2467 5.17283 16.4712 5.17867 16.7076C5.18451 16.9439 5.09713 17.173 4.93541 17.3455C4.7737 17.5179 4.55064 17.6198 4.31442 17.6291C4.0782 17.6384 3.84781 17.5544 3.67301 17.3953C1.82501 15.6637 0.597412 13.1101 0.597412 10.3705C0.597412 5.10007 4.90181 0.838867 10.1974 0.838867C15.493 0.838867 19.7974 5.09887 19.7974 10.3705C19.795 11.6858 19.5251 12.9868 19.004 14.1945C18.4829 15.4022 17.7215 16.4912 16.7662 17.3953C16.5914 17.5544 16.361 17.6384 16.1248 17.6291C15.8886 17.6198 15.6655 17.5179 15.5038 17.3455C15.3421 17.173 15.2547 16.9439 15.2606 16.7076C15.2664 16.4712 15.365 16.2467 15.535 16.0825C16.935 14.7549 17.8006 12.9609 17.9686 11.0389H15.8974C15.6587 11.0389 15.4298 10.944 15.261 10.7753C15.0922 10.6065 14.9974 10.3776 14.9974 10.1389C14.9974 9.90017 15.0922 9.67126 15.261 9.50247C15.4298 9.33369 15.6587 9.23887 15.8974 9.23887H17.9134C17.4046 5.79967 14.6098 3.08887 11.0974 2.68927V4.13887C11.0974 4.37756 11.0026 4.60648 10.8338 4.77526C10.665 4.94405 10.4361 5.03887 10.1974 5.03887C9.95872 5.03887 9.7298 4.94405 9.56102 4.77526C9.39223 4.60648 9.29741 4.37756 9.29741 4.13887V2.68927ZM14.3362 5.40727C14.4453 5.32066 14.581 5.27468 14.7203 5.27721C14.8595 5.27974 14.9935 5.33062 15.0993 5.42113C15.2052 5.51164 15.2762 5.63614 15.3003 5.77329C15.3244 5.91044 15.3001 6.05171 15.2314 6.17287L15.0994 6.40807C14.6168 7.26019 14.1312 8.1106 13.6426 8.95927C13.252 9.6384 12.856 10.3144 12.4546 10.9873C12.3042 11.2404 12.1506 11.4916 11.9938 11.7409C11.8738 11.9293 11.7562 12.1081 11.6698 12.2089C11.3598 12.572 10.9183 12.7971 10.4423 12.8347C9.96635 12.8723 9.49495 12.7193 9.13181 12.4093C8.76868 12.0993 8.54356 11.6577 8.50597 11.1818C8.46839 10.7058 8.62143 10.2344 8.93141 9.87127C9.01781 9.77047 9.17501 9.62527 9.34301 9.47767C9.52301 9.31807 9.75461 9.12247 10.015 8.90287C10.5382 8.46607 11.1934 7.93087 11.8318 7.41487C12.5933 6.7989 13.3573 6.1861 14.1238 5.57647L14.3362 5.40847V5.40727Z" fill="#F9FC02"/>
</svg>
