<svg width="21" height="21" viewBox="0 0 21 21" fill="none" xmlns="http://www.w3.org/2000/svg">
<path d="M17.67 4.00985L13.9747 4.46884C13.8458 4.48446 13.7931 4.64071 13.8829 4.73251L14.9513 5.80087L11.9532 8.79892C11.9242 8.82829 11.9079 8.86794 11.9079 8.90927C11.9079 8.9506 11.9242 8.99026 11.9532 9.01962L12.8341 9.90048C12.8946 9.96103 12.9943 9.96103 13.0548 9.90048L16.0548 6.90048L17.1232 7.96884C17.1438 7.98944 17.1698 8.00382 17.1982 8.01032C17.2266 8.01683 17.2563 8.01519 17.2838 8.00561C17.3113 7.99603 17.3356 7.97889 17.3538 7.95615C17.372 7.93341 17.3835 7.90599 17.3868 7.87704L17.8439 4.18368C17.8471 4.16009 17.8448 4.13608 17.8372 4.11352C17.8297 4.09095 17.8169 4.07045 17.8001 4.05362C17.7833 4.03678 17.7628 4.02407 17.7402 4.01648C17.7176 4.00889 17.6936 4.00662 17.67 4.00985ZM9.10754 11.8653C9.07817 11.8363 9.03852 11.8199 8.99719 11.8199C8.95586 11.8199 8.9162 11.8363 8.88684 11.8653L5.88879 14.8653L4.82043 13.797C4.79982 13.7764 4.77382 13.762 4.74541 13.7555C4.717 13.749 4.68734 13.7506 4.65981 13.7602C4.63229 13.7698 4.60803 13.7869 4.5898 13.8097C4.57157 13.8324 4.56012 13.8598 4.55676 13.8888L4.09777 17.5821C4.08606 17.6837 4.17004 17.7677 4.2716 17.756L7.96692 17.297C8.09582 17.2814 8.14856 17.1251 8.05871 17.0333L6.99035 15.9649L9.99035 12.9649C10.0509 12.9044 10.0509 12.8048 9.99035 12.7442L9.10754 11.8653Z" fill="white"/>
</svg>
