<svg width="25" height="27" viewBox="0 0 25 27" fill="none" xmlns="http://www.w3.org/2000/svg">
<g clip-path="url(#clip0_228_369)">
<g filter="url(#filter0_d_228_369)">
<path d="M9.1248 11.5213C9.3627 11.5213 9.59086 11.4238 9.75908 11.2503C9.9273 11.0767 10.0218 10.8413 10.0218 10.5959C10.0218 10.3504 9.9273 10.115 9.75908 9.94145C9.59086 9.76789 9.3627 9.67039 9.1248 9.67039C8.88691 9.67039 8.65875 9.76789 8.49053 9.94145C8.32231 10.115 8.2278 10.3504 8.2278 10.5959C8.2278 10.8413 8.32231 11.0767 8.49053 11.2503C8.65875 11.4238 8.88691 11.5213 9.1248 11.5213ZM13.5924 13.0727C13.5924 13.3181 13.4979 13.5535 13.3297 13.7271C13.1615 13.9006 12.9333 13.9981 12.6954 13.9981C12.4575 13.9981 12.2294 13.9006 12.0611 13.7271C11.8929 13.5535 11.7984 13.3181 11.7984 13.0727C11.7984 12.8272 11.8929 12.5918 12.0611 12.4183C12.2294 12.2447 12.4575 12.1472 12.6954 12.1472C12.9333 12.1472 13.1615 12.2447 13.3297 12.4183C13.4979 12.5918 13.5924 12.8272 13.5924 13.0727ZM9.12961 17.1002C9.36862 17.1002 9.59784 17.0022 9.76685 16.8279C9.93586 16.6535 10.0308 16.417 10.0308 16.1704C10.0308 15.9238 9.93586 15.6873 9.76685 15.5129C9.59784 15.3385 9.36862 15.2406 9.12961 15.2406C8.89059 15.2406 8.66137 15.3385 8.49236 15.5129C8.32335 15.6873 8.2284 15.9238 8.2284 16.1704C8.2284 16.417 8.32335 16.6535 8.49236 16.8279C8.66137 17.0022 8.89059 17.1002 9.12961 17.1002ZM4.9248 5.27391C4.9248 3.9182 5.99881 2.77048 7.36081 2.85715C12.6972 3.19515 17.3772 5.04858 21.0432 8.6601C22.0836 9.68401 21.8784 11.3567 20.7996 12.211C19.1209 13.5481 17.4308 14.87 15.7296 16.1766V18.3309C15.7296 19.2186 15.0636 20.188 13.9296 20.188C13.7265 20.1884 13.5247 20.155 13.332 20.089V20.1917C13.332 21.0745 12.6648 22.0377 11.5284 22.0377C10.6236 22.0377 10.0272 21.4224 9.8172 20.7377C9.1596 21.2453 8.4408 21.7975 7.7988 22.2903C6.6108 23.2028 4.9248 22.3274 4.9248 20.8033V5.27391ZM13.3308 18.3309C13.3308 18.6515 13.5648 18.9499 13.9296 18.9499C14.2956 18.9499 14.5296 18.6503 14.5296 18.3309V15.8621C14.5297 15.7645 14.5521 15.6684 14.5951 15.5814C14.638 15.4945 14.7003 15.4193 14.7768 15.3619C15.7128 14.6611 17.3064 13.4119 18.7176 12.2989C15.486 9.12439 10.956 7.24124 6.1248 7.20286V20.8033C6.12514 20.9179 6.15626 21.0301 6.21472 21.1275C6.27318 21.2248 6.35669 21.3036 6.45594 21.3549C6.55519 21.4062 6.66629 21.4281 6.7769 21.4182C6.8875 21.4083 6.99326 21.3668 7.0824 21.2986C8.0256 20.5731 9.138 19.7188 9.9732 19.0725C10.0623 19.0035 10.1683 18.9615 10.2793 18.9512C10.3903 18.9408 10.5019 18.9626 10.6015 19.014C10.7012 19.0654 10.785 19.1445 10.8436 19.2423C10.9022 19.3401 10.9332 19.4528 10.9332 19.5677V20.1917C10.9332 20.4963 11.1612 20.8009 11.5284 20.8009C11.607 20.8029 11.6852 20.7885 11.7584 20.7588C11.8316 20.729 11.8982 20.6844 11.9544 20.6277C12.0106 20.5709 12.0551 20.503 12.0854 20.4281C12.1157 20.3533 12.1311 20.2729 12.1308 20.1917V18.3309C12.1308 18.1667 12.194 18.0092 12.3065 17.8931C12.4191 17.777 12.5717 17.7118 12.7308 17.7118C12.8899 17.7118 13.0425 17.777 13.1551 17.8931C13.2676 18.0092 13.3308 18.1667 13.3308 18.3309ZM20.0676 11.2304C20.6256 10.7884 20.6676 10.001 20.214 9.55401C16.7856 6.17772 12.39 4.41591 7.2876 4.09153C6.6648 4.05191 6.1248 4.57934 6.1248 5.27391V5.96477C11.3172 6.00562 16.2072 8.05343 19.6812 11.5362L20.0676 11.2304Z" fill="#F9FC02"/>
</g>
</g>
<defs>
<filter id="filter0_d_228_369" x="4.9248" y="2.85254" width="16.8003" height="23.8088" filterUnits="userSpaceOnUse" color-interpolation-filters="sRGB">
<feFlood flood-opacity="0" result="BackgroundImageFix"/>
<feColorMatrix in="SourceAlpha" type="matrix" values="0 0 0 0 0 0 0 0 0 0 0 0 0 0 0 0 0 0 127 0" result="hardAlpha"/>
<feOffset dy="4"/>
<feComposite in2="hardAlpha" operator="out"/>
<feColorMatrix type="matrix" values="0 0 0 0 0 0 0 0 0 0 0 0 0 0 0 0 0 0 0.32 0"/>
<feBlend mode="normal" in2="BackgroundImageFix" result="effect1_dropShadow_228_369"/>
<feBlend mode="normal" in="SourceGraphic" in2="effect1_dropShadow_228_369" result="shape"/>
</filter>
<clipPath id="clip0_228_369">
<rect width="24" height="26" fill="white" transform="translate(0.125 0.371094)"/>
</clipPath>
</defs>
</svg>
