<svg width="29" height="29" viewBox="0 0 29 29" fill="none" xmlns="http://www.w3.org/2000/svg">
<rect x="0.151123" y="0.831055" width="28.0464" height="28.0464" rx="14.0232" fill="#1EC160"/>
<g clip-path="url(#clip0_228_453)">
<path d="M13.2523 9.32963C13.3097 8.50381 14.0932 7.86523 14.9375 8.07544L15.1681 8.13373C15.577 8.23619 15.94 8.53649 16.0619 8.98605C16.2562 9.70678 16.5327 11.2039 16.1167 12.9695C16.2467 12.9515 16.3772 12.9365 16.5079 12.9244C17.1377 12.867 17.9821 12.8608 18.7302 13.1099C19.1877 13.2627 19.6081 13.7114 19.79 14.2342C19.9526 14.7041 19.9314 15.2606 19.5834 15.7649C19.6346 15.87 19.6743 15.9786 19.7053 16.0855C19.7733 16.324 19.8051 16.5863 19.8051 16.8416C19.8051 17.0968 19.7733 17.3591 19.7053 17.5976C19.6708 17.7169 19.6258 17.8387 19.5639 17.9544C19.7132 18.2963 19.6584 18.6778 19.5613 18.9684C19.4618 19.2553 19.3162 19.5241 19.1303 19.7642C19.178 19.8984 19.1974 20.0398 19.1974 20.1749C19.1974 20.4443 19.1188 20.7269 18.9739 20.9804C18.6789 21.498 18.0933 21.9202 17.2658 21.9202H14.1744C13.6401 21.9202 13.2294 21.8486 12.8796 21.7276C12.5789 21.6178 12.2915 21.4744 12.0229 21.3001L11.9805 21.2736C11.5353 21.0025 11.0981 20.7358 10.1539 20.6359C9.47737 20.5635 8.875 20.0177 8.875 19.2705V15.7375C8.875 14.9868 9.48002 14.4727 10.0736 14.3111C10.8234 14.1062 11.4638 13.616 11.9566 13.0657C12.4512 12.5119 12.7639 11.9352 12.8743 11.6181C13.0501 11.1102 13.1887 10.2588 13.2523 9.33052V9.32963Z" fill="white"/>
</g>
<defs>
<clipPath id="clip0_228_453">
<rect width="14.1318" height="14.1318" fill="white" transform="translate(7.10864 7.78833)"/>
</clipPath>
</defs>
</svg>
