<svg width="100" height="41" viewBox="0 0 100 41" fill="none" xmlns="http://www.w3.org/2000/svg">
<rect x="2.95813" y="2.4624" width="94.8649" height="35.6244" rx="14" fill="#C4C4C4"/>
<g filter="url(#filter0_i_40_246)">
<rect x="2.95813" y="2.4624" width="94.8649" height="35.6244" rx="8" fill="#369D0C"/>
</g>
<rect x="1.95813" y="1.4624" width="96.8649" height="37.6244" rx="9" stroke="#5A616A" stroke-width="2"/>
<rect x="5.33667" y="4.9646" width="90.1079" height="13.5107" rx="6.75536" fill="#54C526"/>
<ellipse cx="14.5952" cy="11.2084" rx="5.31631" ry="3.32273" transform="rotate(-1.72068 14.5952 11.2084)" fill="#F7FDFA"/>
<ellipse cx="24.284" cy="7.72757" rx="2.33124" ry="1.45704" transform="rotate(-1.72068 24.284 7.72757)" fill="#F7FDFA"/>
<path d="M20.0216 15.7434V24.2747H18.2697V15.7434H20.0216ZM28.6115 15.7434V24.2747H26.8536L23.4259 18.5559V24.2747H21.6681V15.7434H23.4259L26.8595 21.468V15.7434H28.6115ZM33.2169 22.4934L35.2267 15.7434H37.1837L34.213 24.2747H32.924L33.2169 22.4934ZM31.3654 15.7434L33.3693 22.4934L33.674 24.2747H32.3732L29.42 15.7434H31.3654ZM43.7052 22.9036V24.2747H39.1642V22.9036H43.7052ZM39.7384 15.7434V24.2747H37.9806V15.7434H39.7384ZM43.1134 19.218V20.554H39.1642V19.218H43.1134ZM43.6993 15.7434V17.1204H39.1642V15.7434H43.6993ZM51.674 15.7434V24.2747H49.9161L46.4884 18.5559V24.2747H44.7306V15.7434H46.4884L49.922 21.468V15.7434H51.674ZM56.8419 15.7434V24.2747H55.09V15.7434H56.8419ZM59.4669 15.7434V17.1204H52.506V15.7434H59.4669ZM67.3126 19.8098V20.2141C67.3126 20.8625 67.2247 21.4446 67.049 21.9602C66.8732 22.4758 66.6251 22.9153 66.3048 23.2786C65.9845 23.6379 65.6017 23.9133 65.1564 24.1047C64.715 24.2961 64.2247 24.3918 63.6857 24.3918C63.1505 24.3918 62.6603 24.2961 62.215 24.1047C61.7736 23.9133 61.3907 23.6379 61.0665 23.2786C60.7423 22.9153 60.4904 22.4758 60.3107 21.9602C60.1349 21.4446 60.047 20.8625 60.047 20.2141V19.8098C60.047 19.1575 60.1349 18.5754 60.3107 18.0637C60.4865 17.5481 60.7345 17.1086 61.0548 16.7454C61.379 16.3821 61.7618 16.1047 62.2032 15.9133C62.6486 15.7219 63.1388 15.6262 63.674 15.6262C64.213 15.6262 64.7032 15.7219 65.1447 15.9133C65.59 16.1047 65.9728 16.3821 66.2931 16.7454C66.6173 17.1086 66.8673 17.5481 67.0431 18.0637C67.2228 18.5754 67.3126 19.1575 67.3126 19.8098ZM65.5372 20.2141V19.7981C65.5372 19.345 65.4962 18.9465 65.4142 18.6028C65.3322 18.259 65.2111 17.97 65.0509 17.7356C64.8907 17.5012 64.6954 17.3254 64.465 17.2083C64.2345 17.0872 63.9708 17.0266 63.674 17.0266C63.3771 17.0266 63.1134 17.0872 62.8829 17.2083C62.6564 17.3254 62.463 17.5012 62.3029 17.7356C62.1466 17.97 62.0275 18.259 61.9454 18.6028C61.8634 18.9465 61.8224 19.345 61.8224 19.7981V20.2141C61.8224 20.6633 61.8634 21.0618 61.9454 21.4094C62.0275 21.7532 62.1486 22.0442 62.3087 22.2825C62.4689 22.5168 62.6642 22.6946 62.8947 22.8157C63.1251 22.9368 63.3888 22.9973 63.6857 22.9973C63.9825 22.9973 64.2462 22.9368 64.4767 22.8157C64.7072 22.6946 64.9005 22.5168 65.0568 22.2825C65.213 22.0442 65.3322 21.7532 65.4142 21.4094C65.4962 21.0618 65.5372 20.6633 65.5372 20.2141ZM68.5782 15.7434H71.7599C72.4122 15.7434 72.9728 15.8411 73.4415 16.0364C73.9142 16.2317 74.2775 16.5208 74.5314 16.9036C74.7853 17.2864 74.9122 17.7571 74.9122 18.3157C74.9122 18.7727 74.8341 19.1653 74.6779 19.4934C74.5255 19.8176 74.3087 20.0891 74.0275 20.3079C73.7501 20.5227 73.424 20.6946 73.049 20.8235L72.4923 21.1165H69.7267L69.715 19.7454H71.7716C72.0802 19.7454 72.3361 19.6907 72.5392 19.5813C72.7423 19.4719 72.8947 19.3196 72.9962 19.1243C73.1017 18.929 73.1544 18.7024 73.1544 18.4446C73.1544 18.1711 73.1036 17.9348 73.0021 17.7356C72.9005 17.5364 72.7462 17.384 72.5392 17.2786C72.3322 17.1731 72.0724 17.1204 71.7599 17.1204H70.3361V24.2747H68.5782V15.7434ZM73.3478 24.2747L71.4025 20.4719L73.2599 20.4602L75.2286 24.1926V24.2747H73.3478ZM77.1564 15.7434L78.9376 19.634L80.7189 15.7434H82.6349L79.8282 21.1692V24.2747H78.047V21.1692L75.2345 15.7434H77.1564Z" fill="white"/>
<defs>
<filter id="filter0_i_40_246" x="0.95813" y="0.462402" width="98.8649" height="39.6245" filterUnits="userSpaceOnUse" color-interpolation-filters="sRGB">
<feFlood flood-opacity="0" result="BackgroundImageFix"/>
<feBlend mode="normal" in="SourceGraphic" in2="BackgroundImageFix" result="shape"/>
<feColorMatrix in="SourceAlpha" type="matrix" values="0 0 0 0 0 0 0 0 0 0 0 0 0 0 0 0 0 0 127 0" result="hardAlpha"/>
<feOffset dy="-10"/>
<feComposite in2="hardAlpha" operator="arithmetic" k2="-1" k3="1"/>
<feColorMatrix type="matrix" values="0 0 0 0 0 0 0 0 0 0 0 0 0 0 0 0 0 0 0.25 0"/>
<feBlend mode="normal" in2="shape" result="effect1_innerShadow_40_246"/>
</filter>
</defs>
</svg>
