<svg width="112" height="33" viewBox="0 0 112 33" fill="none" xmlns="http://www.w3.org/2000/svg">
<rect x="2.73059" y="2.35059" width="106.648" height="27.6793" rx="13.8397" fill="#C4C4C4"/>
<g filter="url(#filter0_i_163_893)">
<rect x="2.73059" y="2.35059" width="106.648" height="27.6793" rx="8" fill="#F00001"/>
</g>
<rect x="1.73059" y="1.35059" width="108.648" height="29.6793" rx="9" stroke="#5A616A" stroke-width="2"/>
<rect x="5.40442" y="4.29456" width="101.3" height="10.4975" rx="5.24875" fill="#FE696B"/>
<ellipse rx="5.97525" ry="2.58295" transform="matrix(0.999785 -0.0207575 0.043425 0.999057 15.8133 9.14606)" fill="#F7FDFA"/>
<ellipse rx="2.62019" ry="1.13265" transform="matrix(0.999785 -0.0207575 0.043425 0.999057 26.7052 6.44157)" fill="#F7FDFA"/>
<path d="M26.2393 18.662V19.6903H23.0181V18.662H26.2393ZM23.4443 13.2919V19.6903H22.126V13.2919H23.4443ZM29.4824 18.618V16.4999C29.4824 16.3475 29.4575 16.2172 29.4077 16.1088C29.3579 15.9974 29.2803 15.911 29.1748 15.8495C29.0723 15.788 28.939 15.7572 28.7749 15.7572C28.6343 15.7572 28.5127 15.7821 28.4102 15.8319C28.3076 15.8788 28.2285 15.9476 28.1729 16.0385C28.1172 16.1263 28.0894 16.2303 28.0894 16.3505H26.8237C26.8237 16.1483 26.8706 15.9564 26.9644 15.7748C27.0581 15.5931 27.1943 15.4335 27.373 15.2958C27.5518 15.1552 27.7642 15.0453 28.0103 14.9662C28.2593 14.8871 28.5376 14.8475 28.8452 14.8475C29.2144 14.8475 29.5425 14.9091 29.8296 15.0321C30.1167 15.1552 30.3423 15.3397 30.5063 15.5858C30.6733 15.8319 30.7568 16.1395 30.7568 16.5087V18.5433C30.7568 18.8041 30.7729 19.0179 30.8052 19.1849C30.8374 19.349 30.8843 19.4926 30.9458 19.6156V19.6903H29.667C29.6055 19.5614 29.5586 19.4003 29.5264 19.2069C29.4971 19.0106 29.4824 18.8143 29.4824 18.618ZM29.6494 16.7943L29.6582 17.5106H28.9507C28.7837 17.5106 28.6387 17.5297 28.5156 17.5677C28.3926 17.6058 28.2915 17.66 28.2124 17.7303C28.1333 17.7977 28.0747 17.8768 28.0366 17.9677C28.0015 18.0585 27.9839 18.1581 27.9839 18.2665C27.9839 18.3749 28.0088 18.473 28.0586 18.5609C28.1084 18.6459 28.1802 18.7133 28.2739 18.7631C28.3677 18.8099 28.4775 18.8334 28.6035 18.8334C28.7939 18.8334 28.9595 18.7953 29.1001 18.7191C29.2407 18.6429 29.3491 18.5492 29.4253 18.4379C29.5044 18.3265 29.5454 18.2211 29.5483 18.1215L29.8823 18.6576C29.8354 18.7777 29.771 18.9022 29.689 19.0311C29.6099 19.16 29.5088 19.2816 29.3857 19.3959C29.2627 19.5072 29.1147 19.5995 28.9419 19.6727C28.769 19.743 28.564 19.7782 28.3267 19.7782C28.0249 19.7782 27.751 19.7181 27.5049 19.598C27.2617 19.475 27.0684 19.3065 26.9248 19.0927C26.7842 18.8759 26.7139 18.6298 26.7139 18.3544C26.7139 18.1053 26.7607 17.8842 26.8545 17.6908C26.9482 17.4974 27.0859 17.3348 27.2676 17.203C27.4521 17.0682 27.6821 16.9672 27.9575 16.8998C28.2329 16.8295 28.5522 16.7943 28.9155 16.7943H29.6494ZM34.5449 18.5521V14.9354H35.8105V19.6903H34.6196L34.5449 18.5521ZM34.6855 17.5765L35.0591 17.5677C35.0591 17.8842 35.0225 18.1786 34.9492 18.451C34.876 18.7206 34.7661 18.955 34.6196 19.1542C34.4731 19.3505 34.2886 19.5043 34.0659 19.6156C33.8433 19.724 33.5811 19.7782 33.2793 19.7782C33.0479 19.7782 32.834 19.746 32.6377 19.6815C32.4443 19.6141 32.2773 19.5101 32.1367 19.3695C31.999 19.226 31.8906 19.0428 31.8115 18.8202C31.7354 18.5946 31.6973 18.3236 31.6973 18.0072V14.9354H32.9629V18.016C32.9629 18.1566 32.979 18.2753 33.0112 18.3719C33.0464 18.4686 33.0947 18.5477 33.1562 18.6093C33.2178 18.6708 33.2896 18.7147 33.3716 18.7411C33.4565 18.7675 33.5503 18.7806 33.6528 18.7806C33.9136 18.7806 34.1187 18.7279 34.2681 18.6224C34.4204 18.517 34.5273 18.3734 34.5889 18.1918C34.6533 18.0072 34.6855 17.8021 34.6855 17.5765ZM38.0166 15.9506V19.6903H36.751V14.9354H37.9375L38.0166 15.9506ZM37.832 17.1459H37.4893C37.4893 16.7943 37.5347 16.4779 37.6255 16.1967C37.7163 15.9125 37.8438 15.6708 38.0078 15.4716C38.1719 15.2694 38.3667 15.1156 38.5923 15.0101C38.8208 14.9017 39.0757 14.8475 39.3569 14.8475C39.5796 14.8475 39.7832 14.8798 39.9678 14.9442C40.1523 15.0087 40.3105 15.1112 40.4424 15.2518C40.5771 15.3925 40.6797 15.5785 40.75 15.8099C40.8232 16.0414 40.8599 16.3241 40.8599 16.6581V19.6903H39.5854V16.6537C39.5854 16.4427 39.5562 16.2787 39.4976 16.1615C39.439 16.0443 39.3525 15.9623 39.2383 15.9154C39.127 15.8656 38.9893 15.8407 38.8252 15.8407C38.6553 15.8407 38.5073 15.8744 38.3813 15.9418C38.2583 16.0092 38.1558 16.1029 38.0737 16.223C37.9946 16.3402 37.9346 16.4779 37.8936 16.6361C37.8525 16.7943 37.832 16.9642 37.832 17.1459ZM43.7866 18.7894C43.9419 18.7894 44.0796 18.7601 44.1997 18.7015C44.3198 18.64 44.4136 18.5551 44.481 18.4467C44.5513 18.3353 44.5879 18.205 44.5908 18.0555H45.7817C45.7788 18.3895 45.6895 18.6869 45.5137 18.9476C45.3379 19.2054 45.1021 19.4091 44.8062 19.5585C44.5103 19.705 44.1792 19.7782 43.813 19.7782C43.4438 19.7782 43.1216 19.7167 42.8462 19.5936C42.5737 19.4706 42.3467 19.3007 42.165 19.0839C41.9834 18.8641 41.8472 18.6093 41.7563 18.3192C41.6655 18.0262 41.6201 17.7128 41.6201 17.3788V17.2513C41.6201 16.9144 41.6655 16.601 41.7563 16.3109C41.8472 16.0179 41.9834 15.7631 42.165 15.5463C42.3467 15.3265 42.5737 15.1552 42.8462 15.0321C43.1187 14.9091 43.438 14.8475 43.8042 14.8475C44.1938 14.8475 44.5352 14.9222 44.8281 15.0717C45.124 15.2211 45.3555 15.4349 45.5225 15.7133C45.6924 15.9886 45.7788 16.3153 45.7817 16.6932H44.5908C44.5879 16.535 44.5542 16.3915 44.4897 16.2626C44.4282 16.1337 44.3374 16.0311 44.2173 15.955C44.1001 15.8759 43.9551 15.8363 43.7822 15.8363C43.5977 15.8363 43.4468 15.8759 43.3296 15.955C43.2124 16.0311 43.1216 16.1366 43.0571 16.2714C42.9927 16.4032 42.9473 16.5541 42.9209 16.724C42.8975 16.891 42.8857 17.0668 42.8857 17.2513V17.3788C42.8857 17.5634 42.8975 17.7406 42.9209 17.9105C42.9443 18.0804 42.9883 18.2313 43.0527 18.3632C43.1201 18.495 43.2124 18.599 43.3296 18.6752C43.4468 18.7513 43.5991 18.7894 43.7866 18.7894ZM47.7505 12.9403V19.6903H46.4849V12.9403H47.7505ZM47.5703 17.1459H47.2231C47.2261 16.8148 47.27 16.5101 47.355 16.2318C47.4399 15.9506 47.5615 15.7074 47.7197 15.5023C47.8779 15.2943 48.0669 15.1332 48.2866 15.0189C48.5093 14.9047 48.7554 14.8475 49.0249 14.8475C49.2593 14.8475 49.4717 14.8812 49.6621 14.9486C49.8555 15.0131 50.021 15.1185 50.1587 15.265C50.2993 15.4086 50.4077 15.5975 50.4839 15.8319C50.5601 16.0663 50.5981 16.3505 50.5981 16.6844V19.6903H49.3237V16.6757C49.3237 16.4647 49.293 16.2992 49.2314 16.1791C49.1729 16.056 49.0864 15.9696 48.9722 15.9198C48.8608 15.8671 48.7231 15.8407 48.5591 15.8407C48.3774 15.8407 48.2222 15.8744 48.0933 15.9418C47.9673 16.0092 47.8662 16.1029 47.79 16.223C47.7139 16.3402 47.6582 16.4779 47.623 16.6361C47.5879 16.7943 47.5703 16.9642 47.5703 17.1459ZM56.4824 14.3861L54.7422 19.6903H53.3403L55.7178 13.2919H56.6099L56.4824 14.3861ZM57.9282 19.6903L56.1836 14.3861L56.043 13.2919H56.9438L59.3345 19.6903H57.9282ZM57.8491 17.3085V18.3412H54.4697V17.3085H57.8491ZM62.0986 14.9354V15.8319H59.3301V14.9354H62.0986ZM60.0156 13.7621H61.2812V18.2577C61.2812 18.3954 61.2988 18.5009 61.334 18.5741C61.3721 18.6473 61.4277 18.6986 61.501 18.7279C61.5742 18.7543 61.6665 18.7675 61.7778 18.7675C61.8569 18.7675 61.9272 18.7645 61.9888 18.7587C62.0532 18.7499 62.1074 18.7411 62.1514 18.7323L62.1558 19.6639C62.0474 19.6991 61.9302 19.7269 61.8042 19.7474C61.6782 19.7679 61.5391 19.7782 61.3867 19.7782C61.1084 19.7782 60.8652 19.7328 60.6572 19.642C60.4521 19.5482 60.2939 19.3988 60.1826 19.1937C60.0713 18.9886 60.0156 18.7191 60.0156 18.3851V13.7621ZM65.1484 14.9354V15.8319H62.3799V14.9354H65.1484ZM63.0654 13.7621H64.3311V18.2577C64.3311 18.3954 64.3486 18.5009 64.3838 18.5741C64.4219 18.6473 64.4775 18.6986 64.5508 18.7279C64.624 18.7543 64.7163 18.7675 64.8276 18.7675C64.9067 18.7675 64.9771 18.7645 65.0386 18.7587C65.103 18.7499 65.1572 18.7411 65.2012 18.7323L65.2056 19.6639C65.0972 19.6991 64.98 19.7269 64.854 19.7474C64.728 19.7679 64.5889 19.7782 64.4365 19.7782C64.1582 19.7782 63.915 19.7328 63.707 19.642C63.502 19.5482 63.3438 19.3988 63.2324 19.1937C63.1211 18.9886 63.0654 18.7191 63.0654 18.3851V13.7621ZM68.4355 18.618V16.4999C68.4355 16.3475 68.4106 16.2172 68.3608 16.1088C68.311 15.9974 68.2334 15.911 68.1279 15.8495C68.0254 15.788 67.8921 15.7572 67.728 15.7572C67.5874 15.7572 67.4658 15.7821 67.3633 15.8319C67.2607 15.8788 67.1816 15.9476 67.126 16.0385C67.0703 16.1263 67.0425 16.2303 67.0425 16.3505H65.7769C65.7769 16.1483 65.8237 15.9564 65.9175 15.7748C66.0112 15.5931 66.1475 15.4335 66.3262 15.2958C66.5049 15.1552 66.7173 15.0453 66.9634 14.9662C67.2124 14.8871 67.4907 14.8475 67.7983 14.8475C68.1675 14.8475 68.4956 14.9091 68.7827 15.0321C69.0698 15.1552 69.2954 15.3397 69.4595 15.5858C69.6265 15.8319 69.71 16.1395 69.71 16.5087V18.5433C69.71 18.8041 69.7261 19.0179 69.7583 19.1849C69.7905 19.349 69.8374 19.4926 69.8989 19.6156V19.6903H68.6201C68.5586 19.5614 68.5117 19.4003 68.4795 19.2069C68.4502 19.0106 68.4355 18.8143 68.4355 18.618ZM68.6025 16.7943L68.6113 17.5106H67.9038C67.7368 17.5106 67.5918 17.5297 67.4688 17.5677C67.3457 17.6058 67.2446 17.66 67.1655 17.7303C67.0864 17.7977 67.0278 17.8768 66.9897 17.9677C66.9546 18.0585 66.937 18.1581 66.937 18.2665C66.937 18.3749 66.9619 18.473 67.0117 18.5609C67.0615 18.6459 67.1333 18.7133 67.2271 18.7631C67.3208 18.8099 67.4307 18.8334 67.5566 18.8334C67.7471 18.8334 67.9126 18.7953 68.0532 18.7191C68.1938 18.6429 68.3022 18.5492 68.3784 18.4379C68.4575 18.3265 68.4985 18.2211 68.5015 18.1215L68.8354 18.6576C68.7886 18.7777 68.7241 18.9022 68.6421 19.0311C68.563 19.16 68.4619 19.2816 68.3389 19.3959C68.2158 19.5072 68.0679 19.5995 67.895 19.6727C67.7222 19.743 67.5171 19.7782 67.2798 19.7782C66.978 19.7782 66.7041 19.7181 66.458 19.598C66.2148 19.475 66.0215 19.3065 65.8779 19.0927C65.7373 18.8759 65.667 18.6298 65.667 18.3544C65.667 18.1053 65.7139 17.8842 65.8076 17.6908C65.9014 17.4974 66.0391 17.3348 66.2207 17.203C66.4053 17.0682 66.6353 16.9672 66.9106 16.8998C67.186 16.8295 67.5054 16.7943 67.8687 16.7943H68.6025ZM72.6499 18.7894C72.8052 18.7894 72.9429 18.7601 73.063 18.7015C73.1831 18.64 73.2769 18.5551 73.3442 18.4467C73.4146 18.3353 73.4512 18.205 73.4541 18.0555H74.645C74.6421 18.3895 74.5527 18.6869 74.377 18.9476C74.2012 19.2054 73.9653 19.4091 73.6694 19.5585C73.3735 19.705 73.0425 19.7782 72.6763 19.7782C72.3071 19.7782 71.9849 19.7167 71.7095 19.5936C71.437 19.4706 71.21 19.3007 71.0283 19.0839C70.8467 18.8641 70.7104 18.6093 70.6196 18.3192C70.5288 18.0262 70.4834 17.7128 70.4834 17.3788V17.2513C70.4834 16.9144 70.5288 16.601 70.6196 16.3109C70.7104 16.0179 70.8467 15.7631 71.0283 15.5463C71.21 15.3265 71.437 15.1552 71.7095 15.0321C71.9819 14.9091 72.3013 14.8475 72.6675 14.8475C73.0571 14.8475 73.3984 14.9222 73.6914 15.0717C73.9873 15.2211 74.2188 15.4349 74.3857 15.7133C74.5557 15.9886 74.6421 16.3153 74.645 16.6932H73.4541C73.4512 16.535 73.4175 16.3915 73.353 16.2626C73.2915 16.1337 73.2007 16.0311 73.0806 15.955C72.9634 15.8759 72.8184 15.8363 72.6455 15.8363C72.4609 15.8363 72.3101 15.8759 72.1929 15.955C72.0757 16.0311 71.9849 16.1366 71.9204 16.2714C71.856 16.4032 71.8105 16.5541 71.7842 16.724C71.7607 16.891 71.749 17.0668 71.749 17.2513V17.3788C71.749 17.5634 71.7607 17.7406 71.7842 17.9105C71.8076 18.0804 71.8516 18.2313 71.916 18.3632C71.9834 18.495 72.0757 18.599 72.1929 18.6752C72.3101 18.7513 72.4624 18.7894 72.6499 18.7894ZM76.6445 12.9359V19.6903H75.3789V12.9359H76.6445ZM79.6416 14.9354L77.5762 17.2909L76.4688 18.4115L76.0073 17.4974L76.8862 16.3812L78.1211 14.9354H79.6416ZM78.3276 19.6903L76.9214 17.493L77.7959 16.7284L79.7866 19.6903H78.3276Z" fill="white"/>
<defs>
<filter id="filter0_i_163_893" x="0.730591" y="0.350586" width="110.648" height="31.6793" filterUnits="userSpaceOnUse" color-interpolation-filters="sRGB">
<feFlood flood-opacity="0" result="BackgroundImageFix"/>
<feBlend mode="normal" in="SourceGraphic" in2="BackgroundImageFix" result="shape"/>
<feColorMatrix in="SourceAlpha" type="matrix" values="0 0 0 0 0 0 0 0 0 0 0 0 0 0 0 0 0 0 127 0" result="hardAlpha"/>
<feOffset dy="-10"/>
<feComposite in2="hardAlpha" operator="arithmetic" k2="-1" k3="1"/>
<feColorMatrix type="matrix" values="0 0 0 0 0 0 0 0 0 0 0 0 0 0 0 0 0 0 0.25 0"/>
<feBlend mode="normal" in2="shape" result="effect1_innerShadow_163_893"/>
</filter>
</defs>
</svg>
