<svg width="25" height="34" viewBox="0 0 25 34" fill="none" xmlns="http://www.w3.org/2000/svg">
<mask id="path-1-inside-1_163_5652" fill="white">
<path fill-rule="evenodd" clip-rule="evenodd" d="M0.583008 0.321289C0.306865 0.321289 0.0830078 0.545148 0.0830078 0.82129V23.9069C0.0830078 24.0683 0.159454 24.2118 0.278107 24.3033C0.253488 24.471 0.311353 24.6519 0.475526 24.7738L12.1737 33.4615C12.3507 33.593 12.5929 33.593 12.7699 33.4615L24.4681 24.7738C24.6324 24.6518 24.6902 24.4708 24.6655 24.303C24.784 24.2116 24.8603 24.0682 24.8603 23.9069V0.821289C24.8603 0.545147 24.6364 0.321289 24.3603 0.321289H0.583008Z"/>
</mask>
<path fill-rule="evenodd" clip-rule="evenodd" d="M0.583008 0.321289C0.306865 0.321289 0.0830078 0.545148 0.0830078 0.82129V23.9069C0.0830078 24.0683 0.159454 24.2118 0.278107 24.3033C0.253488 24.471 0.311353 24.6519 0.475526 24.7738L12.1737 33.4615C12.3507 33.593 12.5929 33.593 12.7699 33.4615L24.4681 24.7738C24.6324 24.6518 24.6902 24.4708 24.6655 24.303C24.784 24.2116 24.8603 24.0682 24.8603 23.9069V0.821289C24.8603 0.545147 24.6364 0.321289 24.3603 0.321289H0.583008Z" fill="#313B47"/>
<path d="M0.278107 24.3033L1.26751 24.4484L1.35258 23.8687L0.888444 23.5111L0.278107 24.3033ZM0.475526 24.7738L1.07175 23.971H1.07174L0.475526 24.7738ZM12.1737 33.4615L11.5775 34.2643L11.5775 34.2643L12.1737 33.4615ZM12.7699 33.4615L13.3662 34.2643L13.3662 34.2643L12.7699 33.4615ZM24.4681 24.7738L23.8719 23.971L24.4681 24.7738ZM24.6655 24.303L24.0545 23.5114L23.5909 23.8693L23.6762 24.4487L24.6655 24.303ZM1.08301 0.82129C1.08301 1.09743 0.859153 1.32129 0.583008 1.32129V-0.678711C-0.245422 -0.678711 -0.916992 -0.00713426 -0.916992 0.82129H1.08301ZM1.08301 23.9069V0.82129H-0.916992V23.9069H1.08301ZM0.888444 23.5111C1.00492 23.6009 1.08301 23.745 1.08301 23.9069H-0.916992C-0.916992 24.3916 -0.686016 24.8228 -0.332229 25.0954L0.888444 23.5111ZM1.07174 23.971C1.13912 24.021 1.20017 24.0967 1.23707 24.1908C1.27246 24.2812 1.27892 24.3707 1.26751 24.4484L-0.711297 24.1581C-0.784867 24.6594 -0.604563 25.2173 -0.120692 25.5766L1.07174 23.971ZM12.7699 32.6587L1.07175 23.971L-0.120693 25.5766L11.5775 34.2643L12.7699 32.6587ZM12.1737 32.6587C12.3507 32.5272 12.5929 32.5272 12.7699 32.6587L11.5775 34.2643C12.1085 34.6587 12.8351 34.6587 13.3662 34.2643L12.1737 32.6587ZM23.8719 23.971L12.1737 32.6587L13.3662 34.2643L25.0644 25.5766L23.8719 23.971ZM23.6762 24.4487C23.6647 24.371 23.6712 24.2813 23.7065 24.191C23.7434 24.0968 23.8045 24.0211 23.8719 23.971L25.0644 25.5766C25.5485 25.2171 25.7287 24.6588 25.6548 24.1573L23.6762 24.4487ZM23.8603 23.9069C23.8603 23.7452 23.9382 23.6011 24.0545 23.5114L25.2765 25.0946C25.6297 24.822 25.8603 24.3912 25.8603 23.9069H23.8603ZM23.8603 0.821289V23.9069H25.8603V0.821289H23.8603ZM24.3603 1.32129C24.0841 1.32129 23.8603 1.09743 23.8603 0.821289H25.8603C25.8603 -0.00713336 25.1887 -0.678711 24.3603 -0.678711V1.32129ZM0.583008 1.32129H24.3603V-0.678711H0.583008V1.32129Z" fill="#5A616A" mask="url(#path-1-inside-1_163_5652)"/>
<g clip-path="url(#clip0_163_5652)">
<path d="M15.308 10.7515L12.4698 9.18193L9.63098 10.7503L10.1737 7.42736L7.87772 5.07341L11.0513 4.58924L12.4712 1.56606L13.8899 4.58987L17.0633 5.07536L14.7665 7.42828L15.308 10.7515Z" fill="#FFCC00"/>
<path d="M13.8994 4.57068C12.4621 6.62773 12.4465 6.65011 12.4465 6.65011L17.0536 5.06395L13.8994 4.57068Z" fill="#FFE680"/>
<path d="M12.4703 6.60583V9.18863L9.60278 10.7359L12.4703 6.60583Z" fill="#FFDD55"/>
<path d="M12.4702 6.60583L15.2896 10.6572L14.7604 7.37617L12.4702 6.60583Z" fill="#FFDD55"/>
<path d="M7.89648 5.06735L12.4706 6.60592L11.0573 4.57507L7.89648 5.06735Z" fill="#FFE680"/>
<path d="M12.4702 6.60587V1.57275L13.881 4.57398L12.4702 6.60587Z" fill="#FFDD55"/>
<path d="M9.63208 10.6942L10.1647 7.38547L12.4706 6.60583L9.63208 10.6942Z" fill="#FFD42A"/>
</g>
<path d="M0.881592 23.783V19.6764L12.965 25.0254L24.0619 19.6764V23.783L12.965 29.3046L0.881592 23.783Z" fill="url(#paint0_linear_163_5652)"/>
<path d="M0.881592 18.7478V14.6412L12.965 19.9902L24.0619 14.6412V18.7478L12.965 24.2694L0.881592 18.7478Z" fill="url(#paint1_linear_163_5652)"/>
<path d="M0.881592 13.7133V9.60669L12.965 14.9557L24.0619 9.60669V13.7133L12.965 19.2349L0.881592 13.7133Z" fill="url(#paint2_linear_163_5652)"/>
<defs>
<linearGradient id="paint0_linear_163_5652" x1="2.7283" y1="12.3443" x2="35.0807" y2="20.3173" gradientUnits="userSpaceOnUse">
<stop stop-color="#FFE680"/>
<stop offset="1" stop-color="#FFCC00"/>
</linearGradient>
<linearGradient id="paint1_linear_163_5652" x1="2.7283" y1="7.30915" x2="35.0807" y2="15.2822" gradientUnits="userSpaceOnUse">
<stop stop-color="#FFE680"/>
<stop offset="1" stop-color="#FFCC00"/>
</linearGradient>
<linearGradient id="paint2_linear_163_5652" x1="2.7283" y1="2.27461" x2="35.0807" y2="10.2476" gradientUnits="userSpaceOnUse">
<stop stop-color="#FFE680"/>
<stop offset="1" stop-color="#FFCC00"/>
</linearGradient>
<clipPath id="clip0_163_5652">
<rect width="9.18561" height="9.18561" fill="white" transform="translate(7.87817 1.56641)"/>
</clipPath>
</defs>
</svg>
