<svg width="15" height="16" viewBox="0 0 15 16" fill="none" xmlns="http://www.w3.org/2000/svg">
<g clip-path="url(#clip0_163_998)">
<rect x="1.521" y="1.85474" width="12.7357" height="12.7357" rx="6.36787" fill="#1EC160"/>
</g>
<g clip-path="url(#clip1_163_998)">
<path d="M7.49742 5.87705C7.52179 5.52642 7.85442 5.2553 8.21292 5.34455L8.31079 5.3693C8.48442 5.4128 8.63854 5.5403 8.69029 5.73117C8.77279 6.03717 8.89017 6.6728 8.71354 7.42242C8.76876 7.41479 8.82415 7.40842 8.87967 7.4033C9.14704 7.37892 9.50554 7.3763 9.82317 7.48205C10.0174 7.54692 10.1959 7.73742 10.2732 7.95942C10.3422 8.15892 10.3332 8.39517 10.1854 8.6093C10.2072 8.65392 10.224 8.70005 10.2372 8.74542C10.266 8.84667 10.2795 8.95805 10.2795 9.06642C10.2795 9.1748 10.266 9.28617 10.2372 9.38742C10.2225 9.43805 10.2034 9.4898 10.1772 9.53892C10.2405 9.68405 10.2173 9.84605 10.176 9.96942C10.1338 10.0912 10.072 10.2054 9.99304 10.3073C10.0133 10.3643 10.0215 10.4243 10.0215 10.4817C10.0215 10.596 9.98817 10.716 9.92667 10.8237C9.80142 11.0434 9.55279 11.2227 9.20142 11.2227H7.88892C7.66204 11.2227 7.48767 11.1923 7.33917 11.1409C7.21148 11.0943 7.08946 11.0334 6.97542 10.9594L6.95742 10.9482C6.76842 10.833 6.58279 10.7198 6.18192 10.6774C5.89467 10.6467 5.63892 10.4149 5.63892 10.0977V8.59767C5.63892 8.27892 5.89579 8.06067 6.14779 7.99205C6.46617 7.90505 6.73804 7.69692 6.94729 7.4633C7.15729 7.22817 7.29004 6.9833 7.33692 6.84867C7.41154 6.63305 7.47042 6.27155 7.49742 5.87742V5.87705Z" fill="white"/>
</g>
<defs>
<clipPath id="clip0_163_998">
<rect width="14" height="15" fill="white" transform="translate(0.888916 0.722656)"/>
</clipPath>
<clipPath id="clip1_163_998">
<rect width="6" height="6" fill="white" transform="translate(4.88892 5.22266)"/>
</clipPath>
</defs>
</svg>
