<svg width="24" height="24" viewBox="0 0 24 24" fill="none" xmlns="http://www.w3.org/2000/svg">
<g filter="url(#filter0_d_229_7241)">
<path d="M21.0107 19.2619H5.84408C5.22524 19.2619 4.63174 19.016 4.19416 18.5785C3.75657 18.1409 3.51074 17.5474 3.51074 16.9285V6.35855L0.279076 2.50855C0.115742 2.31021 0.0107422 2.04188 0.0107422 1.76188C0.0107422 1.45246 0.133658 1.15572 0.352451 0.936924C0.571243 0.718131 0.86799 0.595215 1.17741 0.595215H21.0107C21.6296 0.595215 22.2231 0.841047 22.6607 1.27863C23.0982 1.71622 23.3441 2.30971 23.3441 2.92855V16.9285C23.3441 17.5474 23.0982 18.1409 22.6607 18.5785C22.2231 19.016 21.6296 19.2619 21.0107 19.2619ZM7.59408 4.09521C7.43937 4.09521 7.29099 4.15667 7.1816 4.26607C7.0722 4.37547 7.01074 4.52384 7.01074 4.67855V5.84521C7.01074 5.99992 7.0722 6.1483 7.1816 6.25769C7.29099 6.36709 7.43937 6.42855 7.59408 6.42855H19.2607C19.4155 6.42855 19.5638 6.36709 19.6732 6.25769C19.7826 6.1483 19.8441 5.99992 19.8441 5.84521V4.67855C19.8441 4.52384 19.7826 4.37547 19.6732 4.26607C19.5638 4.15667 19.4155 4.09521 19.2607 4.09521H7.59408ZM7.59408 8.76188C7.43937 8.76188 7.29099 8.82334 7.1816 8.93273C7.0722 9.04213 7.01074 9.1905 7.01074 9.34521V10.5119C7.01074 10.6666 7.0722 10.815 7.1816 10.9244C7.29099 11.0338 7.43937 11.0952 7.59408 11.0952H19.2607C19.4155 11.0952 19.5638 11.0338 19.6732 10.9244C19.7826 10.815 19.8441 10.6666 19.8441 10.5119V9.34521C19.8441 9.1905 19.7826 9.04213 19.6732 8.93273C19.5638 8.82334 19.4155 8.76188 19.2607 8.76188H7.59408ZM7.59408 13.4285C7.43937 13.4285 7.29099 13.49 7.1816 13.5994C7.0722 13.7088 7.01074 13.8572 7.01074 14.0119V15.1785C7.01074 15.3333 7.0722 15.4816 7.1816 15.591C7.29099 15.7004 7.43937 15.7619 7.59408 15.7619H13.4274C13.5821 15.7619 13.7305 15.7004 13.8399 15.591C13.9493 15.4816 14.0107 15.3333 14.0107 15.1785V14.0119C14.0107 13.8572 13.9493 13.7088 13.8399 13.5994C13.7305 13.49 13.5821 13.4285 13.4274 13.4285H7.59408Z" fill="#F9FC02"/>
</g>
<defs>
<filter id="filter0_d_229_7241" x="0.0107422" y="0.595215" width="23.3333" height="22.6665" filterUnits="userSpaceOnUse" color-interpolation-filters="sRGB">
<feFlood flood-opacity="0" result="BackgroundImageFix"/>
<feColorMatrix in="SourceAlpha" type="matrix" values="0 0 0 0 0 0 0 0 0 0 0 0 0 0 0 0 0 0 127 0" result="hardAlpha"/>
<feOffset dy="4"/>
<feComposite in2="hardAlpha" operator="out"/>
<feColorMatrix type="matrix" values="0 0 0 0 0 0 0 0 0 0 0 0 0 0 0 0 0 0 0.32 0"/>
<feBlend mode="normal" in2="BackgroundImageFix" result="effect1_dropShadow_229_7241"/>
<feBlend mode="normal" in="SourceGraphic" in2="effect1_dropShadow_229_7241" result="shape"/>
</filter>
</defs>
</svg>
