<svg width="31" height="29" viewBox="0 0 31 29" fill="none" xmlns="http://www.w3.org/2000/svg">
<g clip-path="url(#clip0_163_5429)">
<path d="M29.4826 0.637939L16.6099 10.1206L19.0037 4.53216L29.4826 0.637939Z" fill="#E17726"/>
<path d="M0.90332 0.64917L11.3543 4.53289L13.6273 10.1945L0.90332 0.64917Z" fill="#E27625"/>
<path d="M24.302 20.8047L29.9914 20.9125L28.0031 27.6374L21.0605 25.7344L24.302 20.8047Z" fill="#E27625"/>
<path d="M6.05346 20.8047L9.28267 25.7344L2.35185 27.6375L0.375488 20.9125L6.05346 20.8047Z" fill="#E27625"/>
<path d="M13.3181 8.75232L13.5507 16.2287L6.59326 15.9136L8.57221 12.9411L8.59729 12.9125L13.3181 8.75232Z" fill="#E27625"/>
<path d="M16.9653 8.66895L21.7583 12.9128L21.7831 12.9413L23.7622 15.9137L16.8062 16.2287L16.9653 8.66895Z" fill="#E27625"/>
<path d="M9.48662 20.8264L13.2856 23.7733L8.87256 25.8944L9.48662 20.8264Z" fill="#E27625"/>
<path d="M20.8696 20.8259L21.4711 25.8945L17.0703 23.773L20.8696 20.8259Z" fill="#E27625"/>
<path d="M17.1675 23.4955L21.6331 25.6482L17.4792 27.6136L17.5223 26.3146L17.1675 23.4955Z" fill="#D5BFB2"/>
<path d="M13.187 23.4965L12.8461 26.2934L12.8741 27.6121L8.71045 25.6483L13.187 23.4965Z" fill="#D5BFB2"/>
<path d="M11.8974 17.2045L13.0643 19.6461L9.09131 18.4873L11.8974 17.2045Z" fill="#233447"/>
<path d="M18.4582 17.2046L21.2775 18.4873L17.2915 19.6457L18.4582 17.2046Z" fill="#233447"/>
<path d="M9.79039 20.8014L9.1482 26.0561L5.70605 20.9163L9.79039 20.8014Z" fill="#CC6228"/>
<path d="M20.5654 20.8014L24.6499 20.9163L21.1948 26.0563L20.5654 20.8014Z" fill="#CC6228"/>
<path d="M23.8626 15.6165L20.8901 18.6324L18.5983 17.5898L17.501 19.8862L16.7817 15.9372L23.8626 15.6165Z" fill="#CC6228"/>
<path d="M6.49121 15.6165L13.5734 15.9373L12.854 19.8862L11.7566 17.5901L9.47691 18.6325L6.49121 15.6165Z" fill="#CC6228"/>
<path d="M6.29102 14.9976L9.65406 18.395L9.77055 21.7492L6.29102 14.9976Z" fill="#E27525"/>
<path d="M24.0679 14.9915L20.582 21.755L20.7133 18.395L24.0679 14.9915Z" fill="#E27525"/>
<path d="M13.4092 15.2045L13.5445 16.0526L13.879 18.1655L13.6639 24.6552L12.6473 19.4419L12.647 19.388L13.4092 15.2045Z" fill="#E27525"/>
<path d="M16.9449 15.1927L17.7091 19.3881L17.7087 19.442L16.6896 24.6683L16.6493 23.361L16.4902 18.1271L16.9449 15.1927Z" fill="#E27525"/>
<path d="M21.0125 18.26L20.8988 21.1741L17.351 23.9259L16.6338 23.4215L17.4377 19.299L21.0125 18.26Z" fill="#F5841F"/>
<path d="M9.35547 18.26L12.918 19.299L13.7219 23.4215L13.0047 23.9259L9.45672 21.1738L9.35547 18.26Z" fill="#F5841F"/>
<path d="M8.03125 25.0048L12.5702 27.1458L12.5509 26.2315L12.9306 25.8996H17.423L17.8165 26.2303L17.7875 27.144L22.2977 25.0101L20.103 26.8157L17.4493 28.6302H12.8943L10.2423 26.8082L8.03125 25.0048Z" fill="#C0AC9D"/>
<path d="M16.8422 23.2106L17.4839 23.6618L17.86 26.649L17.3158 26.1915H13.0412L12.5073 26.6582L12.8711 23.6621L13.513 23.2106H16.8422Z" fill="#161616"/>
<path d="M28.6323 0.900391L30.1776 5.51537L29.2125 10.1817L29.8997 10.7094L28.9698 11.4157L29.6687 11.953L28.7433 12.792L29.3114 13.2016L27.8037 14.9546L21.6197 13.1621L21.5662 13.1335L17.1099 9.39104L28.6323 0.900391Z" fill="#763E1A"/>
<path d="M1.72297 0.900391L13.2455 9.39104L8.78914 13.1335L8.73559 13.1621L2.5516 14.9546L1.04375 13.2016L1.61141 12.7923L0.686562 11.953L1.38406 11.4164L0.440234 10.708L1.15332 10.1799L0.177734 5.51561L1.72297 0.900391Z" fill="#763E1A"/>
<path d="M21.3173 12.7701L27.8696 14.6695L29.9983 21.2011H24.3822L20.5127 21.2496L23.3268 15.7887L21.3173 12.7701Z" fill="#F5841F"/>
<path d="M9.03784 12.7701L7.02795 15.7887L9.84245 21.2496L5.97467 21.2011H0.368652L2.48541 14.6695L9.03784 12.7701Z" fill="#F5841F"/>
<path d="M19.3245 4.50097L17.4917 9.42885L17.1029 16.0859L16.954 18.1724L16.9423 23.5027H13.4136L13.4021 18.1825L13.2528 16.0841L12.8637 9.42885L11.0312 4.50085L19.3245 4.50097Z" fill="#F5841F"/>
</g>
<defs>
<clipPath id="clip0_163_5429">
<rect width="30" height="28" fill="white" transform="translate(0.177734 0.637939)"/>
</clipPath>
</defs>
</svg>
