<svg width="112" height="33" viewBox="0 0 112 33" fill="none" xmlns="http://www.w3.org/2000/svg">
<rect x="2.73047" y="2.42188" width="106.648" height="27.6793" rx="13.8397" fill="#C4C4C4"/>
<g filter="url(#filter0_i_163_5187)">
<rect x="2.73047" y="2.42188" width="106.648" height="27.6793" rx="8" fill="#CB16B9"/>
</g>
<rect x="1.73047" y="1.42188" width="108.648" height="29.6793" rx="9" stroke="#5A616A" stroke-width="2"/>
<rect x="5.4043" y="4.36584" width="101.3" height="10.4975" rx="5.24875" fill="#FF52EE"/>
<ellipse rx="5.97525" ry="2.58295" transform="matrix(0.999785 -0.0207575 0.043425 0.999057 15.8132 9.21735)" fill="#F7FDFA"/>
<ellipse rx="2.62019" ry="1.13265" transform="matrix(0.999785 -0.0207575 0.043425 0.999057 26.7051 6.51286)" fill="#F7FDFA"/>
<path d="M34.7278 13.3631H35.844L37.4875 18.0609L39.1311 13.3631H40.2473L37.9358 19.7615H37.0393L34.7278 13.3631ZM34.1257 13.3631H35.2375L35.4397 17.9422V19.7615H34.1257V13.3631ZM39.7375 13.3631H40.8538V19.7615H39.5354V17.9422L39.7375 13.3631ZM41.7283 17.4324V17.3401C41.7283 16.9915 41.7781 16.6707 41.8777 16.3777C41.9773 16.0818 42.1223 15.8255 42.3127 15.6087C42.5032 15.3919 42.7375 15.2234 43.0159 15.1033C43.2942 14.9803 43.6135 14.9188 43.9739 14.9188C44.3342 14.9188 44.655 14.9803 44.9363 15.1033C45.2175 15.2234 45.4534 15.3919 45.6438 15.6087C45.8372 15.8255 45.9836 16.0818 46.0833 16.3777C46.1829 16.6707 46.2327 16.9915 46.2327 17.3401V17.4324C46.2327 17.7781 46.1829 18.0989 46.0833 18.3948C45.9836 18.6878 45.8372 18.9442 45.6438 19.1639C45.4534 19.3807 45.219 19.5491 44.9407 19.6693C44.6624 19.7894 44.343 19.8494 43.9827 19.8494C43.6223 19.8494 43.3015 19.7894 43.0203 19.6693C42.7419 19.5491 42.5061 19.3807 42.3127 19.1639C42.1223 18.9442 41.9773 18.6878 41.8777 18.3948C41.7781 18.0989 41.7283 17.7781 41.7283 17.4324ZM42.9939 17.3401V17.4324C42.9939 17.6317 43.0115 17.8177 43.0466 17.9905C43.0818 18.1634 43.1375 18.3157 43.2136 18.4476C43.2927 18.5765 43.3953 18.6776 43.5212 18.7508C43.6472 18.824 43.801 18.8607 43.9827 18.8607C44.1584 18.8607 44.3093 18.824 44.4353 18.7508C44.5613 18.6776 44.6624 18.5765 44.7385 18.4476C44.8147 18.3157 44.8704 18.1634 44.9055 17.9905C44.9436 17.8177 44.9626 17.6317 44.9626 17.4324V17.3401C44.9626 17.1468 44.9436 16.9651 44.9055 16.7952C44.8704 16.6224 44.8132 16.47 44.7341 16.3382C44.658 16.2034 44.5569 16.098 44.4309 16.0218C44.3049 15.9456 44.1526 15.9075 43.9739 15.9075C43.7952 15.9075 43.6428 15.9456 43.5168 16.0218C43.3938 16.098 43.2927 16.2034 43.2136 16.3382C43.1375 16.47 43.0818 16.6224 43.0466 16.7952C43.0115 16.9651 42.9939 17.1468 42.9939 17.3401ZM48.5574 18.8387L49.6121 15.0067H50.9348L49.3308 19.7615H48.531L48.5574 18.8387ZM47.8323 15.0067L48.8914 18.8431L48.9133 19.7615H48.1091L46.5051 15.0067H47.8323ZM53.6287 19.8494C53.2595 19.8494 52.9285 19.7908 52.6355 19.6736C52.3425 19.5535 52.0935 19.388 51.8884 19.1771C51.6863 18.9661 51.531 18.7215 51.4226 18.4432C51.3142 18.1619 51.26 17.8631 51.26 17.5467V17.3709C51.26 17.0106 51.3113 16.681 51.4138 16.3821C51.5164 16.0833 51.6628 15.824 51.8533 15.6043C52.0466 15.3846 52.281 15.2161 52.5564 15.0989C52.8318 14.9788 53.1423 14.9188 53.488 14.9188C53.825 14.9188 54.1238 14.9744 54.3845 15.0858C54.6453 15.1971 54.8635 15.3553 55.0393 15.5604C55.218 15.7654 55.3528 16.0115 55.4436 16.2986C55.5344 16.5828 55.5798 16.8992 55.5798 17.2479V17.7752H51.8005V16.9315H54.3362V16.8348C54.3362 16.659 54.304 16.5023 54.2395 16.3646C54.178 16.2239 54.0842 16.1126 53.9583 16.0306C53.8323 15.9485 53.6711 15.9075 53.4749 15.9075C53.3079 15.9075 53.1643 15.9442 53.0442 16.0174C52.9241 16.0906 52.8259 16.1932 52.7498 16.325C52.6765 16.4568 52.6208 16.6121 52.5828 16.7908C52.5476 16.9666 52.53 17.16 52.53 17.3709V17.5467C52.53 17.7371 52.5564 17.9129 52.6091 18.074C52.6648 18.2352 52.7424 18.3743 52.842 18.4915C52.9446 18.6087 53.0676 18.6995 53.2112 18.764C53.3577 18.8284 53.5232 18.8607 53.7078 18.8607C53.9363 18.8607 54.1487 18.8167 54.345 18.7288C54.5442 18.638 54.7156 18.5018 54.8591 18.3201L55.4744 18.9881C55.3748 19.1317 55.2385 19.2693 55.0657 19.4012C54.8958 19.533 54.6907 19.6414 54.4504 19.7264C54.2102 19.8084 53.9363 19.8494 53.6287 19.8494ZM61.1257 16.9534H59.4822L59.4734 16.0482H60.8533C61.0964 16.0482 61.2957 16.0174 61.4509 15.9559C61.6062 15.8914 61.7219 15.7991 61.7981 15.679C61.8772 15.556 61.9167 15.4066 61.9167 15.2308C61.9167 15.0316 61.8787 14.8704 61.8025 14.7474C61.7292 14.6243 61.6135 14.535 61.4553 14.4793C61.3 14.4236 61.0994 14.3958 60.8533 14.3958H59.9392V19.7615H58.6208V13.3631H60.8533C61.2253 13.3631 61.5579 13.3983 61.8508 13.4686C62.1467 13.5389 62.3972 13.6458 62.6023 13.7894C62.8074 13.9329 62.9641 14.1146 63.0725 14.3343C63.1809 14.5511 63.2351 14.8089 63.2351 15.1077C63.2351 15.3714 63.175 15.6146 63.0549 15.8372C62.9377 16.0599 62.7517 16.2415 62.4968 16.3821C62.2449 16.5228 61.9153 16.6004 61.5081 16.6151L61.1257 16.9534ZM61.0686 19.7615H59.1218L59.636 18.7332H61.0686C61.3 18.7332 61.489 18.6966 61.6355 18.6234C61.782 18.5472 61.8904 18.4446 61.9607 18.3157C62.031 18.1868 62.0662 18.0389 62.0662 17.8719C62.0662 17.6844 62.0339 17.5218 61.9695 17.3841C61.908 17.2464 61.8083 17.1409 61.6707 17.0677C61.533 16.9915 61.3513 16.9534 61.1257 16.9534H59.8557L59.8645 16.0482H61.4465L61.7498 16.4041C62.1394 16.3983 62.4529 16.4671 62.6902 16.6107C62.9304 16.7513 63.1047 16.9344 63.2131 17.16C63.3245 17.3856 63.3801 17.6273 63.3801 17.8851C63.3801 18.2952 63.2908 18.6409 63.1121 18.9222C62.9333 19.2005 62.6711 19.41 62.3254 19.5506C61.9827 19.6912 61.5637 19.7615 61.0686 19.7615ZM66.8562 18.6893V16.5711C66.8562 16.4188 66.8313 16.2884 66.7815 16.18C66.7317 16.0687 66.6541 15.9822 66.5486 15.9207C66.446 15.8592 66.3127 15.8284 66.1487 15.8284C66.0081 15.8284 65.8865 15.8533 65.7839 15.9031C65.6814 15.95 65.6023 16.0189 65.5466 16.1097C65.491 16.1976 65.4631 16.3016 65.4631 16.4217H64.1975C64.1975 16.2195 64.2444 16.0276 64.3381 15.846C64.4319 15.6644 64.5681 15.5047 64.7468 15.367C64.9255 15.2264 65.1379 15.1165 65.384 15.0374C65.6331 14.9583 65.9114 14.9188 66.219 14.9188C66.5881 14.9188 66.9163 14.9803 67.2034 15.1033C67.4905 15.2264 67.7161 15.4109 67.8801 15.657C68.0471 15.9031 68.1306 16.2108 68.1306 16.5799V18.6146C68.1306 18.8753 68.1467 19.0892 68.179 19.2562C68.2112 19.4202 68.2581 19.5638 68.3196 19.6868V19.7615H67.0408C66.9792 19.6326 66.9324 19.4715 66.9001 19.2781C66.8708 19.0818 66.8562 18.8856 66.8562 18.6893ZM67.0232 16.8655L67.032 17.5818H66.3245C66.1575 17.5818 66.0125 17.6009 65.8894 17.639C65.7664 17.6771 65.6653 17.7313 65.5862 17.8016C65.5071 17.869 65.4485 17.9481 65.4104 18.0389C65.3752 18.1297 65.3577 18.2293 65.3577 18.3377C65.3577 18.4461 65.3826 18.5443 65.4324 18.6321C65.4822 18.7171 65.554 18.7845 65.6477 18.8343C65.7415 18.8812 65.8513 18.9046 65.9773 18.9046C66.1677 18.9046 66.3333 18.8665 66.4739 18.7903C66.6145 18.7142 66.7229 18.6204 66.7991 18.5091C66.8782 18.3978 66.9192 18.2923 66.9221 18.1927L67.2561 18.7288C67.2092 18.8489 67.1448 18.9734 67.0627 19.1024C66.9836 19.2313 66.8826 19.3528 66.7595 19.4671C66.6365 19.5784 66.4885 19.6707 66.3157 19.744C66.1428 19.8143 65.9377 19.8494 65.7004 19.8494C65.3987 19.8494 65.1248 19.7894 64.8787 19.6693C64.6355 19.5462 64.4421 19.3777 64.2986 19.1639C64.158 18.9471 64.0876 18.701 64.0876 18.4256C64.0876 18.1766 64.1345 17.9554 64.2283 17.762C64.322 17.5687 64.4597 17.4061 64.6414 17.2742C64.8259 17.1395 65.0559 17.0384 65.3313 16.971C65.6067 16.9007 65.926 16.8655 66.2893 16.8655H67.0232ZM71.677 18.4476C71.677 18.3568 71.6506 18.2747 71.5979 18.2015C71.5452 18.1282 71.447 18.0609 71.3035 17.9993C71.1628 17.9349 70.9592 17.8763 70.6926 17.8235C70.4524 17.7708 70.2283 17.7049 70.0203 17.6258C69.8152 17.5438 69.6365 17.4456 69.4841 17.3314C69.3347 17.2171 69.2175 17.0823 69.1326 16.9271C69.0476 16.7689 69.0051 16.5887 69.0051 16.3865C69.0051 16.1873 69.0476 15.9998 69.1326 15.824C69.2205 15.6483 69.345 15.493 69.5061 15.3582C69.6702 15.2205 69.8694 15.1136 70.1038 15.0374C70.3411 14.9583 70.6077 14.9188 70.9036 14.9188C71.3167 14.9188 71.6711 14.9847 71.967 15.1165C72.2659 15.2484 72.4944 15.43 72.6526 15.6614C72.8137 15.89 72.8943 16.1507 72.8943 16.4437H71.6287C71.6287 16.3206 71.6023 16.2108 71.5496 16.1141C71.4998 16.0145 71.4207 15.9368 71.3123 15.8812C71.2068 15.8226 71.0691 15.7933 70.8992 15.7933C70.7585 15.7933 70.637 15.8182 70.5344 15.868C70.4319 15.9149 70.3528 15.9793 70.2971 16.0613C70.2444 16.1404 70.218 16.2283 70.218 16.325C70.218 16.3983 70.2327 16.4642 70.262 16.5228C70.2942 16.5784 70.3455 16.6297 70.4158 16.6766C70.4861 16.7234 70.5769 16.7674 70.6882 16.8084C70.8025 16.8465 70.9431 16.8817 71.1101 16.9139C71.4529 16.9842 71.759 17.0765 72.0286 17.1907C72.2981 17.3021 72.512 17.4544 72.6702 17.6478C72.8284 17.8382 72.9075 18.0887 72.9075 18.3992C72.9075 18.6102 72.8606 18.8035 72.7668 18.9793C72.6731 19.1551 72.5383 19.3089 72.3625 19.4407C72.1868 19.5696 71.9758 19.6707 71.7297 19.744C71.4866 19.8143 71.2126 19.8494 70.908 19.8494C70.4656 19.8494 70.0906 19.7703 69.783 19.6121C69.4783 19.4539 69.2468 19.2532 69.0886 19.0101C68.9333 18.764 68.8557 18.512 68.8557 18.2542H70.0554C70.0613 18.4271 70.1052 18.5662 70.1873 18.6717C70.2722 18.7772 70.3792 18.8533 70.5081 18.9002C70.6399 18.9471 70.782 18.9705 70.9343 18.9705C71.0984 18.9705 71.2346 18.9485 71.343 18.9046C71.4514 18.8577 71.5334 18.7962 71.5891 18.72C71.6477 18.6409 71.677 18.5501 71.677 18.4476ZM75.9177 19.8494C75.5486 19.8494 75.2175 19.7908 74.9246 19.6736C74.6316 19.5535 74.3826 19.388 74.1775 19.1771C73.9753 18.9661 73.8201 18.7215 73.7117 18.4432C73.6033 18.1619 73.5491 17.8631 73.5491 17.5467V17.3709C73.5491 17.0106 73.6003 16.681 73.7029 16.3821C73.8054 16.0833 73.9519 15.824 74.1423 15.6043C74.3357 15.3846 74.5701 15.2161 74.8455 15.0989C75.1208 14.9788 75.4314 14.9188 75.7771 14.9188C76.114 14.9188 76.4128 14.9744 76.6736 15.0858C76.9343 15.1971 77.1526 15.3553 77.3284 15.5604C77.5071 15.7654 77.6418 16.0115 77.7327 16.2986C77.8235 16.5828 77.8689 16.8992 77.8689 17.2479V17.7752H74.0896V16.9315H76.6252V16.8348C76.6252 16.659 76.593 16.5023 76.5286 16.3646C76.467 16.2239 76.3733 16.1126 76.2473 16.0306C76.1213 15.9485 75.9602 15.9075 75.7639 15.9075C75.5969 15.9075 75.4534 15.9442 75.3333 16.0174C75.2131 16.0906 75.115 16.1932 75.0388 16.325C74.9656 16.4568 74.9099 16.6121 74.8718 16.7908C74.8367 16.9666 74.8191 17.16 74.8191 17.3709V17.5467C74.8191 17.7371 74.8455 17.9129 74.8982 18.074C74.9539 18.2352 75.0315 18.3743 75.1311 18.4915C75.2336 18.6087 75.3567 18.6995 75.5002 18.764C75.6467 18.8284 75.8123 18.8607 75.9968 18.8607C76.2253 18.8607 76.4377 18.8167 76.634 18.7288C76.8333 18.638 77.0046 18.5018 77.1482 18.3201L77.7634 18.9881C77.6638 19.1317 77.5276 19.2693 77.3547 19.4012C77.1848 19.533 76.9797 19.6414 76.7395 19.7264C76.4993 19.8084 76.2253 19.8494 75.9177 19.8494Z" fill="white"/>
<defs>
<filter id="filter0_i_163_5187" x="0.730469" y="0.421875" width="110.648" height="31.6793" filterUnits="userSpaceOnUse" color-interpolation-filters="sRGB">
<feFlood flood-opacity="0" result="BackgroundImageFix"/>
<feBlend mode="normal" in="SourceGraphic" in2="BackgroundImageFix" result="shape"/>
<feColorMatrix in="SourceAlpha" type="matrix" values="0 0 0 0 0 0 0 0 0 0 0 0 0 0 0 0 0 0 127 0" result="hardAlpha"/>
<feOffset dy="-10"/>
<feComposite in2="hardAlpha" operator="arithmetic" k2="-1" k3="1"/>
<feColorMatrix type="matrix" values="0 0 0 0 0 0 0 0 0 0 0 0 0 0 0 0 0 0 0.25 0"/>
<feBlend mode="normal" in2="shape" result="effect1_innerShadow_163_5187"/>
</filter>
</defs>
</svg>
