<svg width="112" height="33" viewBox="0 0 112 33" fill="none" xmlns="http://www.w3.org/2000/svg">
<rect x="2.73071" y="2.75696" width="106.648" height="27.6793" rx="13.8397" fill="#C4C4C4"/>
<g filter="url(#filter0_i_163_902)">
<rect x="2.73071" y="2.75696" width="106.648" height="27.6793" rx="8" fill="#CB16B9"/>
</g>
<rect x="1.73071" y="1.75696" width="108.648" height="29.6793" rx="9" stroke="#5A616A" stroke-width="2"/>
<rect x="5.40454" y="4.70093" width="101.3" height="10.4975" rx="5.24875" fill="#FF52EE"/>
<ellipse rx="5.97525" ry="2.58295" transform="matrix(0.999785 -0.0207575 0.043425 0.999057 15.8134 9.55243)" fill="#F7FDFA"/>
<ellipse rx="2.62019" ry="1.13265" transform="matrix(0.999785 -0.0207575 0.043425 0.999057 26.7053 6.84794)" fill="#F7FDFA"/>
<path d="M35.2281 13.6982H36.3444L37.9879 18.396L39.6315 13.6982H40.7477L38.4362 20.0967H37.5397L35.2281 13.6982ZM34.6261 13.6982H35.7379L35.9401 18.2773V20.0967H34.6261V13.6982ZM40.2379 13.6982H41.3541V20.0967H40.0358V18.2773L40.2379 13.6982ZM42.2286 17.7676V17.6753C42.2286 17.3267 42.2784 17.0059 42.3781 16.7129C42.4777 16.417 42.6227 16.1606 42.8131 15.9438C43.0035 15.7271 43.2379 15.5586 43.5162 15.4385C43.7946 15.3154 44.1139 15.2539 44.4742 15.2539C44.8346 15.2539 45.1554 15.3154 45.4366 15.4385C45.7179 15.5586 45.9537 15.7271 46.1442 15.9438C46.3375 16.1606 46.484 16.417 46.5836 16.7129C46.6832 17.0059 46.733 17.3267 46.733 17.6753V17.7676C46.733 18.1133 46.6832 18.4341 46.5836 18.73C46.484 19.0229 46.3375 19.2793 46.1442 19.499C45.9537 19.7158 45.7194 19.8843 45.441 20.0044C45.1627 20.1245 44.8434 20.1846 44.483 20.1846C44.1227 20.1846 43.8019 20.1245 43.5206 20.0044C43.2423 19.8843 43.0065 19.7158 42.8131 19.499C42.6227 19.2793 42.4777 19.0229 42.3781 18.73C42.2784 18.4341 42.2286 18.1133 42.2286 17.7676ZM43.4943 17.6753V17.7676C43.4943 17.9668 43.5118 18.1528 43.547 18.3257C43.5822 18.4985 43.6378 18.6509 43.714 18.7827C43.7931 18.9116 43.8956 19.0127 44.0216 19.0859C44.1476 19.1592 44.3014 19.1958 44.483 19.1958C44.6588 19.1958 44.8097 19.1592 44.9357 19.0859C45.0616 19.0127 45.1627 18.9116 45.2389 18.7827C45.3151 18.6509 45.3707 18.4985 45.4059 18.3257C45.444 18.1528 45.463 17.9668 45.463 17.7676V17.6753C45.463 17.4819 45.444 17.3003 45.4059 17.1304C45.3707 16.9575 45.3136 16.8052 45.2345 16.6733C45.1583 16.5386 45.0573 16.4331 44.9313 16.3569C44.8053 16.2808 44.653 16.2427 44.4742 16.2427C44.2955 16.2427 44.1432 16.2808 44.0172 16.3569C43.8942 16.4331 43.7931 16.5386 43.714 16.6733C43.6378 16.8052 43.5822 16.9575 43.547 17.1304C43.5118 17.3003 43.4943 17.4819 43.4943 17.6753ZM49.0577 19.1738L50.1124 15.3418H51.4352L49.8312 20.0967H49.0314L49.0577 19.1738ZM48.3326 15.3418L49.3917 19.1782L49.4137 20.0967H48.6095L47.0055 15.3418H48.3326ZM54.129 20.1846C53.7599 20.1846 53.4288 20.126 53.1359 20.0088C52.8429 19.8887 52.5939 19.7231 52.3888 19.5122C52.1866 19.3013 52.0314 19.0566 51.923 18.7783C51.8146 18.4971 51.7604 18.1982 51.7604 17.8818V17.7061C51.7604 17.3457 51.8116 17.0161 51.9142 16.7173C52.0167 16.4185 52.1632 16.1592 52.3536 15.9395C52.547 15.7197 52.7814 15.5513 53.0568 15.4341C53.3322 15.314 53.6427 15.2539 53.9884 15.2539C54.3253 15.2539 54.6241 15.3096 54.8849 15.4209C55.1456 15.5322 55.3639 15.6904 55.5397 15.8955C55.7184 16.1006 55.8531 16.3467 55.944 16.6338C56.0348 16.918 56.0802 17.2344 56.0802 17.583V18.1104H52.3009V17.2666H54.8365V17.1699C54.8365 16.9941 54.8043 16.8374 54.7399 16.6997C54.6783 16.5591 54.5846 16.4478 54.4586 16.3657C54.3326 16.2837 54.1715 16.2427 53.9752 16.2427C53.8082 16.2427 53.6647 16.2793 53.5446 16.3525C53.4244 16.4258 53.3263 16.5283 53.2501 16.6602C53.1769 16.792 53.1212 16.9473 53.0831 17.126C53.048 17.3018 53.0304 17.4951 53.0304 17.7061V17.8818C53.0304 18.0723 53.0568 18.248 53.1095 18.4092C53.1652 18.5703 53.2428 18.7095 53.3424 18.8267C53.4449 18.9438 53.568 19.0347 53.7115 19.0991C53.858 19.1636 54.0236 19.1958 54.2081 19.1958C54.4366 19.1958 54.649 19.1519 54.8453 19.064C55.0446 18.9731 55.2159 18.8369 55.3595 18.6553L55.9747 19.3232C55.8751 19.4668 55.7389 19.6045 55.566 19.7363C55.3961 19.8682 55.191 19.9766 54.9508 20.0615C54.7106 20.1436 54.4366 20.1846 54.129 20.1846ZM63.3883 16.3042V17.3325H60.0485V16.3042H63.3883ZM60.4396 13.6982V20.0967H59.1212V13.6982H60.4396ZM64.3287 13.6982V20.0967H63.0148V13.6982H64.3287ZM67.5851 20.1846C67.2159 20.1846 66.8849 20.126 66.5919 20.0088C66.299 19.8887 66.0499 19.7231 65.8448 19.5122C65.6427 19.3013 65.4874 19.0566 65.379 18.7783C65.2706 18.4971 65.2164 18.1982 65.2164 17.8818V17.7061C65.2164 17.3457 65.2677 17.0161 65.3702 16.7173C65.4728 16.4185 65.6193 16.1592 65.8097 15.9395C66.0031 15.7197 66.2374 15.5513 66.5128 15.4341C66.7882 15.314 67.0988 15.2539 67.4445 15.2539C67.7814 15.2539 68.0802 15.3096 68.3409 15.4209C68.6017 15.5322 68.8199 15.6904 68.9957 15.8955C69.1744 16.1006 69.3092 16.3467 69.4 16.6338C69.4908 16.918 69.5363 17.2344 69.5363 17.583V18.1104H65.757V17.2666H68.2926V17.1699C68.2926 16.9941 68.2604 16.8374 68.1959 16.6997C68.1344 16.5591 68.0406 16.4478 67.9147 16.3657C67.7887 16.2837 67.6276 16.2427 67.4313 16.2427C67.2643 16.2427 67.1207 16.2793 67.0006 16.3525C66.8805 16.4258 66.7823 16.5283 66.7062 16.6602C66.6329 16.792 66.5773 16.9473 66.5392 17.126C66.504 17.3018 66.4865 17.4951 66.4865 17.7061V17.8818C66.4865 18.0723 66.5128 18.248 66.5656 18.4092C66.6212 18.5703 66.6989 18.7095 66.7985 18.8267C66.901 18.9438 67.024 19.0347 67.1676 19.0991C67.3141 19.1636 67.4796 19.1958 67.6642 19.1958C67.8927 19.1958 68.1051 19.1519 68.3014 19.064C68.5006 18.9731 68.672 18.8369 68.8156 18.6553L69.4308 19.3232C69.3312 19.4668 69.1949 19.6045 69.0221 19.7363C68.8522 19.8682 68.6471 19.9766 68.4069 20.0615C68.1666 20.1436 67.8927 20.1846 67.5851 20.1846ZM71.5226 16.3789V20.0967H70.257V15.3418H71.4479L71.5226 16.3789ZM72.9552 15.311L72.9332 16.4844C72.8717 16.4756 72.797 16.4683 72.7091 16.4624C72.6241 16.4536 72.5465 16.4492 72.4762 16.4492C72.2975 16.4492 72.1422 16.4727 72.0104 16.5195C71.8815 16.5635 71.7731 16.6294 71.6852 16.7173C71.6002 16.8052 71.5358 16.9121 71.4918 17.0381C71.4508 17.1641 71.4274 17.3076 71.4215 17.4688L71.1666 17.3896C71.1666 17.082 71.1974 16.7993 71.2589 16.5415C71.3204 16.2808 71.4098 16.0537 71.527 15.8604C71.6471 15.667 71.7936 15.5176 71.9664 15.4121C72.1393 15.3066 72.337 15.2539 72.5597 15.2539C72.63 15.2539 72.7018 15.2598 72.775 15.2715C72.8483 15.2803 72.9083 15.2935 72.9552 15.311ZM75.6534 20.1846C75.2843 20.1846 74.9532 20.126 74.6603 20.0088C74.3673 19.8887 74.1183 19.7231 73.9132 19.5122C73.7111 19.3013 73.5558 19.0566 73.4474 18.7783C73.339 18.4971 73.2848 18.1982 73.2848 17.8818V17.7061C73.2848 17.3457 73.3361 17.0161 73.4386 16.7173C73.5411 16.4185 73.6876 16.1592 73.8781 15.9395C74.0714 15.7197 74.3058 15.5513 74.5812 15.4341C74.8566 15.314 75.1671 15.2539 75.5128 15.2539C75.8497 15.2539 76.1486 15.3096 76.4093 15.4209C76.67 15.5322 76.8883 15.6904 77.0641 15.8955C77.2428 16.1006 77.3776 16.3467 77.4684 16.6338C77.5592 16.918 77.6046 17.2344 77.6046 17.583V18.1104H73.8253V17.2666H76.361V17.1699C76.361 16.9941 76.3287 16.8374 76.2643 16.6997C76.2028 16.5591 76.109 16.4478 75.983 16.3657C75.8571 16.2837 75.6959 16.2427 75.4996 16.2427C75.3326 16.2427 75.1891 16.2793 75.069 16.3525C74.9489 16.4258 74.8507 16.5283 74.7745 16.6602C74.7013 16.792 74.6456 16.9473 74.6075 17.126C74.5724 17.3018 74.5548 17.4951 74.5548 17.7061V17.8818C74.5548 18.0723 74.5812 18.248 74.6339 18.4092C74.6896 18.5703 74.7672 18.7095 74.8668 18.8267C74.9694 18.9438 75.0924 19.0347 75.236 19.0991C75.3824 19.1636 75.548 19.1958 75.7325 19.1958C75.9611 19.1958 76.1735 19.1519 76.3698 19.064C76.569 18.9731 76.7404 18.8369 76.8839 18.6553L77.4991 19.3232C77.3995 19.4668 77.2633 19.6045 77.0905 19.7363C76.9205 19.8682 76.7155 19.9766 76.4752 20.0615C76.235 20.1436 75.9611 20.1846 75.6534 20.1846Z" fill="white"/>
<defs>
<filter id="filter0_i_163_902" x="0.730713" y="0.756958" width="110.648" height="31.6793" filterUnits="userSpaceOnUse" color-interpolation-filters="sRGB">
<feFlood flood-opacity="0" result="BackgroundImageFix"/>
<feBlend mode="normal" in="SourceGraphic" in2="BackgroundImageFix" result="shape"/>
<feColorMatrix in="SourceAlpha" type="matrix" values="0 0 0 0 0 0 0 0 0 0 0 0 0 0 0 0 0 0 127 0" result="hardAlpha"/>
<feOffset dy="-10"/>
<feComposite in2="hardAlpha" operator="arithmetic" k2="-1" k3="1"/>
<feColorMatrix type="matrix" values="0 0 0 0 0 0 0 0 0 0 0 0 0 0 0 0 0 0 0.25 0"/>
<feBlend mode="normal" in2="shape" result="effect1_innerShadow_163_902"/>
</filter>
</defs>
</svg>
