<svg width="112" height="33" viewBox="0 0 112 33" fill="none" xmlns="http://www.w3.org/2000/svg">
<rect x="2.73047" y="2.42188" width="106.648" height="27.6793" rx="13.8397" fill="#C4C4C4"/>
<g filter="url(#filter0_i_163_5196)">
<rect x="2.73047" y="2.42188" width="106.648" height="27.6793" rx="8" fill="#F3BA09"/>
</g>
<rect x="1.73047" y="1.42188" width="108.648" height="29.6793" rx="9" stroke="#5A616A" stroke-width="2"/>
<rect x="5.4043" y="4.36584" width="101.3" height="10.4975" rx="5.24875" fill="#FFDB69"/>
<ellipse rx="5.97525" ry="2.58295" transform="matrix(0.999785 -0.0207575 0.043425 0.999057 15.8132 9.21735)" fill="#F7FDFA"/>
<ellipse rx="2.62019" ry="1.13265" transform="matrix(0.999785 -0.0207575 0.043425 0.999057 26.7051 6.51286)" fill="#F7FDFA"/>
<path d="M39.3333 13.3631V19.7615H38.0149L35.4441 15.4725V19.7615H34.1257V13.3631H35.4441L38.0193 17.6566V13.3631H39.3333ZM42.5896 19.8494C42.2205 19.8494 41.8894 19.7908 41.5964 19.6736C41.3035 19.5535 41.0544 19.388 40.8494 19.1771C40.6472 18.9661 40.4919 18.7215 40.3835 18.4432C40.2751 18.1619 40.2209 17.8631 40.2209 17.5467V17.3709C40.2209 17.0106 40.2722 16.681 40.3748 16.3821C40.4773 16.0833 40.6238 15.824 40.8142 15.6043C41.0076 15.3846 41.2419 15.2161 41.5173 15.0989C41.7927 14.9788 42.1033 14.9188 42.449 14.9188C42.7859 14.9188 43.0847 14.9744 43.3455 15.0858C43.6062 15.1971 43.8245 15.3553 44.0002 15.5604C44.179 15.7654 44.3137 16.0115 44.4045 16.2986C44.4954 16.5828 44.5408 16.8992 44.5408 17.2479V17.7752H40.7615V16.9315H43.2971V16.8348C43.2971 16.659 43.2649 16.5023 43.2004 16.3646C43.1389 16.2239 43.0452 16.1126 42.9192 16.0306C42.7932 15.9485 42.6321 15.9075 42.4358 15.9075C42.2688 15.9075 42.1252 15.9442 42.0051 16.0174C41.885 16.0906 41.7869 16.1932 41.7107 16.325C41.6375 16.4568 41.5818 16.6121 41.5437 16.7908C41.5085 16.9666 41.491 17.16 41.491 17.3709V17.5467C41.491 17.7371 41.5173 17.9129 41.5701 18.074C41.6257 18.2352 41.7034 18.3743 41.803 18.4915C41.9055 18.6087 42.0286 18.6995 42.1721 18.764C42.3186 18.8284 42.4841 18.8607 42.6687 18.8607C42.8972 18.8607 43.1096 18.8167 43.3059 18.7288C43.5051 18.638 43.6765 18.5018 43.8201 18.3201L44.4353 18.9881C44.3357 19.1317 44.1995 19.2693 44.0266 19.4012C43.8567 19.533 43.6516 19.6414 43.4114 19.7264C43.1711 19.8084 42.8972 19.8494 42.5896 19.8494ZM46.6194 18.5311L47.6082 15.0067H48.4124L48.1531 16.3909L47.1643 19.7615H46.4919L46.6194 18.5311ZM46.1184 15.0067L46.8259 18.5267L46.8918 19.7615H46.1008L44.8967 15.0067H46.1184ZM49.3176 18.4695L50.0076 15.0067H51.2336L50.0295 19.7615H49.2429L49.3176 18.4695ZM48.5222 15.0067L49.5066 18.5047L49.6428 19.7615H48.9661L47.9773 16.3953L47.7268 15.0067H48.5222ZM56.696 16.9534H55.0525L55.0437 16.0482H56.4236C56.6667 16.0482 56.866 16.0174 57.0212 15.9559C57.1765 15.8914 57.2922 15.7991 57.3684 15.679C57.4475 15.556 57.4871 15.4066 57.4871 15.2308C57.4871 15.0316 57.449 14.8704 57.3728 14.7474C57.2996 14.6243 57.1838 14.535 57.0256 14.4793C56.8704 14.4236 56.6697 14.3958 56.4236 14.3958H55.5095V19.7615H54.1912V13.3631H56.4236C56.7957 13.3631 57.1282 13.3983 57.4211 13.4686C57.717 13.5389 57.9675 13.6458 58.1726 13.7894C58.3777 13.9329 58.5344 14.1146 58.6428 14.3343C58.7512 14.5511 58.8054 14.8089 58.8054 15.1077C58.8054 15.3714 58.7454 15.6146 58.6252 15.8372C58.5081 16.0599 58.322 16.2415 58.0671 16.3821C57.8152 16.5228 57.4856 16.6004 57.0784 16.6151L56.696 16.9534ZM56.6389 19.7615H54.6921L55.2063 18.7332H56.6389C56.8704 18.7332 57.0593 18.6966 57.2058 18.6234C57.3523 18.5472 57.4607 18.4446 57.531 18.3157C57.6013 18.1868 57.6365 18.0389 57.6365 17.8719C57.6365 17.6844 57.6042 17.5218 57.5398 17.3841C57.4783 17.2464 57.3787 17.1409 57.241 17.0677C57.1033 16.9915 56.9216 16.9534 56.696 16.9534H55.426L55.4348 16.0482H57.0168L57.3201 16.4041C57.7097 16.3983 58.0232 16.4671 58.2605 16.6107C58.5007 16.7513 58.675 16.9344 58.7834 17.16C58.8948 17.3856 58.9504 17.6273 58.9504 17.8851C58.9504 18.2952 58.8611 18.6409 58.6824 18.9222C58.5037 19.2005 58.2415 19.41 57.8958 19.5506C57.553 19.6912 57.134 19.7615 56.6389 19.7615ZM62.4265 18.6893V16.5711C62.4265 16.4188 62.4016 16.2884 62.3518 16.18C62.302 16.0687 62.2244 15.9822 62.1189 15.9207C62.0164 15.8592 61.8831 15.8284 61.719 15.8284C61.5784 15.8284 61.4568 15.8533 61.3542 15.9031C61.2517 15.95 61.1726 16.0189 61.1169 16.1097C61.0613 16.1976 61.0334 16.3016 61.0334 16.4217H59.7678C59.7678 16.2195 59.8147 16.0276 59.9084 15.846C60.0022 15.6644 60.1384 15.5047 60.3171 15.367C60.4958 15.2264 60.7083 15.1165 60.9543 15.0374C61.2034 14.9583 61.4817 14.9188 61.7893 14.9188C62.1584 14.9188 62.4866 14.9803 62.7737 15.1033C63.0608 15.2264 63.2864 15.4109 63.4504 15.657C63.6174 15.9031 63.7009 16.2108 63.7009 16.5799V18.6146C63.7009 18.8753 63.717 19.0892 63.7493 19.2562C63.7815 19.4202 63.8284 19.5638 63.8899 19.6868V19.7615H62.6111C62.5496 19.6326 62.5027 19.4715 62.4705 19.2781C62.4412 19.0818 62.4265 18.8856 62.4265 18.6893ZM62.5935 16.8655L62.6023 17.5818H61.8948C61.7278 17.5818 61.5828 17.6009 61.4597 17.639C61.3367 17.6771 61.2356 17.7313 61.1565 17.8016C61.0774 17.869 61.0188 17.9481 60.9807 18.0389C60.9456 18.1297 60.928 18.2293 60.928 18.3377C60.928 18.4461 60.9529 18.5443 61.0027 18.6321C61.0525 18.7171 61.1243 18.7845 61.218 18.8343C61.3118 18.8812 61.4216 18.9046 61.5476 18.9046C61.738 18.9046 61.9036 18.8665 62.0442 18.7903C62.1848 18.7142 62.2932 18.6204 62.3694 18.5091C62.4485 18.3978 62.4895 18.2923 62.4924 18.1927L62.8264 18.7288C62.7795 18.8489 62.7151 18.9734 62.6331 19.1024C62.554 19.2313 62.4529 19.3528 62.3298 19.4671C62.2068 19.5784 62.0588 19.6707 61.886 19.744C61.7131 19.8143 61.5081 19.8494 61.2708 19.8494C60.969 19.8494 60.6951 19.7894 60.449 19.6693C60.2058 19.5462 60.0125 19.3777 59.8689 19.1639C59.7283 18.9471 59.658 18.701 59.658 18.4256C59.658 18.1766 59.7048 17.9554 59.7986 17.762C59.8923 17.5687 60.03 17.4061 60.2117 17.2742C60.3962 17.1395 60.6262 17.0384 60.9016 16.971C61.177 16.9007 61.4963 16.8655 61.8596 16.8655H62.5935ZM67.2473 18.4476C67.2473 18.3568 67.2209 18.2747 67.1682 18.2015C67.1155 18.1282 67.0173 18.0609 66.8738 17.9993C66.7332 17.9349 66.5295 17.8763 66.2629 17.8235C66.0227 17.7708 65.7986 17.7049 65.5906 17.6258C65.3855 17.5438 65.2068 17.4456 65.0544 17.3314C64.905 17.2171 64.7878 17.0823 64.7029 16.9271C64.6179 16.7689 64.5754 16.5887 64.5754 16.3865C64.5754 16.1873 64.6179 15.9998 64.7029 15.824C64.7908 15.6483 64.9153 15.493 65.0764 15.3582C65.2405 15.2205 65.4397 15.1136 65.6741 15.0374C65.9114 14.9583 66.178 14.9188 66.4739 14.9188C66.887 14.9188 67.2415 14.9847 67.5374 15.1165C67.8362 15.2484 68.0647 15.43 68.2229 15.6614C68.384 15.89 68.4646 16.1507 68.4646 16.4437H67.199C67.199 16.3206 67.1726 16.2108 67.1199 16.1141C67.0701 16.0145 66.991 15.9368 66.8826 15.8812C66.7771 15.8226 66.6394 15.7933 66.4695 15.7933C66.3289 15.7933 66.2073 15.8182 66.1047 15.868C66.0022 15.9149 65.9231 15.9793 65.8674 16.0613C65.8147 16.1404 65.7883 16.2283 65.7883 16.325C65.7883 16.3983 65.803 16.4642 65.8323 16.5228C65.8645 16.5784 65.9158 16.6297 65.9861 16.6766C66.0564 16.7234 66.1472 16.7674 66.2585 16.8084C66.3728 16.8465 66.5134 16.8817 66.6804 16.9139C67.0232 16.9842 67.3293 17.0765 67.5989 17.1907C67.8684 17.3021 68.0823 17.4544 68.2405 17.6478C68.3987 17.8382 68.4778 18.0887 68.4778 18.3992C68.4778 18.6102 68.4309 18.8035 68.3372 18.9793C68.2434 19.1551 68.1086 19.3089 67.9329 19.4407C67.7571 19.5696 67.5461 19.6707 67.3 19.744C67.0569 19.8143 66.783 19.8494 66.4783 19.8494C66.0359 19.8494 65.6609 19.7703 65.3533 19.6121C65.0486 19.4539 64.8171 19.2532 64.6589 19.0101C64.5037 18.764 64.426 18.512 64.426 18.2542H65.6257C65.6316 18.4271 65.6755 18.5662 65.7576 18.6717C65.8425 18.7772 65.9495 18.8533 66.0784 18.9002C66.2102 18.9471 66.3523 18.9705 66.5046 18.9705C66.6687 18.9705 66.8049 18.9485 66.9133 18.9046C67.0217 18.8577 67.1038 18.7962 67.1594 18.72C67.218 18.6409 67.2473 18.5501 67.2473 18.4476ZM71.488 19.8494C71.1189 19.8494 70.7878 19.7908 70.4949 19.6736C70.2019 19.5535 69.9529 19.388 69.7478 19.1771C69.5457 18.9661 69.3904 18.7215 69.282 18.4432C69.1736 18.1619 69.1194 17.8631 69.1194 17.5467V17.3709C69.1194 17.0106 69.1707 16.681 69.2732 16.3821C69.3757 16.0833 69.5222 15.824 69.7126 15.6043C69.906 15.3846 70.1404 15.2161 70.4158 15.0989C70.6912 14.9788 71.0017 14.9188 71.3474 14.9188C71.6843 14.9188 71.9832 14.9744 72.2439 15.0858C72.5046 15.1971 72.7229 15.3553 72.8987 15.5604C73.0774 15.7654 73.2122 16.0115 73.303 16.2986C73.3938 16.5828 73.4392 16.8992 73.4392 17.2479V17.7752H69.6599V16.9315H72.1956V16.8348C72.1956 16.659 72.1633 16.5023 72.0989 16.3646C72.0374 16.2239 71.9436 16.1126 71.8176 16.0306C71.6917 15.9485 71.5305 15.9075 71.3342 15.9075C71.1672 15.9075 71.0237 15.9442 70.9036 16.0174C70.7834 16.0906 70.6853 16.1932 70.6091 16.325C70.5359 16.4568 70.4802 16.6121 70.4421 16.7908C70.407 16.9666 70.3894 17.16 70.3894 17.3709V17.5467C70.3894 17.7371 70.4158 17.9129 70.4685 18.074C70.5242 18.2352 70.6018 18.3743 70.7014 18.4915C70.804 18.6087 70.927 18.6995 71.0706 18.764C71.217 18.8284 71.3826 18.8607 71.5671 18.8607C71.7957 18.8607 72.0081 18.8167 72.2043 18.7288C72.4036 18.638 72.575 18.5018 72.7185 18.3201L73.3337 18.9881C73.2341 19.1317 73.0979 19.2693 72.925 19.4012C72.7551 19.533 72.55 19.6414 72.3098 19.7264C72.0696 19.8084 71.7957 19.8494 71.488 19.8494Z" fill="#070C12"/>
<defs>
<filter id="filter0_i_163_5196" x="0.730469" y="0.421875" width="110.648" height="31.6793" filterUnits="userSpaceOnUse" color-interpolation-filters="sRGB">
<feFlood flood-opacity="0" result="BackgroundImageFix"/>
<feBlend mode="normal" in="SourceGraphic" in2="BackgroundImageFix" result="shape"/>
<feColorMatrix in="SourceAlpha" type="matrix" values="0 0 0 0 0 0 0 0 0 0 0 0 0 0 0 0 0 0 127 0" result="hardAlpha"/>
<feOffset dy="-10"/>
<feComposite in2="hardAlpha" operator="arithmetic" k2="-1" k3="1"/>
<feColorMatrix type="matrix" values="0 0 0 0 0 0 0 0 0 0 0 0 0 0 0 0 0 0 0.25 0"/>
<feBlend mode="normal" in2="shape" result="effect1_innerShadow_163_5196"/>
</filter>
</defs>
</svg>
