<svg width="25" height="26" viewBox="0 0 25 26" fill="none" xmlns="http://www.w3.org/2000/svg">
<g filter="url(#filter0_d_229_7236)">
<path d="M12.3947 0.262207C6.07019 0.262207 0.728027 5.60437 0.728027 11.9289C0.728027 18.2534 6.07019 23.5955 12.3947 23.5955C18.7192 23.5955 24.0614 18.2534 24.0614 11.9289C24.0614 5.60437 18.7192 0.262207 12.3947 0.262207ZM12.3947 6.09554C14.4095 6.09554 15.8947 7.57954 15.8947 9.59554C15.8947 11.6115 14.4095 13.0955 12.3947 13.0955C10.381 13.0955 8.89469 11.6115 8.89469 9.59554C8.89469 7.57954 10.381 6.09554 12.3947 6.09554ZM6.43769 17.4962C7.48419 15.9562 9.22953 14.9295 11.228 14.9295H13.5614C15.561 14.9295 17.3052 15.9562 18.3517 17.4962C16.8607 19.0922 14.7455 20.0955 12.3947 20.0955C10.0439 20.0955 7.92869 19.0922 6.43769 17.4962Z" fill="#F9FC02"/>
</g>
<defs>
<filter id="filter0_d_229_7236" x="0.728027" y="0.262207" width="23.3333" height="27.3335" filterUnits="userSpaceOnUse" color-interpolation-filters="sRGB">
<feFlood flood-opacity="0" result="BackgroundImageFix"/>
<feColorMatrix in="SourceAlpha" type="matrix" values="0 0 0 0 0 0 0 0 0 0 0 0 0 0 0 0 0 0 127 0" result="hardAlpha"/>
<feOffset dy="4"/>
<feComposite in2="hardAlpha" operator="out"/>
<feColorMatrix type="matrix" values="0 0 0 0 0 0 0 0 0 0 0 0 0 0 0 0 0 0 0.32 0"/>
<feBlend mode="normal" in2="BackgroundImageFix" result="effect1_dropShadow_229_7236"/>
<feBlend mode="normal" in="SourceGraphic" in2="effect1_dropShadow_229_7236" result="shape"/>
</filter>
</defs>
</svg>
