<svg width="20" height="27" viewBox="0 0 20 27" fill="none" xmlns="http://www.w3.org/2000/svg">
<mask id="path-1-inside-1_228_701" fill="white">
<path fill-rule="evenodd" clip-rule="evenodd" d="M0.525391 0.730225C0.249248 0.730225 0.0253906 0.954081 0.0253906 1.23022V19.1015C0.0253906 19.3354 0.186051 19.5318 0.403054 19.5864C0.367783 19.7615 0.422722 19.9555 0.595765 20.084L9.43405 26.6478C9.61106 26.7793 9.85327 26.7793 10.0303 26.6478L18.8686 20.084C19.0416 19.9555 19.0966 19.7615 19.0613 19.5863C19.2781 19.5316 19.4385 19.3353 19.4385 19.1015V1.23022C19.4385 0.954082 19.2147 0.730225 18.9385 0.730225H0.525391Z"/>
</mask>
<path fill-rule="evenodd" clip-rule="evenodd" d="M0.525391 0.730225C0.249248 0.730225 0.0253906 0.954081 0.0253906 1.23022V19.1015C0.0253906 19.3354 0.186051 19.5318 0.403054 19.5864C0.367783 19.7615 0.422722 19.9555 0.595765 20.084L9.43405 26.6478C9.61106 26.7793 9.85327 26.7793 10.0303 26.6478L18.8686 20.084C19.0416 19.9555 19.0966 19.7615 19.0613 19.5863C19.2781 19.5316 19.4385 19.3353 19.4385 19.1015V1.23022C19.4385 0.954082 19.2147 0.730225 18.9385 0.730225H0.525391Z" fill="#313B47"/>
<path d="M0.403054 19.5864L1.38337 19.7838L1.57161 18.8491L0.646945 18.6166L0.403054 19.5864ZM0.595765 20.084L-0.000455491 20.8868L-0.000454269 20.8868L0.595765 20.084ZM9.43405 26.6478L10.0303 25.845L10.0303 25.845L9.43405 26.6478ZM10.0303 26.6478L10.6265 27.4506L10.0303 26.6478ZM18.8686 20.084L19.4648 20.8868H19.4648L18.8686 20.084ZM19.0613 19.5863L18.8166 18.6167L17.8927 18.8499L18.081 19.7839L19.0613 19.5863ZM1.02539 1.23022C1.02539 1.50637 0.801531 1.73022 0.525391 1.73022V-0.269775C-0.303034 -0.269775 -0.974609 0.401794 -0.974609 1.23022H1.02539ZM1.02539 19.1015V1.23022H-0.974609V19.1015H1.02539ZM0.646945 18.6166C0.86381 18.6711 1.02539 18.8662 1.02539 19.1015H-0.974609C-0.974609 19.8046 -0.491708 20.3925 0.159164 20.5562L0.646945 18.6166ZM1.19198 19.2812C1.26352 19.3343 1.32693 19.4155 1.36275 19.5156C1.39686 19.6108 1.39943 19.7041 1.38337 19.7838L-0.577262 19.389C-0.681768 19.9079 -0.512776 20.5064 -0.000455491 20.8868L1.19198 19.2812ZM10.0303 25.845L1.19198 19.2812L-0.000454269 20.8868L8.83784 27.4506L10.0303 25.845ZM9.43405 25.845C9.61106 25.7135 9.85327 25.7135 10.0303 25.845L8.83783 27.4506C9.36884 27.845 10.0955 27.845 10.6265 27.4506L9.43405 25.845ZM18.2723 19.2812L9.43405 25.845L10.6265 27.4506L19.4648 20.8868L18.2723 19.2812ZM18.081 19.7839C18.0649 19.7042 18.0675 19.6109 18.1016 19.5156C18.1374 19.4156 18.2008 19.3343 18.2723 19.2812L19.4648 20.8868C19.9772 20.5063 20.1462 19.9076 20.0415 19.3887L18.081 19.7839ZM18.4385 19.1015C18.4385 18.8663 18.5999 18.6714 18.8166 18.6167L19.3059 20.5559C19.9562 20.3918 20.4385 19.8042 20.4385 19.1015H18.4385ZM18.4385 1.23022V19.1015H20.4385V1.23022H18.4385ZM18.9385 1.73022C18.6624 1.73022 18.4385 1.50637 18.4385 1.23022H20.4385C20.4385 0.401797 19.7669 -0.269775 18.9385 -0.269775V1.73022ZM0.525391 1.73022H18.9385V-0.269775H0.525391V1.73022Z" fill="#5A616A" mask="url(#path-1-inside-1_228_701)"/>
<g clip-path="url(#clip0_228_701)">
<path d="M11.9543 8.9021L9.7306 7.67235L7.50635 8.9012L7.93158 6.29764L6.13266 4.4533L8.61921 4.07395L9.73168 1.70527L10.8432 4.07445L13.3296 4.45483L11.5301 6.29836L11.9543 8.9021Z" fill="#FFCC00"/>
<path d="M10.8512 4.05933C9.72512 5.67104 9.71289 5.68857 9.71289 5.68857L13.3225 4.4458L10.8512 4.05933Z" fill="#FFE680"/>
<path d="M9.73107 5.65405V7.67769L7.48438 8.88999L9.73107 5.65405Z" fill="#FFDD55"/>
<path d="M9.73047 5.65405L11.9395 8.82831L11.5249 6.25761L9.73047 5.65405Z" fill="#FFDD55"/>
<path d="M6.14648 4.44869L9.73034 5.65417L8.62304 4.06299L6.14648 4.44869Z" fill="#FFE680"/>
<path d="M9.73047 5.65393V1.71045L10.8358 4.06192L9.73047 5.65393Z" fill="#FFDD55"/>
<path d="M7.50781 8.8573L7.9251 6.2649L9.73183 5.65405L7.50781 8.8573Z" fill="#FFD42A"/>
</g>
<path d="M0.650391 19.1123V15.8948L10.1178 20.0857L18.8123 15.8948V19.1123L10.1178 23.4385L0.650391 19.1123Z" fill="url(#paint0_linear_228_701)"/>
<path d="M0.650391 15.1675V11.95L10.1178 16.1409L18.8123 11.95V15.1675L10.1178 19.4937L0.650391 15.1675Z" fill="url(#paint1_linear_228_701)"/>
<path d="M0.650391 11.2229V8.00537L10.1178 12.1963L18.8123 8.00537V11.2229L10.1178 15.5491L0.650391 11.2229Z" fill="url(#paint2_linear_228_701)"/>
<defs>
<linearGradient id="paint0_linear_228_701" x1="2.0973" y1="10.15" x2="27.4456" y2="16.397" gradientUnits="userSpaceOnUse">
<stop stop-color="#FFE680"/>
<stop offset="1" stop-color="#FFCC00"/>
</linearGradient>
<linearGradient id="paint1_linear_228_701" x1="2.0973" y1="6.20522" x2="27.4456" y2="12.4521" gradientUnits="userSpaceOnUse">
<stop stop-color="#FFE680"/>
<stop offset="1" stop-color="#FFCC00"/>
</linearGradient>
<linearGradient id="paint2_linear_228_701" x1="2.0973" y1="2.26064" x2="27.4456" y2="8.50756" gradientUnits="userSpaceOnUse">
<stop stop-color="#FFE680"/>
<stop offset="1" stop-color="#FFCC00"/>
</linearGradient>
<clipPath id="clip0_228_701">
<rect width="7.19698" height="7.19698" fill="white" transform="translate(6.13281 1.70557)"/>
</clipPath>
</defs>
</svg>
