<svg width="20" height="27" viewBox="0 0 20 27" fill="none" xmlns="http://www.w3.org/2000/svg">
<mask id="path-1-inside-1_228_719" fill="white">
<path fill-rule="evenodd" clip-rule="evenodd" d="M1.05078 0.769043C0.774639 0.769043 0.550781 0.9929 0.550781 1.26904V19.1403C0.550781 19.3742 0.711441 19.5706 0.928445 19.6252C0.893174 19.8004 0.948112 19.9943 1.12116 20.1228L9.95944 26.6866C10.1364 26.8181 10.3787 26.8181 10.5557 26.6866L19.394 20.1228C19.567 19.9943 19.622 19.8003 19.5866 19.6251C19.8034 19.5704 19.9639 19.3741 19.9639 19.1403V1.26904C19.9639 0.992901 19.7401 0.769043 19.4639 0.769043H1.05078Z"/>
</mask>
<path fill-rule="evenodd" clip-rule="evenodd" d="M1.05078 0.769043C0.774639 0.769043 0.550781 0.9929 0.550781 1.26904V19.1403C0.550781 19.3742 0.711441 19.5706 0.928445 19.6252C0.893174 19.8004 0.948112 19.9943 1.12116 20.1228L9.95944 26.6866C10.1364 26.8181 10.3787 26.8181 10.5557 26.6866L19.394 20.1228C19.567 19.9943 19.622 19.8003 19.5866 19.6251C19.8034 19.5704 19.9639 19.3741 19.9639 19.1403V1.26904C19.9639 0.992901 19.7401 0.769043 19.4639 0.769043H1.05078Z" fill="#313B47"/>
<path d="M0.928445 19.6252L1.90876 19.8227L2.097 18.888L1.17234 18.6554L0.928445 19.6252ZM1.12116 20.1228L0.524935 20.9257L0.524936 20.9257L1.12116 20.1228ZM9.95944 26.6866L10.5557 25.8838L10.5557 25.8838L9.95944 26.6866ZM10.5557 26.6866L11.1519 27.4895L10.5557 26.6866ZM19.394 20.1228L19.9902 20.9257H19.9902L19.394 20.1228ZM19.5866 19.6251L19.342 18.6555L18.4181 18.8887L18.6064 19.8227L19.5866 19.6251ZM1.55078 1.26904C1.55078 1.54519 1.32692 1.76904 1.05078 1.76904V-0.230957C0.222357 -0.230957 -0.449219 0.440613 -0.449219 1.26904H1.55078ZM1.55078 19.1403V1.26904H-0.449219V19.1403H1.55078ZM1.17234 18.6554C1.3892 18.71 1.55078 18.905 1.55078 19.1403H-0.449219C-0.449219 19.8435 0.0336823 20.4313 0.684555 20.595L1.17234 18.6554ZM1.71738 19.32C1.78891 19.3731 1.85232 19.4544 1.88814 19.5544C1.92225 19.6496 1.92482 19.7429 1.90876 19.8227L-0.0518718 19.4278C-0.156378 19.9467 0.0126142 20.5452 0.524935 20.9257L1.71738 19.32ZM10.5557 25.8838L1.71737 19.32L0.524936 20.9257L9.36323 27.4895L10.5557 25.8838ZM9.95944 25.8838C10.1364 25.7524 10.3787 25.7524 10.5557 25.8838L9.36322 27.4895C9.89423 27.8838 10.6209 27.8838 11.1519 27.4895L9.95944 25.8838ZM18.7977 19.32L9.95944 25.8838L11.1519 27.4895L19.9902 20.9257L18.7977 19.32ZM18.6064 19.8227C18.5903 19.743 18.5928 19.6497 18.6269 19.5544C18.6628 19.4544 18.7262 19.3732 18.7977 19.32L19.9902 20.9257C20.5026 20.5451 20.6715 19.9465 20.5669 19.4275L18.6064 19.8227ZM18.9639 19.1403C18.9639 18.9051 19.1253 18.7102 19.342 18.6555L19.8313 20.5947C20.4816 20.4306 20.9639 19.843 20.9639 19.1403H18.9639ZM18.9639 1.26904V19.1403H20.9639V1.26904H18.9639ZM19.4639 1.76904C19.1878 1.76904 18.9639 1.54519 18.9639 1.26904H20.9639C20.9639 0.440616 20.2923 -0.230957 19.4639 -0.230957V1.76904ZM1.05078 1.76904H19.4639V-0.230957H1.05078V1.76904Z" fill="#5A616A" mask="url(#path-1-inside-1_228_719)"/>
<g clip-path="url(#clip0_228_719)">
<path d="M12.4797 11.9883L10.256 10.7585L8.03174 11.9874L8.45697 9.38382L6.65805 7.53949L9.1446 7.16013L10.2571 4.79145L11.3686 7.16063L13.855 7.54101L12.0555 9.38454L12.4797 11.9883Z" fill="#FFCC00"/>
<path d="M11.3766 7.14551C10.2505 8.75722 10.2383 8.77475 10.2383 8.77475L13.8479 7.53199L11.3766 7.14551Z" fill="#FFE680"/>
<path d="M10.2565 8.74023V10.7639L8.00977 11.9762L10.2565 8.74023Z" fill="#FFDD55"/>
<path d="M10.2559 8.74023L12.4649 11.9145L12.0503 9.34379L10.2559 8.74023Z" fill="#FFDD55"/>
<path d="M6.67188 7.53487L10.2557 8.74035L9.14843 7.14917L6.67188 7.53487Z" fill="#FFE680"/>
<path d="M10.2559 8.74011V4.79663L11.3612 7.14811L10.2559 8.74011Z" fill="#FFDD55"/>
<path d="M8.0332 11.9435L8.45049 9.35108L10.2572 8.74023L8.0332 11.9435Z" fill="#FFD42A"/>
</g>
<path d="M1.17578 15.2063V11.9888L10.6432 16.1797L19.3377 11.9888V15.2063L10.6432 19.5325L1.17578 15.2063Z" fill="url(#paint0_linear_228_719)"/>
<defs>
<linearGradient id="paint0_linear_228_719" x1="2.62269" y1="6.24404" x2="27.971" y2="12.491" gradientUnits="userSpaceOnUse">
<stop stop-color="#FFE680"/>
<stop offset="1" stop-color="#FFCC00"/>
</linearGradient>
<clipPath id="clip0_228_719">
<rect width="7.19698" height="7.19698" fill="white" transform="translate(6.6582 4.79175)"/>
</clipPath>
</defs>
</svg>
