<svg width="20" height="21" viewBox="0 0 20 21" fill="none" xmlns="http://www.w3.org/2000/svg">
<g clip-path="url(#clip0_163_6799)">
<path d="M9.11893 3.68442C10.2622 3.68332 11.38 4.03917 12.3311 4.70695C13.2822 5.37472 14.0237 6.32442 14.4619 7.43591C14.9002 8.5474 15.0154 9.77073 14.793 10.9511C14.5706 12.1316 14.0206 13.216 13.2126 14.0674C12.4045 14.9187 11.3748 15.4986 10.2536 15.7338C9.13241 15.969 7.97015 15.8488 6.91383 15.3885C5.85752 14.9283 4.95463 14.1486 4.31937 13.148C3.68411 12.1475 3.34504 10.9712 3.34504 9.76775C3.35197 8.15756 3.96235 6.61532 5.04351 5.47621C6.12468 4.3371 7.58925 3.69319 9.11893 3.68442ZM9.11893 2.54553C7.76193 2.54553 6.4354 2.96911 5.3071 3.7627C4.17879 4.55628 3.29939 5.68424 2.78009 7.00393C2.26079 8.32362 2.12491 9.77577 2.38965 11.1767C2.65439 12.5777 3.30784 13.8646 4.26739 14.8746C5.22693 15.8847 6.44947 16.5725 7.78039 16.8512C9.11132 17.1299 10.4909 16.9868 11.7446 16.4402C12.9983 15.8936 14.0698 14.9679 14.8237 13.7802C15.5776 12.5925 15.98 11.1962 15.98 9.76775C15.98 7.8523 15.2572 6.0153 13.9705 4.66087C12.6838 3.30644 10.9386 2.54553 9.11893 2.54553Z" fill="white"/>
<path d="M18.9722 19.3733L15.0825 15.2511L14.333 16.0344L18.2227 20.1567C18.2716 20.2085 18.3297 20.2496 18.3936 20.2778C18.4576 20.306 18.5262 20.3206 18.5956 20.3209C18.6649 20.3211 18.7336 20.307 18.7978 20.2793C18.862 20.2516 18.9203 20.2109 18.9695 20.1594C19.0187 20.108 19.0578 20.0469 19.0846 19.9795C19.1114 19.9122 19.1253 19.8399 19.1255 19.767C19.1258 19.694 19.1124 19.6216 19.086 19.5541C19.0597 19.4865 19.021 19.4251 18.9722 19.3733Z" fill="white"/>
</g>
<defs>
<clipPath id="clip0_163_6799">
<rect width="19" height="20" fill="white" transform="translate(0.5 0.878906)"/>
</clipPath>
</defs>
</svg>
