<svg width="100" height="40" viewBox="0 0 100 40" fill="none" xmlns="http://www.w3.org/2000/svg">
<rect x="2.57812" y="2.33887" width="94.8649" height="35.6244" rx="14" fill="#C4C4C4"/>
<g filter="url(#filter0_i_227_78)">
<rect x="2.57812" y="2.33887" width="94.8649" height="35.6244" rx="8" fill="#F00001"/>
</g>
<rect x="1.57812" y="1.33887" width="96.8649" height="37.6244" rx="9" stroke="#5A616A" stroke-width="2"/>
<rect x="4.95703" y="4.84082" width="90.1079" height="13.5107" rx="6.75536" fill="#FE696B"/>
<ellipse cx="14.2145" cy="11.0849" rx="5.31631" ry="3.32273" transform="rotate(-1.72068 14.2145 11.0849)" fill="#F7FDFA"/>
<ellipse cx="23.9032" cy="7.60416" rx="2.33124" ry="1.45704" transform="rotate(-1.72068 23.9032 7.60416)" fill="#F7FDFA"/>
<path d="M26.2148 21.9189C26.2148 21.7666 26.1914 21.6299 26.1445 21.5088C26.1016 21.3838 26.0195 21.2705 25.8984 21.1689C25.7773 21.0635 25.6074 20.96 25.3887 20.8584C25.1699 20.7568 24.8867 20.6514 24.5391 20.542C24.1523 20.417 23.7852 20.2764 23.4375 20.1201C23.0938 19.9639 22.7891 19.7822 22.5234 19.5752C22.2617 19.3643 22.0547 19.1201 21.9023 18.8428C21.7539 18.5654 21.6797 18.2432 21.6797 17.876C21.6797 17.5205 21.7578 17.1982 21.9141 16.9092C22.0703 16.6162 22.2891 16.3662 22.5703 16.1592C22.8516 15.9482 23.1836 15.7861 23.5664 15.6729C23.9531 15.5596 24.377 15.5029 24.8379 15.5029C25.4668 15.5029 26.0156 15.6162 26.4844 15.8428C26.9531 16.0693 27.3164 16.3799 27.5742 16.7744C27.8359 17.1689 27.9668 17.6201 27.9668 18.1279H26.2207C26.2207 17.8779 26.168 17.6592 26.0625 17.4717C25.9609 17.2803 25.8047 17.1299 25.5938 17.0205C25.3867 16.9111 25.125 16.8564 24.8086 16.8564C24.5039 16.8564 24.25 16.9033 24.0469 16.9971C23.8438 17.0869 23.6914 17.21 23.5898 17.3662C23.4883 17.5186 23.4375 17.6904 23.4375 17.8818C23.4375 18.0264 23.4727 18.1572 23.543 18.2744C23.6172 18.3916 23.7266 18.501 23.8711 18.6025C24.0156 18.7041 24.1934 18.7998 24.4043 18.8896C24.6152 18.9795 24.8594 19.0674 25.1367 19.1533C25.6016 19.2939 26.0098 19.4521 26.3613 19.6279C26.7168 19.8037 27.0137 20.001 27.252 20.2197C27.4902 20.4385 27.6699 20.6865 27.791 20.9639C27.9121 21.2412 27.9727 21.5557 27.9727 21.9072C27.9727 22.2783 27.9004 22.6104 27.7559 22.9033C27.6113 23.1963 27.4023 23.4443 27.1289 23.6475C26.8555 23.8506 26.5293 24.0049 26.1504 24.1104C25.7715 24.2158 25.3477 24.2686 24.8789 24.2686C24.457 24.2686 24.041 24.2139 23.6309 24.1045C23.2207 23.9912 22.8477 23.8213 22.5117 23.5947C22.1797 23.3682 21.9141 23.0791 21.7148 22.7275C21.5156 22.376 21.416 21.96 21.416 21.4795H23.1797C23.1797 21.7451 23.2207 21.9697 23.3027 22.1533C23.3848 22.3369 23.5 22.4854 23.6484 22.5986C23.8008 22.7119 23.9805 22.7939 24.1875 22.8447C24.3984 22.8955 24.6289 22.9209 24.8789 22.9209C25.1836 22.9209 25.4336 22.8779 25.6289 22.792C25.8281 22.7061 25.9746 22.5869 26.0684 22.4346C26.166 22.2822 26.2148 22.1104 26.2148 21.9189ZM30.709 15.1514V24.1514H29.0215V15.1514H30.709ZM30.4688 20.7588H30.0059C30.0098 20.3174 30.0684 19.9111 30.1816 19.54C30.2949 19.165 30.457 18.8408 30.668 18.5674C30.8789 18.29 31.1309 18.0752 31.4238 17.9229C31.7207 17.7705 32.0488 17.6943 32.4082 17.6943C32.7207 17.6943 33.0039 17.7393 33.2578 17.8291C33.5156 17.915 33.7363 18.0557 33.9199 18.251C34.1074 18.4424 34.252 18.6943 34.3535 19.0068C34.4551 19.3193 34.5059 19.6982 34.5059 20.1436V24.1514H32.8066V20.1318C32.8066 19.8506 32.7656 19.6299 32.6836 19.4697C32.6055 19.3057 32.4902 19.1904 32.3379 19.124C32.1895 19.0537 32.0059 19.0186 31.7871 19.0186C31.5449 19.0186 31.3379 19.0635 31.166 19.1533C30.998 19.2432 30.8633 19.3682 30.7617 19.5283C30.6602 19.6846 30.5859 19.8682 30.5391 20.0791C30.4922 20.29 30.4688 20.5166 30.4688 20.7588ZM35.5195 21.0459V20.9229C35.5195 20.458 35.5859 20.0303 35.7188 19.6396C35.8516 19.2451 36.0449 18.9033 36.2988 18.6143C36.5527 18.3252 36.8652 18.1006 37.2363 17.9404C37.6074 17.7764 38.0332 17.6943 38.5137 17.6943C38.9941 17.6943 39.4219 17.7764 39.7969 17.9404C40.1719 18.1006 40.4863 18.3252 40.7402 18.6143C40.998 18.9033 41.1934 19.2451 41.3262 19.6396C41.459 20.0303 41.5254 20.458 41.5254 20.9229V21.0459C41.5254 21.5068 41.459 21.9346 41.3262 22.3291C41.1934 22.7197 40.998 23.0615 40.7402 23.3545C40.4863 23.6436 40.1738 23.8682 39.8027 24.0283C39.4316 24.1885 39.0059 24.2686 38.5254 24.2686C38.0449 24.2686 37.6172 24.1885 37.2422 24.0283C36.8711 23.8682 36.5566 23.6436 36.2988 23.3545C36.0449 23.0615 35.8516 22.7197 35.7188 22.3291C35.5859 21.9346 35.5195 21.5068 35.5195 21.0459ZM37.207 20.9229V21.0459C37.207 21.3115 37.2305 21.5596 37.2773 21.79C37.3242 22.0205 37.3984 22.2236 37.5 22.3994C37.6055 22.5713 37.7422 22.7061 37.9102 22.8037C38.0781 22.9014 38.2832 22.9502 38.5254 22.9502C38.7598 22.9502 38.9609 22.9014 39.1289 22.8037C39.2969 22.7061 39.4316 22.5713 39.5332 22.3994C39.6348 22.2236 39.709 22.0205 39.7559 21.79C39.8066 21.5596 39.832 21.3115 39.832 21.0459V20.9229C39.832 20.665 39.8066 20.4229 39.7559 20.1963C39.709 19.9658 39.6328 19.7627 39.5273 19.5869C39.4258 19.4072 39.291 19.2666 39.123 19.165C38.9551 19.0635 38.752 19.0127 38.5137 19.0127C38.2754 19.0127 38.0723 19.0635 37.9043 19.165C37.7402 19.2666 37.6055 19.4072 37.5 19.5869C37.3984 19.7627 37.3242 19.9658 37.2773 20.1963C37.2305 20.4229 37.207 20.665 37.207 20.9229ZM44.25 19.0303V26.5889H42.5625V17.8115H44.127L44.25 19.0303ZM48.2637 20.9111V21.0342C48.2637 21.4951 48.209 21.9229 48.0996 22.3174C47.9941 22.7119 47.8379 23.0557 47.6309 23.3486C47.4238 23.6377 47.166 23.8643 46.8574 24.0283C46.5527 24.1885 46.2012 24.2686 45.8027 24.2686C45.416 24.2686 45.0801 24.1904 44.7949 24.0342C44.5098 23.8779 44.2695 23.6592 44.0742 23.3779C43.8828 23.0928 43.7285 22.7627 43.6113 22.3877C43.4941 22.0127 43.4043 21.6104 43.3418 21.1807V20.8584C43.4043 20.3975 43.4941 19.9756 43.6113 19.5928C43.7285 19.2061 43.8828 18.8721 44.0742 18.5908C44.2695 18.3057 44.5078 18.085 44.7891 17.9287C45.0742 17.7725 45.4082 17.6943 45.791 17.6943C46.1934 17.6943 46.5469 17.7705 46.8516 17.9229C47.1602 18.0752 47.418 18.2939 47.625 18.5791C47.8359 18.8643 47.9941 19.2041 48.0996 19.5986C48.209 19.9932 48.2637 20.4307 48.2637 20.9111ZM46.5703 21.0342V20.9111C46.5703 20.6416 46.5469 20.3936 46.5 20.167C46.457 19.9365 46.3867 19.7354 46.2891 19.5635C46.1953 19.3916 46.0703 19.2588 45.9141 19.165C45.7617 19.0674 45.5762 19.0186 45.3574 19.0186C45.127 19.0186 44.9297 19.0557 44.7656 19.1299C44.6055 19.2041 44.4746 19.3115 44.373 19.4521C44.2715 19.5928 44.1953 19.7607 44.1445 19.9561C44.0938 20.1514 44.0625 20.3721 44.0508 20.6182V21.4326C44.0703 21.7217 44.125 21.9814 44.2148 22.2119C44.3047 22.4385 44.4434 22.6182 44.6309 22.751C44.8184 22.8838 45.0645 22.9502 45.3691 22.9502C45.5918 22.9502 45.7793 22.9014 45.9316 22.8037C46.084 22.7021 46.207 22.5635 46.3008 22.3877C46.3984 22.2119 46.4668 22.0088 46.5059 21.7783C46.5488 21.5479 46.5703 21.2998 46.5703 21.0342ZM54.1641 15.6201V24.1514H52.4062V15.6201H54.1641ZM57.5625 19.2646V20.6357H53.6836V19.2646H57.5625ZM57.9727 15.6201V16.9971H53.6836V15.6201H57.9727ZM58.4883 21.0459V20.9229C58.4883 20.458 58.5547 20.0303 58.6875 19.6396C58.8203 19.2451 59.0137 18.9033 59.2676 18.6143C59.5215 18.3252 59.834 18.1006 60.2051 17.9404C60.5762 17.7764 61.002 17.6943 61.4824 17.6943C61.9629 17.6943 62.3906 17.7764 62.7656 17.9404C63.1406 18.1006 63.4551 18.3252 63.709 18.6143C63.9668 18.9033 64.1621 19.2451 64.2949 19.6396C64.4277 20.0303 64.4941 20.458 64.4941 20.9229V21.0459C64.4941 21.5068 64.4277 21.9346 64.2949 22.3291C64.1621 22.7197 63.9668 23.0615 63.709 23.3545C63.4551 23.6436 63.1426 23.8682 62.7715 24.0283C62.4004 24.1885 61.9746 24.2686 61.4941 24.2686C61.0137 24.2686 60.5859 24.1885 60.2109 24.0283C59.8398 23.8682 59.5254 23.6436 59.2676 23.3545C59.0137 23.0615 58.8203 22.7197 58.6875 22.3291C58.5547 21.9346 58.4883 21.5068 58.4883 21.0459ZM60.1758 20.9229V21.0459C60.1758 21.3115 60.1992 21.5596 60.2461 21.79C60.293 22.0205 60.3672 22.2236 60.4688 22.3994C60.5742 22.5713 60.7109 22.7061 60.8789 22.8037C61.0469 22.9014 61.252 22.9502 61.4941 22.9502C61.7285 22.9502 61.9297 22.9014 62.0977 22.8037C62.2656 22.7061 62.4004 22.5713 62.502 22.3994C62.6035 22.2236 62.6777 22.0205 62.7246 21.79C62.7754 21.5596 62.8008 21.3115 62.8008 21.0459V20.9229C62.8008 20.665 62.7754 20.4229 62.7246 20.1963C62.6777 19.9658 62.6016 19.7627 62.4961 19.5869C62.3945 19.4072 62.2598 19.2666 62.0918 19.165C61.9238 19.0635 61.7207 19.0127 61.4824 19.0127C61.2441 19.0127 61.041 19.0635 60.873 19.165C60.709 19.2666 60.5742 19.4072 60.4688 19.5869C60.3672 19.7627 60.293 19.9658 60.2461 20.1963C60.1992 20.4229 60.1758 20.665 60.1758 20.9229ZM65.2617 21.0459V20.9229C65.2617 20.458 65.3281 20.0303 65.4609 19.6396C65.5938 19.2451 65.7871 18.9033 66.041 18.6143C66.2949 18.3252 66.6074 18.1006 66.9785 17.9404C67.3496 17.7764 67.7754 17.6943 68.2559 17.6943C68.7363 17.6943 69.1641 17.7764 69.5391 17.9404C69.9141 18.1006 70.2285 18.3252 70.4824 18.6143C70.7402 18.9033 70.9355 19.2451 71.0684 19.6396C71.2012 20.0303 71.2676 20.458 71.2676 20.9229V21.0459C71.2676 21.5068 71.2012 21.9346 71.0684 22.3291C70.9355 22.7197 70.7402 23.0615 70.4824 23.3545C70.2285 23.6436 69.916 23.8682 69.5449 24.0283C69.1738 24.1885 68.748 24.2686 68.2676 24.2686C67.7871 24.2686 67.3594 24.1885 66.9844 24.0283C66.6133 23.8682 66.2988 23.6436 66.041 23.3545C65.7871 23.0615 65.5938 22.7197 65.4609 22.3291C65.3281 21.9346 65.2617 21.5068 65.2617 21.0459ZM66.9492 20.9229V21.0459C66.9492 21.3115 66.9727 21.5596 67.0195 21.79C67.0664 22.0205 67.1406 22.2236 67.2422 22.3994C67.3477 22.5713 67.4844 22.7061 67.6523 22.8037C67.8203 22.9014 68.0254 22.9502 68.2676 22.9502C68.502 22.9502 68.7031 22.9014 68.8711 22.8037C69.0391 22.7061 69.1738 22.5713 69.2754 22.3994C69.377 22.2236 69.4512 22.0205 69.498 21.79C69.5488 21.5596 69.5742 21.3115 69.5742 21.0459V20.9229C69.5742 20.665 69.5488 20.4229 69.498 20.1963C69.4512 19.9658 69.375 19.7627 69.2695 19.5869C69.168 19.4072 69.0332 19.2666 68.8652 19.165C68.6973 19.0635 68.4941 19.0127 68.2559 19.0127C68.0176 19.0127 67.8145 19.0635 67.6465 19.165C67.4824 19.2666 67.3477 19.4072 67.2422 19.5869C67.1406 19.7627 67.0664 19.9658 67.0195 20.1963C66.9727 20.4229 66.9492 20.665 66.9492 20.9229ZM76.0488 22.7686V15.1514H77.748V24.1514H76.2188L76.0488 22.7686ZM72.041 21.0576V20.9346C72.041 20.4502 72.0957 20.0107 72.2051 19.6162C72.3145 19.2178 72.4746 18.876 72.6855 18.5908C72.8965 18.3057 73.1562 18.085 73.4648 17.9287C73.7734 17.7725 74.125 17.6943 74.5195 17.6943C74.8906 17.6943 75.2148 17.7725 75.4922 17.9287C75.7734 18.085 76.0117 18.3076 76.207 18.5967C76.4062 18.8818 76.5664 19.2197 76.6875 19.6104C76.8086 19.9971 76.8965 20.4209 76.9512 20.8818V21.1514C76.8965 21.5928 76.8086 22.0029 76.6875 22.3818C76.5664 22.7607 76.4062 23.0928 76.207 23.3779C76.0117 23.6592 75.7734 23.8779 75.4922 24.0342C75.2109 24.1904 74.8828 24.2686 74.5078 24.2686C74.1133 24.2686 73.7617 24.1885 73.4531 24.0283C73.1484 23.8682 72.8906 23.6436 72.6797 23.3545C72.4727 23.0654 72.3145 22.7256 72.2051 22.335C72.0957 21.9443 72.041 21.5186 72.041 21.0576ZM73.7285 20.9346V21.0576C73.7285 21.3193 73.748 21.5635 73.7871 21.79C73.8301 22.0166 73.8984 22.2178 73.9922 22.3936C74.0898 22.5654 74.2148 22.7002 74.3672 22.7979C74.5234 22.8916 74.7129 22.9385 74.9355 22.9385C75.2246 22.9385 75.4629 22.874 75.6504 22.7451C75.8379 22.6123 75.9805 22.4307 76.0781 22.2002C76.1797 21.9697 76.2383 21.7041 76.2539 21.4033V20.6357C76.2422 20.3896 76.207 20.1689 76.1484 19.9736C76.0938 19.7744 76.0117 19.6045 75.9023 19.4639C75.7969 19.3232 75.6641 19.2139 75.5039 19.1357C75.3477 19.0576 75.1621 19.0186 74.9473 19.0186C74.7285 19.0186 74.541 19.0693 74.3848 19.1709C74.2285 19.2686 74.1016 19.4033 74.0039 19.5752C73.9102 19.7471 73.8398 19.9502 73.793 20.1846C73.75 20.415 73.7285 20.665 73.7285 20.9346Z" fill="white"/>
<defs>
<filter id="filter0_i_227_78" x="0.578125" y="0.338867" width="98.8652" height="39.6245" filterUnits="userSpaceOnUse" color-interpolation-filters="sRGB">
<feFlood flood-opacity="0" result="BackgroundImageFix"/>
<feBlend mode="normal" in="SourceGraphic" in2="BackgroundImageFix" result="shape"/>
<feColorMatrix in="SourceAlpha" type="matrix" values="0 0 0 0 0 0 0 0 0 0 0 0 0 0 0 0 0 0 127 0" result="hardAlpha"/>
<feOffset dy="-10"/>
<feComposite in2="hardAlpha" operator="arithmetic" k2="-1" k3="1"/>
<feColorMatrix type="matrix" values="0 0 0 0 0 0 0 0 0 0 0 0 0 0 0 0 0 0 0.25 0"/>
<feBlend mode="normal" in2="shape" result="effect1_innerShadow_227_78"/>
</filter>
</defs>
</svg>
