<svg width="37" height="37" viewBox="0 0 37 37" fill="none" xmlns="http://www.w3.org/2000/svg">
<rect x="0.012207" y="0.463043" width="36" height="36" rx="18" fill="#F9FC02"/>
<path d="M20.1279 12.2574C21.8384 12.2574 23.2251 10.8707 23.2251 9.16023C23.2251 7.44972 21.8384 6.06308 20.1279 6.06308C18.4174 6.06308 17.0308 7.44972 17.0308 9.16023C17.0308 10.8707 18.4174 12.2574 20.1279 12.2574Z" fill="black"/>
<path d="M23.2948 24.8241C23.2092 24.7665 23.1131 24.7266 23.0119 24.7067C22.9107 24.6869 22.8066 24.6874 22.7056 24.7083C22.6046 24.7292 22.5088 24.7701 22.4239 24.8285C22.3389 24.887 22.2665 24.9618 22.2108 25.0486C21.4623 26.1571 20.5453 27.142 19.4931 27.9677C19.2375 28.1612 18.2852 28.8968 17.8825 28.7419C17.6038 28.6568 17.7664 28.107 17.8206 27.8747L18.231 26.6591C18.4013 26.1636 21.3668 17.3677 21.692 16.3611C22.1721 14.89 21.963 13.442 19.7718 13.7905C19.1756 13.8524 13.1284 14.6344 13.02 14.6422C12.9183 14.6488 12.819 14.6754 12.7275 14.7204C12.6361 14.7654 12.5545 14.828 12.4873 14.9046C12.42 14.9811 12.3686 15.0702 12.3357 15.1667C12.3029 15.2631 12.2895 15.3651 12.2961 15.4668C12.3027 15.5685 12.3292 15.6679 12.3743 15.7593C12.4193 15.8507 12.4819 15.9323 12.5584 15.9996C12.635 16.0668 12.7241 16.1183 12.8205 16.1511C12.917 16.1839 13.019 16.1974 13.1207 16.1908C13.1207 16.1908 15.4435 15.8888 15.6991 15.8656C15.8299 15.8528 15.9617 15.8781 16.0785 15.9386C16.1953 15.999 16.2921 16.092 16.3572 16.2062C16.4975 16.6399 16.4783 17.1095 16.303 17.5303C16.1017 18.3046 12.9194 27.2708 12.8187 27.7896C12.7108 28.2237 12.7407 28.6807 12.9045 29.097C13.0682 29.5133 13.3576 29.8682 13.7324 30.1124C14.4358 30.5813 15.2734 30.807 16.1172 30.7551C16.9376 30.7451 17.7489 30.5823 18.5097 30.275C20.4377 29.5007 22.4508 27.4411 23.5116 25.8229C23.603 25.6585 23.6313 25.4664 23.5914 25.2826C23.5515 25.0988 23.4461 24.9358 23.2948 24.8241Z" fill="black"/>
</svg>
