<svg width="364" height="110" viewBox="0 0 364 110" fill="none" xmlns="http://www.w3.org/2000/svg">
<rect x="2.36328" y="10.7952" width="256.881" height="96.4661" rx="14" fill="#C4C4C4"/>
<g filter="url(#filter0_i_163_4937)">
<rect x="2.36328" y="10.7952" width="359.573" height="96.4661" rx="8" fill="#F00001"/>
</g>
<rect x="1.36328" y="9.79517" width="361.573" height="98.4661" rx="9" stroke="#5A616A" stroke-width="2"/>
<rect x="11.3789" y="17.5707" width="341.542" height="36.5852" rx="10" fill="#FE696B"/>
<ellipse cx="33.8748" cy="34.4779" rx="14.3958" ry="8.9975" transform="rotate(-1.72068 33.8748 34.4779)" fill="#F7FDFA"/>
<ellipse cx="60.1109" cy="25.0524" rx="6.31269" ry="3.94548" transform="rotate(-1.72068 60.1109 25.0524)" fill="#F7FDFA"/>
<g style="mix-blend-mode:overlay" opacity="0.7">
<ellipse cx="182.15" cy="15.2613" rx="167.407" ry="14.5571" transform="rotate(-180 182.15 15.2613)" fill="url(#paint0_radial_163_4937)"/>
</g>
<g style="mix-blend-mode:overlay">
<rect x="23.4878" y="9.02252" width="316.097" height="2.07958" fill="url(#paint1_linear_163_4937)"/>
</g>
<g filter="url(#filter1_dddd_163_4937)">
<path d="M97.1883 45.6383V60.5738L87.4184 45.6383H80.0816V72.0282H87.4184V57.2798L97.1883 72.0282H104.525V45.6383H97.1883ZM129.517 61.5097C129.517 54.8467 124.763 50.7665 118.512 50.7665C112.26 50.7665 107.506 54.8467 107.506 61.5097C107.506 68.2101 112.223 72.2902 118.474 72.2902C124.725 72.2902 129.517 68.2101 129.517 61.5097ZM114.993 61.5097C114.993 58.5151 116.64 57.1301 118.512 57.1301C120.383 57.1301 122.068 58.5151 122.068 61.5097C122.068 64.5417 120.346 65.9267 118.474 65.9267C116.565 65.9267 114.993 64.5417 114.993 61.5097ZM131.379 77.8677H136.208L141.036 64.9535H133.662L131.379 77.8677ZM150.722 58.7771C150.722 66.6753 155.925 72.2154 163.861 72.2154C170.486 72.2154 175.203 68.3972 176.513 62.408H168.614C167.679 64.392 165.919 65.4775 163.748 65.4775C160.379 65.4775 158.171 62.8572 158.171 58.7771C158.171 54.7344 160.379 52.1141 163.748 52.1141C165.919 52.1141 167.679 53.1996 168.614 55.1836H176.513C175.203 49.1944 170.486 45.3762 163.861 45.3762C155.925 45.3762 150.722 50.9163 150.722 58.7771ZM178.789 61.5097C178.789 68.2101 182.757 72.2902 187.735 72.2902C190.693 72.2902 192.826 70.9801 193.912 69.1085V72.0282H201.249V51.0286H193.912V53.9483C192.826 52.0767 190.73 50.7665 187.735 50.7665C182.757 50.7665 178.789 54.8092 178.789 61.5097ZM193.912 61.5097C193.912 64.3545 192.153 65.8893 190.094 65.8893C187.998 65.8893 186.276 64.3171 186.276 61.5097C186.276 58.6648 187.998 57.1675 190.094 57.1675C192.153 57.1675 193.912 58.7022 193.912 61.5097ZM219.729 72.0282H227.065V59.7878C227.065 54.2852 224.033 50.8414 219.167 50.8414C216.21 50.8414 214.001 52.2264 212.766 54.0232V51.0286H205.429V72.0282H212.766V60.761C212.766 58.3279 214.114 56.9055 216.285 56.9055C218.381 56.9055 219.729 58.3279 219.729 60.761V72.0282ZM229.893 61.5097C229.893 68.2101 234.273 72.2902 240.524 72.2902C245.84 72.2902 249.733 69.1833 250.781 63.9802H242.995C242.583 65.2903 241.759 66.039 240.374 66.039C238.578 66.039 237.38 64.5417 237.38 61.5097C237.38 58.5151 238.578 57.0178 240.374 57.0178C241.759 57.0178 242.583 57.8038 242.995 59.0765H250.781C249.733 53.7986 245.84 50.7665 240.524 50.7665C234.273 50.7665 229.893 54.8467 229.893 61.5097ZM263.261 56.5686C264.946 56.5686 266.406 57.5792 266.406 59.4509H259.93C260.267 57.5418 261.502 56.5686 263.261 56.5686ZM273.443 64.7663H265.62C265.208 65.6272 264.422 66.4133 262.999 66.4133C261.352 66.4133 260.042 65.4401 259.893 63.007H273.78C273.855 62.4455 273.892 61.8466 273.892 61.2851C273.892 54.7718 269.513 50.7665 263.299 50.7665C257.01 50.7665 252.631 54.8467 252.631 61.5097C252.631 68.2101 257.085 72.2902 263.299 72.2902C268.539 72.2902 272.47 69.071 273.443 64.7663ZM276.895 72.0282H284.232V44.3281H276.895V72.0282Z" fill="#F8EDE4"/>
<path d="M97.1883 45.6383V60.5738L87.4184 45.6383H80.0816V72.0282H87.4184V57.2798L97.1883 72.0282H104.525V45.6383H97.1883ZM129.517 61.5097C129.517 54.8467 124.763 50.7665 118.512 50.7665C112.26 50.7665 107.506 54.8467 107.506 61.5097C107.506 68.2101 112.223 72.2902 118.474 72.2902C124.725 72.2902 129.517 68.2101 129.517 61.5097ZM114.993 61.5097C114.993 58.5151 116.64 57.1301 118.512 57.1301C120.383 57.1301 122.068 58.5151 122.068 61.5097C122.068 64.5417 120.346 65.9267 118.474 65.9267C116.565 65.9267 114.993 64.5417 114.993 61.5097ZM131.379 77.8677H136.208L141.036 64.9535H133.662L131.379 77.8677ZM150.722 58.7771C150.722 66.6753 155.925 72.2154 163.861 72.2154C170.486 72.2154 175.203 68.3972 176.513 62.408H168.614C167.679 64.392 165.919 65.4775 163.748 65.4775C160.379 65.4775 158.171 62.8572 158.171 58.7771C158.171 54.7344 160.379 52.1141 163.748 52.1141C165.919 52.1141 167.679 53.1996 168.614 55.1836H176.513C175.203 49.1944 170.486 45.3762 163.861 45.3762C155.925 45.3762 150.722 50.9163 150.722 58.7771ZM178.789 61.5097C178.789 68.2101 182.757 72.2902 187.735 72.2902C190.693 72.2902 192.826 70.9801 193.912 69.1085V72.0282H201.249V51.0286H193.912V53.9483C192.826 52.0767 190.73 50.7665 187.735 50.7665C182.757 50.7665 178.789 54.8092 178.789 61.5097ZM193.912 61.5097C193.912 64.3545 192.153 65.8893 190.094 65.8893C187.998 65.8893 186.276 64.3171 186.276 61.5097C186.276 58.6648 187.998 57.1675 190.094 57.1675C192.153 57.1675 193.912 58.7022 193.912 61.5097ZM219.729 72.0282H227.065V59.7878C227.065 54.2852 224.033 50.8414 219.167 50.8414C216.21 50.8414 214.001 52.2264 212.766 54.0232V51.0286H205.429V72.0282H212.766V60.761C212.766 58.3279 214.114 56.9055 216.285 56.9055C218.381 56.9055 219.729 58.3279 219.729 60.761V72.0282ZM229.893 61.5097C229.893 68.2101 234.273 72.2902 240.524 72.2902C245.84 72.2902 249.733 69.1833 250.781 63.9802H242.995C242.583 65.2903 241.759 66.039 240.374 66.039C238.578 66.039 237.38 64.5417 237.38 61.5097C237.38 58.5151 238.578 57.0178 240.374 57.0178C241.759 57.0178 242.583 57.8038 242.995 59.0765H250.781C249.733 53.7986 245.84 50.7665 240.524 50.7665C234.273 50.7665 229.893 54.8467 229.893 61.5097ZM263.261 56.5686C264.946 56.5686 266.406 57.5792 266.406 59.4509H259.93C260.267 57.5418 261.502 56.5686 263.261 56.5686ZM273.443 64.7663H265.62C265.208 65.6272 264.422 66.4133 262.999 66.4133C261.352 66.4133 260.042 65.4401 259.893 63.007H273.78C273.855 62.4455 273.892 61.8466 273.892 61.2851C273.892 54.7718 269.513 50.7665 263.299 50.7665C257.01 50.7665 252.631 54.8467 252.631 61.5097C252.631 68.2101 257.085 72.2902 263.299 72.2902C268.539 72.2902 272.47 69.071 273.443 64.7663ZM276.895 72.0282H284.232V44.3281H276.895V72.0282Z" fill="url(#paint2_linear_163_4937)"/>
</g>
<defs>
<filter id="filter0_i_163_4937" x="0.363281" y="8.79517" width="363.573" height="100.466" filterUnits="userSpaceOnUse" color-interpolation-filters="sRGB">
<feFlood flood-opacity="0" result="BackgroundImageFix"/>
<feBlend mode="normal" in="SourceGraphic" in2="BackgroundImageFix" result="shape"/>
<feColorMatrix in="SourceAlpha" type="matrix" values="0 0 0 0 0 0 0 0 0 0 0 0 0 0 0 0 0 0 127 0" result="hardAlpha"/>
<feOffset dy="-10"/>
<feComposite in2="hardAlpha" operator="arithmetic" k2="-1" k3="1"/>
<feColorMatrix type="matrix" values="0 0 0 0 0 0 0 0 0 0 0 0 0 0 0 0 0 0 0.25 0"/>
<feBlend mode="normal" in2="shape" result="effect1_innerShadow_163_4937"/>
</filter>
<filter id="filter1_dddd_163_4937" x="75.9224" y="38.0894" width="216.627" height="46.0171" filterUnits="userSpaceOnUse" color-interpolation-filters="sRGB">
<feFlood flood-opacity="0" result="BackgroundImageFix"/>
<feColorMatrix in="SourceAlpha" type="matrix" values="0 0 0 0 0 0 0 0 0 0 0 0 0 0 0 0 0 0 127 0" result="hardAlpha"/>
<feOffset dy="2.07958"/>
<feGaussianBlur stdDeviation="2.07958"/>
<feColorMatrix type="matrix" values="0 0 0 0 0 0 0 0 0 0 0 0 0 0 0 0 0 0 0.2 0"/>
<feBlend mode="overlay" in2="BackgroundImageFix" result="effect1_dropShadow_163_4937"/>
<feColorMatrix in="SourceAlpha" type="matrix" values="0 0 0 0 0 0 0 0 0 0 0 0 0 0 0 0 0 0 127 0" result="hardAlpha"/>
<feOffset dy="2.07958"/>
<feGaussianBlur stdDeviation="1.03979"/>
<feColorMatrix type="matrix" values="0 0 0 0 0 0 0 0 0 0 0 0 0 0 0 0 0 0 0.22 0"/>
<feBlend mode="overlay" in2="effect1_dropShadow_163_4937" result="effect2_dropShadow_163_4937"/>
<feColorMatrix in="SourceAlpha" type="matrix" values="0 0 0 0 0 0 0 0 0 0 0 0 0 0 0 0 0 0 127 0" result="hardAlpha"/>
<feOffset dy="2.07958"/>
<feGaussianBlur stdDeviation="2.07958"/>
<feColorMatrix type="matrix" values="0 0 0 0 0 0 0 0 0 0 0 0 0 0 0 0 0 0 0.24 0"/>
<feBlend mode="overlay" in2="effect2_dropShadow_163_4937" result="effect3_dropShadow_163_4937"/>
<feColorMatrix in="SourceAlpha" type="matrix" values="0 0 0 0 0 0 0 0 0 0 0 0 0 0 0 0 0 0 127 0" result="hardAlpha"/>
<feOffset dx="2.07958"/>
<feGaussianBlur stdDeviation="3.11938"/>
<feColorMatrix type="matrix" values="0 0 0 0 0 0 0 0 0 0 0 0 0 0 0 0 0 0 0.35 0"/>
<feBlend mode="normal" in2="effect3_dropShadow_163_4937" result="effect4_dropShadow_163_4937"/>
<feBlend mode="normal" in="SourceGraphic" in2="effect4_dropShadow_163_4937" result="shape"/>
</filter>
<radialGradient id="paint0_radial_163_4937" cx="0" cy="0" r="1" gradientUnits="userSpaceOnUse" gradientTransform="translate(182.15 15.2613) rotate(90) scale(14.5571 167.407)">
<stop stop-color="white"/>
<stop offset="1" stop-color="white" stop-opacity="0"/>
</radialGradient>
<linearGradient id="paint1_linear_163_4937" x1="337.825" y1="9.02252" x2="22.6932" y2="9.02252" gradientUnits="userSpaceOnUse">
<stop stop-color="white" stop-opacity="0"/>
<stop offset="0.492063" stop-color="white"/>
<stop offset="1" stop-color="white" stop-opacity="0"/>
</linearGradient>
<linearGradient id="paint2_linear_163_4937" x1="182.149" y1="31.0282" x2="182.149" y2="87.0282" gradientUnits="userSpaceOnUse">
<stop stop-color="white"/>
<stop offset="1" stop-color="white" stop-opacity="0"/>
</linearGradient>
</defs>
</svg>
