<svg width="364" height="102" viewBox="0 0 364 102" fill="none" xmlns="http://www.w3.org/2000/svg">
<rect x="2.15625" y="2.79517" width="256.881" height="96.4661" rx="14" fill="#C4C4C4"/>
<g filter="url(#filter0_i_163_4949)">
<rect x="2.15625" y="2.79517" width="359.573" height="96.4661" rx="8" fill="#339607"/>
</g>
<rect x="1.15625" y="1.79517" width="361.573" height="98.4661" rx="9" stroke="#5A616A" stroke-width="2"/>
<rect x="11.1719" y="9.57068" width="341.542" height="36.5852" rx="10" fill="#4DE40D"/>
<ellipse cx="33.6678" cy="26.4779" rx="14.3958" ry="8.9975" transform="rotate(-1.72068 33.6678 26.4779)" fill="#F7FDFA"/>
<ellipse cx="59.9039" cy="17.0524" rx="6.31269" ry="3.94548" transform="rotate(-1.72068 59.9039 17.0524)" fill="#F7FDFA"/>
<g style="mix-blend-mode:overlay">
<rect x="23.2808" y="1.02246" width="316.097" height="2.07958" fill="url(#paint0_linear_163_4949)"/>
</g>
<g filter="url(#filter1_dddd_163_4949)">
<path d="M56.2794 55.6433V64.0282H63.6536V55.6433L72.9369 37.6383H64.6643L60.0226 47.8199L55.381 37.6383H46.9961L56.2794 55.6433ZM84.6222 48.5686C86.3067 48.5686 87.7666 49.5792 87.7666 51.4509H81.2907C81.6276 49.5418 82.8629 48.5686 84.6222 48.5686ZM94.8039 56.7663H86.9805C86.5687 57.6272 85.7826 58.4133 84.3602 58.4133C82.7132 58.4133 81.403 57.4401 81.2533 55.007H95.1408C95.2156 54.4455 95.2531 53.8466 95.2531 53.2851C95.2531 46.7718 90.8735 42.7665 84.6597 42.7665C78.371 42.7665 73.9914 46.8467 73.9914 53.5097C73.9914 60.2101 78.4459 64.2902 84.6597 64.2902C89.9002 64.2902 93.8306 61.071 94.8039 56.7663ZM115.924 57.8518C115.886 49.8787 104.694 52.2744 104.694 49.2798C104.694 48.4937 105.33 48.0071 106.528 48.0071C108.1 48.0071 109.036 48.7932 109.261 50.1033H115.886C115.4 45.9483 112.405 42.7665 106.678 42.7665C100.988 42.7665 97.9561 45.7986 97.9561 49.4669C97.9561 57.178 109.111 54.6701 109.111 57.7395C109.111 58.4882 108.4 59.0871 107.165 59.0871C105.63 59.0871 104.469 58.3385 104.282 56.9535H97.17C97.4695 61.1459 101.362 64.2902 107.202 64.2902C112.63 64.2902 115.924 61.5202 115.924 57.8518ZM118.408 69.8677H123.237L128.065 56.9535H120.691L118.408 69.8677ZM137.751 50.7771C137.751 58.6753 142.954 64.2154 150.889 64.2154C157.515 64.2154 162.232 60.3972 163.542 54.408H155.643C154.708 56.392 152.948 57.4775 150.777 57.4775C147.408 57.4775 145.2 54.8572 145.2 50.7771C145.2 46.7344 147.408 44.1141 150.777 44.1141C152.948 44.1141 154.708 45.1996 155.643 47.1836H163.542C162.232 41.1944 157.515 37.3762 150.889 37.3762C142.954 37.3762 137.751 42.9163 137.751 50.7771ZM187.828 53.5097C187.828 46.8467 183.074 42.7665 176.823 42.7665C170.572 42.7665 165.818 46.8467 165.818 53.5097C165.818 60.2101 170.535 64.2902 176.786 64.2902C183.037 64.2902 187.828 60.2101 187.828 53.5097ZM173.305 53.5097C173.305 50.5151 174.952 49.1301 176.823 49.1301C178.695 49.1301 180.379 50.5151 180.379 53.5097C180.379 56.5417 178.657 57.9267 176.786 57.9267C174.877 57.9267 173.305 56.5417 173.305 53.5097ZM205.113 64.0282H212.449V51.7878C212.449 46.2852 209.417 42.8414 204.551 42.8414C201.594 42.8414 199.385 44.2264 198.15 46.0232V43.0286H190.813V64.0282H198.15V52.761C198.15 50.3279 199.498 48.9055 201.669 48.9055C203.765 48.9055 205.113 50.3279 205.113 52.761V64.0282ZM217.635 56.0551C217.635 62.0817 221.042 64.0282 225.683 64.0282H228.865V57.777H226.732C225.496 57.777 225.01 57.2903 225.01 56.1674V49.1301H228.828V43.0286H225.01V37.9377H217.635V43.0286H215.053V49.1301H217.635V56.0551ZM232.23 64.0282H239.567V43.0286H232.23V64.0282ZM235.936 41.0821C238.519 41.0821 240.204 39.435 240.204 37.3388C240.204 35.2052 238.519 33.5207 235.936 33.5207C233.316 33.5207 231.631 35.2052 231.631 37.3388C231.631 39.435 233.316 41.0821 235.936 41.0821ZM258.044 64.0282H265.381V51.7878C265.381 46.2852 262.349 42.8414 257.483 42.8414C254.526 42.8414 252.317 44.2264 251.082 46.0232V43.0286H243.745V64.0282H251.082V52.761C251.082 50.3279 252.43 48.9055 254.601 48.9055C256.697 48.9055 258.044 50.3279 258.044 52.761V64.0282ZM290.893 43.0286H283.519V54.2957C283.519 56.7289 282.172 58.1513 280.038 58.1513C277.942 58.1513 276.557 56.7289 276.557 54.2957V43.0286H269.257V55.2316C269.257 60.7716 272.289 64.2154 277.156 64.2154C280.113 64.2154 282.321 62.8304 283.519 61.0336V64.0282H290.893V43.0286ZM304.502 48.5686C306.186 48.5686 307.646 49.5792 307.646 51.4509H301.17C301.507 49.5418 302.742 48.5686 304.502 48.5686ZM314.683 56.7663H306.86C306.448 57.6272 305.662 58.4133 304.24 58.4133C302.593 58.4133 301.283 57.4401 301.133 55.007H315.02C315.095 54.4455 315.133 53.8466 315.133 53.2851C315.133 46.7718 310.753 42.7665 304.539 42.7665C298.251 42.7665 293.871 46.8467 293.871 53.5097C293.871 60.2101 298.325 64.2902 304.539 64.2902C309.78 64.2902 313.71 61.071 314.683 56.7663Z" fill="#F8EDE4"/>
<path d="M56.2794 55.6433V64.0282H63.6536V55.6433L72.9369 37.6383H64.6643L60.0226 47.8199L55.381 37.6383H46.9961L56.2794 55.6433ZM84.6222 48.5686C86.3067 48.5686 87.7666 49.5792 87.7666 51.4509H81.2907C81.6276 49.5418 82.8629 48.5686 84.6222 48.5686ZM94.8039 56.7663H86.9805C86.5687 57.6272 85.7826 58.4133 84.3602 58.4133C82.7132 58.4133 81.403 57.4401 81.2533 55.007H95.1408C95.2156 54.4455 95.2531 53.8466 95.2531 53.2851C95.2531 46.7718 90.8735 42.7665 84.6597 42.7665C78.371 42.7665 73.9914 46.8467 73.9914 53.5097C73.9914 60.2101 78.4459 64.2902 84.6597 64.2902C89.9002 64.2902 93.8306 61.071 94.8039 56.7663ZM115.924 57.8518C115.886 49.8787 104.694 52.2744 104.694 49.2798C104.694 48.4937 105.33 48.0071 106.528 48.0071C108.1 48.0071 109.036 48.7932 109.261 50.1033H115.886C115.4 45.9483 112.405 42.7665 106.678 42.7665C100.988 42.7665 97.9561 45.7986 97.9561 49.4669C97.9561 57.178 109.111 54.6701 109.111 57.7395C109.111 58.4882 108.4 59.0871 107.165 59.0871C105.63 59.0871 104.469 58.3385 104.282 56.9535H97.17C97.4695 61.1459 101.362 64.2902 107.202 64.2902C112.63 64.2902 115.924 61.5202 115.924 57.8518ZM118.408 69.8677H123.237L128.065 56.9535H120.691L118.408 69.8677ZM137.751 50.7771C137.751 58.6753 142.954 64.2154 150.889 64.2154C157.515 64.2154 162.232 60.3972 163.542 54.408H155.643C154.708 56.392 152.948 57.4775 150.777 57.4775C147.408 57.4775 145.2 54.8572 145.2 50.7771C145.2 46.7344 147.408 44.1141 150.777 44.1141C152.948 44.1141 154.708 45.1996 155.643 47.1836H163.542C162.232 41.1944 157.515 37.3762 150.889 37.3762C142.954 37.3762 137.751 42.9163 137.751 50.7771ZM187.828 53.5097C187.828 46.8467 183.074 42.7665 176.823 42.7665C170.572 42.7665 165.818 46.8467 165.818 53.5097C165.818 60.2101 170.535 64.2902 176.786 64.2902C183.037 64.2902 187.828 60.2101 187.828 53.5097ZM173.305 53.5097C173.305 50.5151 174.952 49.1301 176.823 49.1301C178.695 49.1301 180.379 50.5151 180.379 53.5097C180.379 56.5417 178.657 57.9267 176.786 57.9267C174.877 57.9267 173.305 56.5417 173.305 53.5097ZM205.113 64.0282H212.449V51.7878C212.449 46.2852 209.417 42.8414 204.551 42.8414C201.594 42.8414 199.385 44.2264 198.15 46.0232V43.0286H190.813V64.0282H198.15V52.761C198.15 50.3279 199.498 48.9055 201.669 48.9055C203.765 48.9055 205.113 50.3279 205.113 52.761V64.0282ZM217.635 56.0551C217.635 62.0817 221.042 64.0282 225.683 64.0282H228.865V57.777H226.732C225.496 57.777 225.01 57.2903 225.01 56.1674V49.1301H228.828V43.0286H225.01V37.9377H217.635V43.0286H215.053V49.1301H217.635V56.0551ZM232.23 64.0282H239.567V43.0286H232.23V64.0282ZM235.936 41.0821C238.519 41.0821 240.204 39.435 240.204 37.3388C240.204 35.2052 238.519 33.5207 235.936 33.5207C233.316 33.5207 231.631 35.2052 231.631 37.3388C231.631 39.435 233.316 41.0821 235.936 41.0821ZM258.044 64.0282H265.381V51.7878C265.381 46.2852 262.349 42.8414 257.483 42.8414C254.526 42.8414 252.317 44.2264 251.082 46.0232V43.0286H243.745V64.0282H251.082V52.761C251.082 50.3279 252.43 48.9055 254.601 48.9055C256.697 48.9055 258.044 50.3279 258.044 52.761V64.0282ZM290.893 43.0286H283.519V54.2957C283.519 56.7289 282.172 58.1513 280.038 58.1513C277.942 58.1513 276.557 56.7289 276.557 54.2957V43.0286H269.257V55.2316C269.257 60.7716 272.289 64.2154 277.156 64.2154C280.113 64.2154 282.321 62.8304 283.519 61.0336V64.0282H290.893V43.0286ZM304.502 48.5686C306.186 48.5686 307.646 49.5792 307.646 51.4509H301.17C301.507 49.5418 302.742 48.5686 304.502 48.5686ZM314.683 56.7663H306.86C306.448 57.6272 305.662 58.4133 304.24 58.4133C302.593 58.4133 301.283 57.4401 301.133 55.007H315.02C315.095 54.4455 315.133 53.8466 315.133 53.2851C315.133 46.7718 310.753 42.7665 304.539 42.7665C298.251 42.7665 293.871 46.8467 293.871 53.5097C293.871 60.2101 298.325 64.2902 304.539 64.2902C309.78 64.2902 313.71 61.071 314.683 56.7663Z" fill="url(#paint1_linear_163_4949)"/>
</g>
<defs>
<filter id="filter0_i_163_4949" x="0.15625" y="0.795166" width="363.573" height="100.466" filterUnits="userSpaceOnUse" color-interpolation-filters="sRGB">
<feFlood flood-opacity="0" result="BackgroundImageFix"/>
<feBlend mode="normal" in="SourceGraphic" in2="BackgroundImageFix" result="shape"/>
<feColorMatrix in="SourceAlpha" type="matrix" values="0 0 0 0 0 0 0 0 0 0 0 0 0 0 0 0 0 0 127 0" result="hardAlpha"/>
<feOffset dy="-10"/>
<feComposite in2="hardAlpha" operator="arithmetic" k2="-1" k3="1"/>
<feColorMatrix type="matrix" values="0 0 0 0 0 0 0 0 0 0 0 0 0 0 0 0 0 0 0.25 0"/>
<feBlend mode="normal" in2="shape" result="effect1_innerShadow_163_4949"/>
</filter>
<filter id="filter1_dddd_163_4949" x="42.8369" y="27.2819" width="280.614" height="48.8245" filterUnits="userSpaceOnUse" color-interpolation-filters="sRGB">
<feFlood flood-opacity="0" result="BackgroundImageFix"/>
<feColorMatrix in="SourceAlpha" type="matrix" values="0 0 0 0 0 0 0 0 0 0 0 0 0 0 0 0 0 0 127 0" result="hardAlpha"/>
<feOffset dy="2.07958"/>
<feGaussianBlur stdDeviation="2.07958"/>
<feColorMatrix type="matrix" values="0 0 0 0 0 0 0 0 0 0 0 0 0 0 0 0 0 0 0.2 0"/>
<feBlend mode="overlay" in2="BackgroundImageFix" result="effect1_dropShadow_163_4949"/>
<feColorMatrix in="SourceAlpha" type="matrix" values="0 0 0 0 0 0 0 0 0 0 0 0 0 0 0 0 0 0 127 0" result="hardAlpha"/>
<feOffset dy="2.07958"/>
<feGaussianBlur stdDeviation="1.03979"/>
<feColorMatrix type="matrix" values="0 0 0 0 0 0 0 0 0 0 0 0 0 0 0 0 0 0 0.22 0"/>
<feBlend mode="overlay" in2="effect1_dropShadow_163_4949" result="effect2_dropShadow_163_4949"/>
<feColorMatrix in="SourceAlpha" type="matrix" values="0 0 0 0 0 0 0 0 0 0 0 0 0 0 0 0 0 0 127 0" result="hardAlpha"/>
<feOffset dy="2.07958"/>
<feGaussianBlur stdDeviation="2.07958"/>
<feColorMatrix type="matrix" values="0 0 0 0 0 0 0 0 0 0 0 0 0 0 0 0 0 0 0.24 0"/>
<feBlend mode="overlay" in2="effect2_dropShadow_163_4949" result="effect3_dropShadow_163_4949"/>
<feColorMatrix in="SourceAlpha" type="matrix" values="0 0 0 0 0 0 0 0 0 0 0 0 0 0 0 0 0 0 127 0" result="hardAlpha"/>
<feOffset dx="2.07958"/>
<feGaussianBlur stdDeviation="3.11938"/>
<feColorMatrix type="matrix" values="0 0 0 0 0 0 0 0 0 0 0 0 0 0 0 0 0 0 0.35 0"/>
<feBlend mode="normal" in2="effect3_dropShadow_163_4949" result="effect4_dropShadow_163_4949"/>
<feBlend mode="normal" in="SourceGraphic" in2="effect4_dropShadow_163_4949" result="shape"/>
</filter>
<linearGradient id="paint0_linear_163_4949" x1="337.618" y1="1.02246" x2="22.4862" y2="1.02246" gradientUnits="userSpaceOnUse">
<stop stop-color="white" stop-opacity="0"/>
<stop offset="0.492063" stop-color="white"/>
<stop offset="1" stop-color="white" stop-opacity="0"/>
</linearGradient>
<linearGradient id="paint1_linear_163_4949" x1="181.443" y1="23.0282" x2="181.443" y2="79.0282" gradientUnits="userSpaceOnUse">
<stop stop-color="white"/>
<stop offset="1" stop-color="white" stop-opacity="0"/>
</linearGradient>
</defs>
</svg>
