<svg width="75" height="61" viewBox="0 0 75 61" fill="none" xmlns="http://www.w3.org/2000/svg">
<g filter="url(#filter0_d_163_5965)">
<path d="M22.8662 22.6821L45.036 38.2608L58.917 22.6821L35.7986 11.797C35.7986 11.797 30.8119 10.2804 27.3102 12.7457C23.8084 15.2109 22.8662 22.6821 22.8662 22.6821Z" fill="url(#paint0_linear_163_5965)"/>
<path d="M64.4826 30.5519L45.0532 38.1691C45.0532 38.1691 45.9313 25.2244 55.4854 22.4931C62.8338 20.6505 64.4826 30.5519 64.4826 30.5519Z" fill="url(#paint1_linear_163_5965)"/>
<path d="M54.248 27.4361V34.0033L57.7931 32.6085V26.1647L54.248 27.4361Z" fill="url(#paint2_linear_163_5965)"/>
<path d="M10.7593 29.4555L32.9291 45.0343L46.8101 29.4555L23.6916 18.5704C23.6916 18.5704 18.705 17.0538 15.2032 19.5191C11.7015 21.9844 10.7593 29.4555 10.7593 29.4555Z" fill="url(#paint3_linear_163_5965)"/>
<path d="M52.3756 37.3253L32.9463 44.9425C32.9463 44.9425 33.8243 31.9978 43.3785 29.2666C50.7269 27.424 52.3756 37.3253 52.3756 37.3253Z" fill="url(#paint4_linear_163_5965)"/>
<path d="M42.1406 34.2098V40.7769L45.6857 39.3821V32.9384L42.1406 34.2098Z" fill="url(#paint5_linear_163_5965)"/>
<rect x="22.8677" y="5.40137" width="1.01369" height="38.7932" fill="#999999"/>
<mask id="mask0_163_5965" style="mask-type:alpha" maskUnits="userSpaceOnUse" x="23" y="7" width="16" height="9">
<rect x="23.8804" y="7.44958" width="14.6513" height="7.77146" fill="#C4C4C4"/>
</mask>
<g mask="url(#mask0_163_5965)">
<path fill-rule="evenodd" clip-rule="evenodd" d="M24.9264 7.44958H37.4857C37.52 7.44958 37.5541 7.45083 37.5882 7.45333C37.6223 7.45582 37.6562 7.45955 37.6898 7.46451C37.7234 7.46947 37.7566 7.47565 37.7894 7.48303C37.8222 7.49042 37.8544 7.49898 37.886 7.50871C37.9177 7.51845 37.9486 7.52931 37.9788 7.5413C38.009 7.5533 38.0384 7.56636 38.0669 7.58049C38.0953 7.59463 38.1228 7.60976 38.1493 7.6259C38.1758 7.64204 38.2011 7.6591 38.2253 7.67709C38.2496 7.69508 38.2725 7.71391 38.2943 7.73357C38.316 7.75324 38.3364 7.77365 38.3554 7.7948C38.3745 7.81595 38.3921 7.83775 38.4082 7.86018C38.4244 7.88262 38.439 7.90559 38.4521 7.92909C38.4652 7.95259 38.4767 7.97652 38.4867 8.00086C38.4966 8.02521 38.5049 8.04985 38.5116 8.0748C38.5183 8.09975 38.5233 8.12489 38.5267 8.15021C38.53 8.17552 38.5317 8.2009 38.5317 8.22634V14.4443C38.5317 14.4697 38.53 14.4951 38.5267 14.5204C38.5233 14.5457 38.5183 14.5709 38.5116 14.5958C38.5049 14.6208 38.4966 14.6454 38.4867 14.6698C38.4767 14.6941 38.4652 14.718 38.4521 14.7415C38.439 14.765 38.4244 14.788 38.4082 14.8104C38.3921 14.8329 38.3745 14.8547 38.3554 14.8758C38.3364 14.897 38.316 14.9174 38.2943 14.9371C38.2725 14.9567 38.2496 14.9756 38.2253 14.9935C38.2011 15.0115 38.1758 15.0286 38.1493 15.0447C38.1228 15.0608 38.0953 15.076 38.0669 15.0901C38.0384 15.1043 38.009 15.1173 37.9788 15.1293C37.9486 15.1413 37.9177 15.1522 37.886 15.1619C37.8544 15.1716 37.8222 15.1802 37.7894 15.1876C37.7566 15.195 37.7234 15.2011 37.6898 15.2061C37.6562 15.2111 37.6223 15.2148 37.5882 15.2173C37.5541 15.2198 37.52 15.221 37.4857 15.221H24.9264C24.8921 15.221 24.8579 15.2198 24.8238 15.2173C24.7898 15.2148 24.7559 15.2111 24.7223 15.2061C24.6887 15.2011 24.6555 15.195 24.6227 15.1876C24.5899 15.1802 24.5577 15.1716 24.5261 15.1619C24.4944 15.1522 24.4635 15.1413 24.4333 15.1293C24.4031 15.1173 24.3737 15.1043 24.3452 15.0901C24.3168 15.076 24.2893 15.0608 24.2628 15.0447C24.2363 15.0286 24.211 15.0115 24.1867 14.9935C24.1625 14.9756 24.1395 14.9567 24.1178 14.9371C24.0961 14.9174 24.0757 14.897 24.0567 14.8758C24.0376 14.8547 24.02 14.8329 24.0039 14.8104C23.9877 14.788 23.9731 14.765 23.96 14.7415C23.9469 14.718 23.9354 14.6941 23.9254 14.6698C23.9155 14.6454 23.9072 14.6208 23.9005 14.5958C23.8938 14.5709 23.8888 14.5457 23.8854 14.5204C23.8821 14.4951 23.8804 14.4697 23.8804 14.4443V8.22634C23.8804 8.2009 23.8821 8.17552 23.8854 8.15021C23.8888 8.12489 23.8938 8.09975 23.9005 8.0748C23.9072 8.04985 23.9155 8.02521 23.9254 8.00086C23.9354 7.97652 23.9469 7.95259 23.96 7.92909C23.9731 7.90559 23.9877 7.88262 24.0039 7.86018C24.02 7.83775 24.0376 7.81595 24.0567 7.7948C24.0757 7.77365 24.0961 7.75324 24.1178 7.73357C24.1395 7.71391 24.1625 7.69508 24.1867 7.67709C24.211 7.6591 24.2363 7.64204 24.2628 7.6259C24.2893 7.60976 24.3168 7.59463 24.3452 7.58049C24.3737 7.56636 24.4031 7.5533 24.4333 7.5413C24.4635 7.52931 24.4944 7.51845 24.5261 7.50871C24.5577 7.49898 24.5899 7.49042 24.6227 7.48303C24.6555 7.47565 24.6887 7.46947 24.7223 7.46451C24.7559 7.45955 24.7898 7.45582 24.8238 7.45333C24.8579 7.45083 24.8921 7.44958 24.9264 7.44958Z" fill="white"/>
<path fill-rule="evenodd" clip-rule="evenodd" d="M23.8804 7.44958H38.5317V15.221H23.8804V7.44958Z" fill="#0A17A7"/>
<path fill-rule="evenodd" clip-rule="evenodd" d="M22.4292 7.56388L23.2095 6.70483L29.462 9.83665V6.93142H32.9504V9.83665L39.203 6.70483L39.9833 7.56388L35.0398 10.04H38.5319V12.6305H35.0398L39.9833 15.1066L39.203 15.9656L32.9504 12.8339V15.7391H29.462V12.8339L23.2095 15.9656L22.4292 15.1066L27.3727 12.6305H23.8805V10.04H27.3727L22.4292 7.56388Z" fill="white"/>
<path d="M33.6489 9.91003L40.2762 6.67236" stroke="#DB1F35" stroke-width="0.666667" stroke-linecap="round"/>
<path d="M34.353 12.772L40.294 15.7456" stroke="#DB1F35" stroke-width="0.666667" stroke-linecap="round"/>
<path d="M28.0691 9.90167L21.8721 6.80029" stroke="#DB1F35" stroke-width="0.666667" stroke-linecap="round"/>
<path d="M28.7412 12.736L21.8721 16.1187" stroke="#DB1F35" stroke-width="0.666667" stroke-linecap="round"/>
<path fill-rule="evenodd" clip-rule="evenodd" d="M23.8804 12.1125H30.1595V15.221H32.2526V12.1125H38.5317V10.5582H32.2526V7.44958H30.1595V10.5582H23.8804V12.1125Z" fill="#E6273E"/>
</g>
</g>
<path d="M25.7334 7.44958H47.9823C48.043 7.44958 48.1036 7.45256 48.1639 7.45851C48.2244 7.46446 48.2843 7.47335 48.3439 7.48519C48.4034 7.49703 48.4622 7.51176 48.5203 7.52937C48.5784 7.54699 48.6354 7.56741 48.6915 7.59064C48.7475 7.61386 48.8023 7.63978 48.8558 7.66838C48.9093 7.69699 48.9613 7.72816 49.0118 7.76187C49.0623 7.79559 49.111 7.8317 49.1579 7.8702C49.2048 7.9087 49.2497 7.9494 49.2926 7.99232C49.3355 8.03523 49.3762 8.08014 49.4147 8.12705C49.4532 8.17397 49.4893 8.22265 49.523 8.27311C49.5568 8.32357 49.588 8.37556 49.6166 8.42909C49.6452 8.48261 49.6711 8.53741 49.6943 8.59348C49.7175 8.64954 49.7379 8.70661 49.7555 8.76469C49.7731 8.82276 49.7879 8.88156 49.7997 8.94108C49.8116 9.0006 49.8204 9.06056 49.8264 9.12096C49.8324 9.18136 49.8353 9.2419 49.8353 9.30258V24.1358C49.8353 24.1965 49.8324 24.2571 49.8264 24.3174C49.8204 24.3779 49.8116 24.4379 49.7997 24.4974C49.7879 24.5569 49.7731 24.6157 49.7555 24.6738C49.7379 24.7319 49.7175 24.7889 49.6943 24.845C49.6711 24.901 49.6452 24.9558 49.6166 25.0093C49.588 25.0628 49.5568 25.1148 49.523 25.1653C49.4893 25.2158 49.4532 25.2645 49.4147 25.3114C49.3762 25.3583 49.3355 25.4032 49.2926 25.4461C49.2497 25.489 49.2048 25.5297 49.1578 25.5682C49.1109 25.6067 49.0623 25.6428 49.0118 25.6766C48.9613 25.7103 48.9093 25.7415 48.8558 25.7701C48.8023 25.7987 48.7475 25.8246 48.6915 25.8478C48.6354 25.871 48.5784 25.8914 48.5203 25.909C48.4622 25.9267 48.4034 25.9414 48.3439 25.9533C48.2843 25.9651 48.2244 25.974 48.1639 25.9799C48.1036 25.9859 48.043 25.9888 47.9823 25.9888H25.7334C25.6727 25.9888 25.6121 25.9859 25.5517 25.9799C25.4913 25.974 25.4314 25.9651 25.3719 25.9533C25.3123 25.9414 25.2535 25.9267 25.1955 25.909C25.1374 25.8914 25.0803 25.871 25.0243 25.8478C24.9682 25.8246 24.9134 25.7987 24.8599 25.7701C24.8064 25.7415 24.7544 25.7103 24.7039 25.6766C24.6534 25.6428 24.6048 25.6067 24.5578 25.5682C24.5109 25.5297 24.466 25.489 24.4231 25.4461C24.3802 25.4032 24.3395 25.3583 24.301 25.3114C24.2625 25.2645 24.2264 25.2158 24.1927 25.1653C24.1589 25.1148 24.1278 25.0628 24.0992 25.0093C24.0706 24.9558 24.0446 24.901 24.0214 24.845C23.9982 24.7889 23.9778 24.7319 23.9602 24.6738C23.9425 24.6157 23.9278 24.5569 23.916 24.4974C23.9041 24.4379 23.8952 24.3779 23.8893 24.3174C23.8833 24.2571 23.8804 24.1965 23.8804 24.1358V9.30258C23.8804 9.2419 23.8833 9.18136 23.8893 9.12096C23.8952 9.06056 23.9041 9.0006 23.916 8.94108C23.9278 8.88156 23.9425 8.82276 23.9602 8.76469C23.9778 8.70661 23.9982 8.64954 24.0214 8.59348C24.0446 8.53741 24.0706 8.48261 24.0992 8.42909C24.1278 8.37556 24.1589 8.32357 24.1927 8.27311C24.2264 8.22265 24.2625 8.17397 24.301 8.12705C24.3395 8.08014 24.3802 8.03523 24.4231 7.99232C24.466 7.9494 24.5109 7.9087 24.5578 7.8702C24.6048 7.8317 24.6534 7.79559 24.7039 7.76187C24.7544 7.72816 24.8064 7.69699 24.8599 7.66838C24.9134 7.63978 24.9682 7.61386 25.0243 7.59064C25.0803 7.56741 25.1374 7.54699 25.1955 7.52937C25.2535 7.51176 25.3123 7.49703 25.3719 7.48519C25.4314 7.47335 25.4913 7.46446 25.5517 7.45851C25.6121 7.45256 25.6727 7.44958 25.7334 7.44958Z" fill="white"/>
<path fill-rule="evenodd" clip-rule="evenodd" d="M41.1831 7.44958H49.8347V25.9888H41.1831V7.44958Z" fill="#189B62"/>
<path fill-rule="evenodd" clip-rule="evenodd" d="M23.8804 25.9888H32.532V7.44958H23.8804V25.9888Z" fill="#189B62"/>
<defs>
<filter id="filter0_d_163_5965" x="0.759277" y="0.401367" width="73.7231" height="59.6329" filterUnits="userSpaceOnUse" color-interpolation-filters="sRGB">
<feFlood flood-opacity="0" result="BackgroundImageFix"/>
<feColorMatrix in="SourceAlpha" type="matrix" values="0 0 0 0 0 0 0 0 0 0 0 0 0 0 0 0 0 0 127 0" result="hardAlpha"/>
<feOffset dy="5"/>
<feGaussianBlur stdDeviation="5"/>
<feComposite in2="hardAlpha" operator="out"/>
<feColorMatrix type="matrix" values="0 0 0 0 0 0 0 0 0 0 0 0 0 0 0 0 0 0 0.5 0"/>
<feBlend mode="normal" in2="BackgroundImageFix" result="effect1_dropShadow_163_5965"/>
<feBlend mode="normal" in="SourceGraphic" in2="effect1_dropShadow_163_5965" result="shape"/>
</filter>
<linearGradient id="paint0_linear_163_5965" x1="58.4003" y1="21.7629" x2="9.32297" y2="23.1357" gradientUnits="userSpaceOnUse">
<stop stop-color="#F7F7F7"/>
<stop offset="1" stop-color="#CDCDCD"/>
</linearGradient>
<linearGradient id="paint1_linear_163_5965" x1="57.5425" y1="25.9672" x2="45.5306" y2="36.5205" gradientUnits="userSpaceOnUse">
<stop stop-color="#E4E4E4"/>
<stop offset="1" stop-color="#B5B5B5"/>
</linearGradient>
<linearGradient id="paint2_linear_163_5965" x1="56.0206" y1="26.1647" x2="56.0206" y2="34.0033" gradientUnits="userSpaceOnUse">
<stop stop-color="#999999"/>
<stop offset="1" stop-opacity="0.56"/>
</linearGradient>
<linearGradient id="paint3_linear_163_5965" x1="46.2934" y1="28.5364" x2="-2.78396" y2="29.9092" gradientUnits="userSpaceOnUse">
<stop stop-color="#F7F7F7"/>
<stop offset="1" stop-color="#CDCDCD"/>
</linearGradient>
<linearGradient id="paint4_linear_163_5965" x1="45.4356" y1="32.7406" x2="33.4237" y2="43.2939" gradientUnits="userSpaceOnUse">
<stop stop-color="#E4E4E4"/>
<stop offset="1" stop-color="#B5B5B5"/>
</linearGradient>
<linearGradient id="paint5_linear_163_5965" x1="43.9132" y1="32.9384" x2="43.9132" y2="40.7769" gradientUnits="userSpaceOnUse">
<stop stop-color="#999999"/>
<stop offset="1" stop-opacity="0.56"/>
</linearGradient>
</defs>
</svg>
